M48
INCH,TZ
T1C0.0670
T2C0.1181
T3C0.1570
%
G90
G05
T1
X12700Y-23800
X12700Y-31700
X12700Y-39600
X12700Y-47500
X16700Y-23800
X16700Y-31700
X16700Y-39600
X16700Y-47500
X20600Y-23800
X20600Y-31700
X20600Y-39600
X20600Y-47500
X24600Y-23800
X24600Y-31700
X24600Y-39600
X24600Y-47500
X28500Y-23800
X28500Y-31700
X28500Y-39600
X28500Y-47500
X32500Y-23800
X32500Y-31700
X32500Y-39600
X32500Y-47500
X36400Y-23800
X36400Y-31700
X36400Y-39600
X36400Y-47500
X40400Y-23800
X40400Y-31700
X40400Y-39600
X40400Y-47500
X44300Y-23800
X44300Y-31700
X44300Y-39600
X44300Y-47500
X48300Y-23800
X48300Y-31700
X48300Y-39600
X48300Y-47500
X52200Y-23800
X52200Y-31700
X52200Y-39600
X56150Y-47500
X56200Y-23800
X56200Y-31700
X56200Y-39600
X60100Y-23800
X60100Y-31700
X60100Y-39600
X60150Y-47500
X64100Y-23800
X64100Y-31700
X64100Y-39600
X68000Y-23800
X68000Y-31700
X68000Y-39600
X68000Y-47500
X72000Y-23800
X72000Y-31700
X72000Y-39600
X72000Y-47500
X75900Y-23800
X75900Y-31700
X75900Y-39600
X75900Y-47500
X79900Y-23800
X79900Y-31700
X79900Y-39600
X79900Y-47500
X83800Y-23800
X83800Y-31700
X83800Y-39600
X83800Y-47500
X87800Y-23800
X87800Y-31700
X87800Y-39600
X87800Y-47500
X91700Y-23800
X91700Y-31700
X91700Y-39600
X91700Y-47500
X95700Y-23800
X95700Y-31700
X95700Y-39600
X95700Y-47500
X99600Y-23800
X99600Y-31700
X99600Y-39600
X99600Y-47500
X103600Y-23800
X103600Y-31700
X103600Y-39600
X103600Y-47500
T2
X13700Y-21800
X13700Y-29700
X13700Y-37600
X13700Y-45500
X16200Y-22800
X16200Y-30700
X16200Y-38600
X16200Y-46500
X21600Y-21800
X21600Y-29700
X21600Y-37600
X21600Y-45500
X24100Y-22800
X24100Y-30700
X24100Y-38600
X24100Y-46500
X29500Y-21800
X29500Y-29700
X29500Y-37600
X29500Y-45500
X32000Y-22800
X32000Y-30700
X32000Y-38600
X32000Y-46500
X37400Y-21800
X37400Y-29700
X37400Y-37600
X37400Y-45500
X39900Y-22800
X39900Y-30700
X39900Y-38600
X39900Y-46500
X45300Y-21800
X45300Y-29700
X45300Y-37600
X45300Y-45500
X47800Y-22800
X47800Y-30700
X47800Y-38600
X47800Y-46500
X53200Y-21800
X53200Y-29700
X53200Y-37600
X55700Y-22800
X55700Y-30700
X55700Y-38600
X57150Y-45500
X59650Y-46500
X61100Y-21800
X61100Y-29700
X61100Y-37600
X63600Y-22800
X63600Y-30700
X63600Y-38600
X69000Y-21800
X69000Y-29700
X69000Y-37600
X69000Y-45500
X71500Y-22800
X71500Y-30700
X71500Y-38600
X71500Y-46500
X76900Y-21800
X76900Y-29700
X76900Y-37600
X76900Y-45500
X79400Y-22800
X79400Y-30700
X79400Y-38600
X79400Y-46500
X84800Y-21800
X84800Y-29700
X84800Y-37600
X84800Y-45500
X87300Y-22800
X87300Y-30700
X87300Y-38600
X87300Y-46500
X92700Y-21800
X92700Y-29700
X92700Y-37600
X92700Y-45500
X95200Y-22800
X95200Y-30700
X95200Y-38600
X95200Y-46500
X100600Y-21800
X100600Y-29700
X100600Y-37600
X100600Y-45500
X103100Y-22800
X103100Y-30700
X103100Y-38600
X103100Y-46500
T3
X14700Y-23800
X14700Y-31700
X14700Y-39600
X14700Y-47500
X22600Y-23800
X22600Y-31700
X22600Y-39600
X22600Y-47500
X30500Y-23800
X30500Y-31700
X30500Y-39600
X30500Y-47500
X38400Y-23800
X38400Y-31700
X38400Y-39600
X38400Y-47500
X46300Y-23800
X46300Y-31700
X46300Y-39600
X46300Y-47500
X54200Y-23800
X54200Y-31700
X54200Y-39600
X58150Y-47500
X62100Y-23800
X62100Y-31700
X62100Y-39600
X70000Y-23800
X70000Y-31700
X70000Y-39600
X70000Y-47500
X77900Y-23800
X77900Y-31700
X77900Y-39600
X77900Y-47500
X85800Y-23800
X85800Y-31700
X85800Y-39600
X85800Y-47500
X93700Y-23800
X93700Y-31700
X93700Y-39600
X93700Y-47500
X101600Y-23800
X101600Y-31700
X101600Y-39600
X101600Y-47500
T0
M30
