M48
INCH,TZ
T1C0.0157
T2C0.0315
T3C0.0374
T4C0.0906
%
G90
G05
T1
X12000Y-22900
X14300Y-20300
X14665Y-16665
X14700Y-15000
X15600Y-20900
X17800Y-18500
X18160Y-15840
X18700Y-14900
X19400Y-16100
X19500Y-17100
X19500Y-17600
X19500Y-18100
X19900Y-20700
X20300Y-20300
X20500Y-15500
X20800Y-20700
X20900Y-22800
X21000Y-15400
X22300Y-15500
X22600Y-17200
X22600Y-17600
X22600Y-18700
X24000Y-15500
X24000Y-17100
X24100Y-16500
X25400Y-20100
X26400Y-29900
X26700Y-29600
X26800Y-35600
X27200Y-21200
X27200Y-21600
X27300Y-23000
X27500Y-20300
X28000Y-44400
X90000Y-20700
X97500Y-20400
T2
X13200Y-27200
X13200Y-28300
X13200Y-43000
X13200Y-44100
X16200Y-27200
X16200Y-28300
X16200Y-43000
X16200Y-44100
X21100Y-27200
X21100Y-28300
X21100Y-43000
X21100Y-44100
X24100Y-27200
X24100Y-28300
X24100Y-43000
X24100Y-44100
X29000Y-27200
X29000Y-28300
X29000Y-43000
X29000Y-44100
X32000Y-27200
X32000Y-28300
X32000Y-43000
X32000Y-44100
X36900Y-27200
X36900Y-28300
X36900Y-43000
X36900Y-44100
X39900Y-27200
X39900Y-28300
X39900Y-43000
X39900Y-44100
X44800Y-27200
X44800Y-28300
X44800Y-43000
X44800Y-44100
X47800Y-27200
X47800Y-28300
X47800Y-43000
X47800Y-44100
X52700Y-27200
X52700Y-28300
X52700Y-43000
X55700Y-27200
X55700Y-28300
X55700Y-43000
X60500Y-27200
X60500Y-28300
X60600Y-43000
X60600Y-44100
X63500Y-27200
X63500Y-28300
X63600Y-43000
X63600Y-44100
X68500Y-27200
X68500Y-28300
X68500Y-43000
X68500Y-44100
X71500Y-27200
X71500Y-28300
X71500Y-43000
X71500Y-44100
X76300Y-43000
X76300Y-44100
X76400Y-27200
X76400Y-28300
X79300Y-43000
X79300Y-44100
X79400Y-27200
X79400Y-28300
X84300Y-27200
X84300Y-28300
X84300Y-43000
X84300Y-44100
X87300Y-27200
X87300Y-28300
X87300Y-43000
X87300Y-44100
X92200Y-43000
X92200Y-44100
X92300Y-27200
X92300Y-28300
X95200Y-43000
X95200Y-44100
X95300Y-27200
X95300Y-28300
X98300Y-27200
X98300Y-28300
X98300Y-43000
X98300Y-44100
X101300Y-27200
X101300Y-28300
X101300Y-43000
X101300Y-44100
T3
X12900Y-18500
X13884Y-18500
X14672Y-18500
X15656Y-18500
T4
X11691Y-17433
X16865Y-17433
T0
M30
