G04 #@! TF.GenerationSoftware,KiCad,Pcbnew,5.1.12-84ad8e8a86~92~ubuntu20.04.1*
G04 #@! TF.CreationDate,2021-12-05T18:43:19-05:00*
G04 #@! TF.ProjectId,Keyboard_JPP,4b657962-6f61-4726-945f-4a50502e6b69,rev?*
G04 #@! TF.SameCoordinates,Original*
G04 #@! TF.FileFunction,Paste,Top*
G04 #@! TF.FilePolarity,Positive*
%FSLAX46Y46*%
G04 Gerber Fmt 4.6, Leading zero omitted, Abs format (unit mm)*
G04 Created by KiCad (PCBNEW 5.1.12-84ad8e8a86~92~ubuntu20.04.1) date 2021-12-05 18:43:19*
%MOMM*%
%LPD*%
G01*
G04 APERTURE LIST*
%ADD10C,0.100000*%
%ADD11R,1.500000X0.550000*%
%ADD12R,0.550000X1.500000*%
%ADD13R,2.550000X2.500000*%
%ADD14R,1.550000X1.300000*%
G04 APERTURE END LIST*
D10*
G36*
X45745122Y-53059022D02*
G01*
X44472330Y-54331814D01*
X42987406Y-52846890D01*
X44260198Y-51574098D01*
X45745122Y-53059022D01*
G37*
G36*
X43694512Y-51008412D02*
G01*
X42421720Y-52281204D01*
X40936796Y-50796280D01*
X42209588Y-49523488D01*
X43694512Y-51008412D01*
G37*
G36*
X45320858Y-49382066D02*
G01*
X44048066Y-50654858D01*
X42563142Y-49169934D01*
X43835934Y-47897142D01*
X45320858Y-49382066D01*
G37*
G36*
X47371468Y-51432676D02*
G01*
X46098676Y-52705468D01*
X44613752Y-51220544D01*
X45886544Y-49947752D01*
X47371468Y-51432676D01*
G37*
D11*
X59040000Y-39434000D03*
X59040000Y-40234000D03*
X59040000Y-41034000D03*
X59040000Y-41834000D03*
X59040000Y-42634000D03*
X59040000Y-43434000D03*
X59040000Y-44234000D03*
X59040000Y-45034000D03*
X59040000Y-45834000D03*
X59040000Y-46634000D03*
X59040000Y-47434000D03*
D12*
X57340000Y-49134000D03*
X56540000Y-49134000D03*
X55740000Y-49134000D03*
X54940000Y-49134000D03*
X54140000Y-49134000D03*
X53340000Y-49134000D03*
X52540000Y-49134000D03*
X51740000Y-49134000D03*
X50940000Y-49134000D03*
X50140000Y-49134000D03*
X49340000Y-49134000D03*
D11*
X47640000Y-47434000D03*
X47640000Y-46634000D03*
X47640000Y-45834000D03*
X47640000Y-45034000D03*
X47640000Y-44234000D03*
X47640000Y-43434000D03*
X47640000Y-42634000D03*
X47640000Y-41834000D03*
X47640000Y-41034000D03*
X47640000Y-40234000D03*
X47640000Y-39434000D03*
D12*
X49340000Y-37734000D03*
X50140000Y-37734000D03*
X50940000Y-37734000D03*
X51740000Y-37734000D03*
X52540000Y-37734000D03*
X53340000Y-37734000D03*
X54140000Y-37734000D03*
X54940000Y-37734000D03*
X55740000Y-37734000D03*
X56540000Y-37734000D03*
X57340000Y-37734000D03*
D13*
X44898000Y-118110000D03*
X31048000Y-115570000D03*
X44898000Y-98044000D03*
X31048000Y-95504000D03*
X44898000Y-77978000D03*
X31048000Y-75438000D03*
X44898000Y-57912000D03*
X31048000Y-55372000D03*
X64964000Y-118110000D03*
X51114000Y-115570000D03*
X64964000Y-98044000D03*
X51114000Y-95504000D03*
X64964000Y-77978000D03*
X51114000Y-75438000D03*
X64964000Y-57912000D03*
X51114000Y-55372000D03*
X85030000Y-118110000D03*
X71180000Y-115570000D03*
X85030000Y-98044000D03*
X71180000Y-95504000D03*
X85030000Y-77978000D03*
X71180000Y-75438000D03*
X85030000Y-57912000D03*
X71180000Y-55372000D03*
X105096000Y-118110000D03*
X91246000Y-115570000D03*
X105096000Y-98044000D03*
X91246000Y-95504000D03*
X105096000Y-77978000D03*
X91246000Y-75438000D03*
X105096000Y-57912000D03*
X91246000Y-55372000D03*
X125162000Y-118110000D03*
X111312000Y-115570000D03*
X125162000Y-98044000D03*
X111312000Y-95504000D03*
X125162000Y-77978000D03*
X111312000Y-75438000D03*
X125162000Y-57912000D03*
X111312000Y-55372000D03*
X145228000Y-98044000D03*
X131378000Y-95504000D03*
X145228000Y-77978000D03*
X131378000Y-75438000D03*
X145228000Y-57912000D03*
X131378000Y-55372000D03*
X155261000Y-118110000D03*
X141411000Y-115570000D03*
X165294000Y-98044000D03*
X151444000Y-95504000D03*
X165294000Y-77978000D03*
X151444000Y-75438000D03*
X165294000Y-57912000D03*
X151444000Y-55372000D03*
X185360000Y-118110000D03*
X171510000Y-115570000D03*
X185360000Y-98044000D03*
X171510000Y-95504000D03*
X185360000Y-77978000D03*
X171510000Y-75438000D03*
X185360000Y-57912000D03*
X171510000Y-55372000D03*
X205426000Y-118110000D03*
X191576000Y-115570000D03*
X205426000Y-98044000D03*
X191576000Y-95504000D03*
X205426000Y-77978000D03*
X191576000Y-75438000D03*
X205426000Y-57912000D03*
X191576000Y-55372000D03*
X225492000Y-118110000D03*
X211642000Y-115570000D03*
X225492000Y-98044000D03*
X211642000Y-95504000D03*
X225492000Y-77978000D03*
X211642000Y-75438000D03*
X225492000Y-57912000D03*
X211642000Y-55372000D03*
X245558000Y-118110000D03*
X231708000Y-115570000D03*
X245558000Y-98044000D03*
X231708000Y-95504000D03*
X245558000Y-77978000D03*
X231708000Y-75438000D03*
X245558000Y-57912000D03*
X231708000Y-55372000D03*
X265624000Y-118110000D03*
X251774000Y-115570000D03*
X265624000Y-98044000D03*
X251774000Y-95504000D03*
X265624000Y-77978000D03*
X251774000Y-75438000D03*
X265624000Y-57912000D03*
X251774000Y-55372000D03*
D14*
X37249000Y-41112000D03*
X37249000Y-36612000D03*
X29299000Y-36612000D03*
X29299000Y-41112000D03*
G36*
G01*
X60763999Y-46628000D02*
X61664001Y-46628000D01*
G75*
G02*
X61914000Y-46877999I0J-249999D01*
G01*
X61914000Y-47403001D01*
G75*
G02*
X61664001Y-47653000I-249999J0D01*
G01*
X60763999Y-47653000D01*
G75*
G02*
X60514000Y-47403001I0J249999D01*
G01*
X60514000Y-46877999D01*
G75*
G02*
X60763999Y-46628000I249999J0D01*
G01*
G37*
G36*
G01*
X60763999Y-44803000D02*
X61664001Y-44803000D01*
G75*
G02*
X61914000Y-45052999I0J-249999D01*
G01*
X61914000Y-45578001D01*
G75*
G02*
X61664001Y-45828000I-249999J0D01*
G01*
X60763999Y-45828000D01*
G75*
G02*
X60514000Y-45578001I0J249999D01*
G01*
X60514000Y-45052999D01*
G75*
G02*
X60763999Y-44803000I249999J0D01*
G01*
G37*
G36*
G01*
X41660500Y-36887999D02*
X41660500Y-37788001D01*
G75*
G02*
X41410501Y-38038000I-249999J0D01*
G01*
X40885499Y-38038000D01*
G75*
G02*
X40635500Y-37788001I0J249999D01*
G01*
X40635500Y-36887999D01*
G75*
G02*
X40885499Y-36638000I249999J0D01*
G01*
X41410501Y-36638000D01*
G75*
G02*
X41660500Y-36887999I0J-249999D01*
G01*
G37*
G36*
G01*
X43485500Y-36887999D02*
X43485500Y-37788001D01*
G75*
G02*
X43235501Y-38038000I-249999J0D01*
G01*
X42710499Y-38038000D01*
G75*
G02*
X42460500Y-37788001I0J249999D01*
G01*
X42460500Y-36887999D01*
G75*
G02*
X42710499Y-36638000I249999J0D01*
G01*
X43235501Y-36638000D01*
G75*
G02*
X43485500Y-36887999I0J-249999D01*
G01*
G37*
G36*
G01*
X41660500Y-38919999D02*
X41660500Y-39820001D01*
G75*
G02*
X41410501Y-40070000I-249999J0D01*
G01*
X40885499Y-40070000D01*
G75*
G02*
X40635500Y-39820001I0J249999D01*
G01*
X40635500Y-38919999D01*
G75*
G02*
X40885499Y-38670000I249999J0D01*
G01*
X41410501Y-38670000D01*
G75*
G02*
X41660500Y-38919999I0J-249999D01*
G01*
G37*
G36*
G01*
X43485500Y-38919999D02*
X43485500Y-39820001D01*
G75*
G02*
X43235501Y-40070000I-249999J0D01*
G01*
X42710499Y-40070000D01*
G75*
G02*
X42460500Y-39820001I0J249999D01*
G01*
X42460500Y-38919999D01*
G75*
G02*
X42710499Y-38670000I249999J0D01*
G01*
X43235501Y-38670000D01*
G75*
G02*
X43485500Y-38919999I0J-249999D01*
G01*
G37*
G36*
G01*
X34690000Y-43884001D02*
X34690000Y-42983999D01*
G75*
G02*
X34939999Y-42734000I249999J0D01*
G01*
X35465001Y-42734000D01*
G75*
G02*
X35715000Y-42983999I0J-249999D01*
G01*
X35715000Y-43884001D01*
G75*
G02*
X35465001Y-44134000I-249999J0D01*
G01*
X34939999Y-44134000D01*
G75*
G02*
X34690000Y-43884001I0J249999D01*
G01*
G37*
G36*
G01*
X32865000Y-43884001D02*
X32865000Y-42983999D01*
G75*
G02*
X33114999Y-42734000I249999J0D01*
G01*
X33640001Y-42734000D01*
G75*
G02*
X33890000Y-42983999I0J-249999D01*
G01*
X33890000Y-43884001D01*
G75*
G02*
X33640001Y-44134000I-249999J0D01*
G01*
X33114999Y-44134000D01*
G75*
G02*
X32865000Y-43884001I0J249999D01*
G01*
G37*
G36*
G01*
X39374000Y-51379000D02*
X39874000Y-51379000D01*
G75*
G02*
X40099000Y-51604000I0J-225000D01*
G01*
X40099000Y-52054000D01*
G75*
G02*
X39874000Y-52279000I-225000J0D01*
G01*
X39374000Y-52279000D01*
G75*
G02*
X39149000Y-52054000I0J225000D01*
G01*
X39149000Y-51604000D01*
G75*
G02*
X39374000Y-51379000I225000J0D01*
G01*
G37*
G36*
G01*
X39374000Y-49829000D02*
X39874000Y-49829000D01*
G75*
G02*
X40099000Y-50054000I0J-225000D01*
G01*
X40099000Y-50504000D01*
G75*
G02*
X39874000Y-50729000I-225000J0D01*
G01*
X39374000Y-50729000D01*
G75*
G02*
X39149000Y-50504000I0J225000D01*
G01*
X39149000Y-50054000D01*
G75*
G02*
X39374000Y-49829000I225000J0D01*
G01*
G37*
G36*
G01*
X48264000Y-53424000D02*
X48764000Y-53424000D01*
G75*
G02*
X48989000Y-53649000I0J-225000D01*
G01*
X48989000Y-54099000D01*
G75*
G02*
X48764000Y-54324000I-225000J0D01*
G01*
X48264000Y-54324000D01*
G75*
G02*
X48039000Y-54099000I0J225000D01*
G01*
X48039000Y-53649000D01*
G75*
G02*
X48264000Y-53424000I225000J0D01*
G01*
G37*
G36*
G01*
X48264000Y-51874000D02*
X48764000Y-51874000D01*
G75*
G02*
X48989000Y-52099000I0J-225000D01*
G01*
X48989000Y-52549000D01*
G75*
G02*
X48764000Y-52774000I-225000J0D01*
G01*
X48264000Y-52774000D01*
G75*
G02*
X48039000Y-52549000I0J225000D01*
G01*
X48039000Y-52099000D01*
G75*
G02*
X48264000Y-51874000I225000J0D01*
G01*
G37*
G36*
G01*
X29647000Y-50550000D02*
X29647000Y-51050000D01*
G75*
G02*
X29422000Y-51275000I-225000J0D01*
G01*
X28972000Y-51275000D01*
G75*
G02*
X28747000Y-51050000I0J225000D01*
G01*
X28747000Y-50550000D01*
G75*
G02*
X28972000Y-50325000I225000J0D01*
G01*
X29422000Y-50325000D01*
G75*
G02*
X29647000Y-50550000I0J-225000D01*
G01*
G37*
G36*
G01*
X31197000Y-50550000D02*
X31197000Y-51050000D01*
G75*
G02*
X30972000Y-51275000I-225000J0D01*
G01*
X30522000Y-51275000D01*
G75*
G02*
X30297000Y-51050000I0J225000D01*
G01*
X30297000Y-50550000D01*
G75*
G02*
X30522000Y-50325000I225000J0D01*
G01*
X30972000Y-50325000D01*
G75*
G02*
X31197000Y-50550000I0J-225000D01*
G01*
G37*
G36*
G01*
X29647000Y-48772000D02*
X29647000Y-49272000D01*
G75*
G02*
X29422000Y-49497000I-225000J0D01*
G01*
X28972000Y-49497000D01*
G75*
G02*
X28747000Y-49272000I0J225000D01*
G01*
X28747000Y-48772000D01*
G75*
G02*
X28972000Y-48547000I225000J0D01*
G01*
X29422000Y-48547000D01*
G75*
G02*
X29647000Y-48772000I0J-225000D01*
G01*
G37*
G36*
G01*
X31197000Y-48772000D02*
X31197000Y-49272000D01*
G75*
G02*
X30972000Y-49497000I-225000J0D01*
G01*
X30522000Y-49497000D01*
G75*
G02*
X30297000Y-49272000I0J225000D01*
G01*
X30297000Y-48772000D01*
G75*
G02*
X30522000Y-48547000I225000J0D01*
G01*
X30972000Y-48547000D01*
G75*
G02*
X31197000Y-48772000I0J-225000D01*
G01*
G37*
G36*
G01*
X61210000Y-37013000D02*
X60710000Y-37013000D01*
G75*
G02*
X60485000Y-36788000I0J225000D01*
G01*
X60485000Y-36338000D01*
G75*
G02*
X60710000Y-36113000I225000J0D01*
G01*
X61210000Y-36113000D01*
G75*
G02*
X61435000Y-36338000I0J-225000D01*
G01*
X61435000Y-36788000D01*
G75*
G02*
X61210000Y-37013000I-225000J0D01*
G01*
G37*
G36*
G01*
X61210000Y-38563000D02*
X60710000Y-38563000D01*
G75*
G02*
X60485000Y-38338000I0J225000D01*
G01*
X60485000Y-37888000D01*
G75*
G02*
X60710000Y-37663000I225000J0D01*
G01*
X61210000Y-37663000D01*
G75*
G02*
X61435000Y-37888000I0J-225000D01*
G01*
X61435000Y-38338000D01*
G75*
G02*
X61210000Y-38563000I-225000J0D01*
G01*
G37*
M02*
