G04 #@! TF.GenerationSoftware,KiCad,Pcbnew,5.1.12-84ad8e8a86~92~ubuntu20.04.1*
G04 #@! TF.CreationDate,2021-12-05T18:43:19-05:00*
G04 #@! TF.ProjectId,Keyboard_JPP,4b657962-6f61-4726-945f-4a50502e6b69,rev?*
G04 #@! TF.SameCoordinates,Original*
G04 #@! TF.FileFunction,Legend,Top*
G04 #@! TF.FilePolarity,Positive*
%FSLAX46Y46*%
G04 Gerber Fmt 4.6, Leading zero omitted, Abs format (unit mm)*
G04 Created by KiCad (PCBNEW 5.1.12-84ad8e8a86~92~ubuntu20.04.1) date 2021-12-05 18:43:19*
%MOMM*%
%LPD*%
G01*
G04 APERTURE LIST*
%ADD10C,0.120000*%
%ADD11C,0.150000*%
G04 APERTURE END LIST*
D10*
X155614000Y-108100000D02*
X155614000Y-110340000D01*
X155614000Y-110340000D02*
X159854000Y-110340000D01*
X159854000Y-110340000D02*
X159854000Y-108100000D01*
X159854000Y-108100000D02*
X155614000Y-108100000D01*
X154964000Y-109220000D02*
X155614000Y-109220000D01*
X160504000Y-109220000D02*
X159854000Y-109220000D01*
X156334000Y-108100000D02*
X156334000Y-110340000D01*
X156454000Y-108100000D02*
X156454000Y-110340000D01*
X156214000Y-108100000D02*
X156214000Y-110340000D01*
X135548000Y-67968000D02*
X135548000Y-70208000D01*
X135548000Y-70208000D02*
X139788000Y-70208000D01*
X139788000Y-70208000D02*
X139788000Y-67968000D01*
X139788000Y-67968000D02*
X135548000Y-67968000D01*
X134898000Y-69088000D02*
X135548000Y-69088000D01*
X140438000Y-69088000D02*
X139788000Y-69088000D01*
X136268000Y-67968000D02*
X136268000Y-70208000D01*
X136388000Y-67968000D02*
X136388000Y-70208000D01*
X136148000Y-67968000D02*
X136148000Y-70208000D01*
X44472330Y-54614657D02*
X47654311Y-51432676D01*
X47654311Y-51432676D02*
X43835934Y-47614299D01*
D11*
X58515000Y-38259000D02*
X57940000Y-38259000D01*
X58515000Y-48609000D02*
X57840000Y-48609000D01*
X48165000Y-48609000D02*
X48840000Y-48609000D01*
X48165000Y-38259000D02*
X48840000Y-38259000D01*
X58515000Y-38259000D02*
X58515000Y-38934000D01*
X48165000Y-38259000D02*
X48165000Y-38934000D01*
X48165000Y-48609000D02*
X48165000Y-47934000D01*
X58515000Y-48609000D02*
X58515000Y-47934000D01*
X57940000Y-38259000D02*
X57940000Y-36984000D01*
X39802162Y-120033960D02*
G75*
G03*
X37338000Y-118110000I-2464162J-616040D01*
G01*
X43688000Y-116205000D02*
G75*
G03*
X41148000Y-113665000I-2540000J0D01*
G01*
X43688000Y-119634000D02*
X43688000Y-120015000D01*
X32258000Y-117094000D02*
X32258000Y-118110000D01*
X32258000Y-118110000D02*
X37338000Y-118110000D01*
X39802162Y-120015000D02*
X41529000Y-120015000D01*
X43307000Y-120015000D02*
X43688000Y-120015000D01*
X43688000Y-116205000D02*
X43688000Y-116586000D01*
X41148000Y-113665000D02*
X32258000Y-113665000D01*
X32258000Y-113665000D02*
X32258000Y-114046000D01*
X39802162Y-99967960D02*
G75*
G03*
X37338000Y-98044000I-2464162J-616040D01*
G01*
X43688000Y-96139000D02*
G75*
G03*
X41148000Y-93599000I-2540000J0D01*
G01*
X43688000Y-99568000D02*
X43688000Y-99949000D01*
X32258000Y-97028000D02*
X32258000Y-98044000D01*
X32258000Y-98044000D02*
X37338000Y-98044000D01*
X39802162Y-99949000D02*
X41529000Y-99949000D01*
X43307000Y-99949000D02*
X43688000Y-99949000D01*
X43688000Y-96139000D02*
X43688000Y-96520000D01*
X41148000Y-93599000D02*
X32258000Y-93599000D01*
X32258000Y-93599000D02*
X32258000Y-93980000D01*
X39802162Y-79901960D02*
G75*
G03*
X37338000Y-77978000I-2464162J-616040D01*
G01*
X43688000Y-76073000D02*
G75*
G03*
X41148000Y-73533000I-2540000J0D01*
G01*
X43688000Y-79502000D02*
X43688000Y-79883000D01*
X32258000Y-76962000D02*
X32258000Y-77978000D01*
X32258000Y-77978000D02*
X37338000Y-77978000D01*
X39802162Y-79883000D02*
X41529000Y-79883000D01*
X43307000Y-79883000D02*
X43688000Y-79883000D01*
X43688000Y-76073000D02*
X43688000Y-76454000D01*
X41148000Y-73533000D02*
X32258000Y-73533000D01*
X32258000Y-73533000D02*
X32258000Y-73914000D01*
X39802162Y-59835960D02*
G75*
G03*
X37338000Y-57912000I-2464162J-616040D01*
G01*
X43688000Y-56007000D02*
G75*
G03*
X41148000Y-53467000I-2540000J0D01*
G01*
X43688000Y-59436000D02*
X43688000Y-59817000D01*
X32258000Y-56896000D02*
X32258000Y-57912000D01*
X32258000Y-57912000D02*
X37338000Y-57912000D01*
X39802162Y-59817000D02*
X41529000Y-59817000D01*
X43307000Y-59817000D02*
X43688000Y-59817000D01*
X43688000Y-56007000D02*
X43688000Y-56388000D01*
X41148000Y-53467000D02*
X32258000Y-53467000D01*
X32258000Y-53467000D02*
X32258000Y-53848000D01*
X59868162Y-120033960D02*
G75*
G03*
X57404000Y-118110000I-2464162J-616040D01*
G01*
X63754000Y-116205000D02*
G75*
G03*
X61214000Y-113665000I-2540000J0D01*
G01*
X63754000Y-119634000D02*
X63754000Y-120015000D01*
X52324000Y-117094000D02*
X52324000Y-118110000D01*
X52324000Y-118110000D02*
X57404000Y-118110000D01*
X59868162Y-120015000D02*
X61595000Y-120015000D01*
X63373000Y-120015000D02*
X63754000Y-120015000D01*
X63754000Y-116205000D02*
X63754000Y-116586000D01*
X61214000Y-113665000D02*
X52324000Y-113665000D01*
X52324000Y-113665000D02*
X52324000Y-114046000D01*
X59868162Y-99967960D02*
G75*
G03*
X57404000Y-98044000I-2464162J-616040D01*
G01*
X63754000Y-96139000D02*
G75*
G03*
X61214000Y-93599000I-2540000J0D01*
G01*
X63754000Y-99568000D02*
X63754000Y-99949000D01*
X52324000Y-97028000D02*
X52324000Y-98044000D01*
X52324000Y-98044000D02*
X57404000Y-98044000D01*
X59868162Y-99949000D02*
X61595000Y-99949000D01*
X63373000Y-99949000D02*
X63754000Y-99949000D01*
X63754000Y-96139000D02*
X63754000Y-96520000D01*
X61214000Y-93599000D02*
X52324000Y-93599000D01*
X52324000Y-93599000D02*
X52324000Y-93980000D01*
X59868162Y-79901960D02*
G75*
G03*
X57404000Y-77978000I-2464162J-616040D01*
G01*
X63754000Y-76073000D02*
G75*
G03*
X61214000Y-73533000I-2540000J0D01*
G01*
X63754000Y-79502000D02*
X63754000Y-79883000D01*
X52324000Y-76962000D02*
X52324000Y-77978000D01*
X52324000Y-77978000D02*
X57404000Y-77978000D01*
X59868162Y-79883000D02*
X61595000Y-79883000D01*
X63373000Y-79883000D02*
X63754000Y-79883000D01*
X63754000Y-76073000D02*
X63754000Y-76454000D01*
X61214000Y-73533000D02*
X52324000Y-73533000D01*
X52324000Y-73533000D02*
X52324000Y-73914000D01*
X59868162Y-59835960D02*
G75*
G03*
X57404000Y-57912000I-2464162J-616040D01*
G01*
X63754000Y-56007000D02*
G75*
G03*
X61214000Y-53467000I-2540000J0D01*
G01*
X63754000Y-59436000D02*
X63754000Y-59817000D01*
X52324000Y-56896000D02*
X52324000Y-57912000D01*
X52324000Y-57912000D02*
X57404000Y-57912000D01*
X59868162Y-59817000D02*
X61595000Y-59817000D01*
X63373000Y-59817000D02*
X63754000Y-59817000D01*
X63754000Y-56007000D02*
X63754000Y-56388000D01*
X61214000Y-53467000D02*
X52324000Y-53467000D01*
X52324000Y-53467000D02*
X52324000Y-53848000D01*
X79934162Y-120033960D02*
G75*
G03*
X77470000Y-118110000I-2464162J-616040D01*
G01*
X83820000Y-116205000D02*
G75*
G03*
X81280000Y-113665000I-2540000J0D01*
G01*
X83820000Y-119634000D02*
X83820000Y-120015000D01*
X72390000Y-117094000D02*
X72390000Y-118110000D01*
X72390000Y-118110000D02*
X77470000Y-118110000D01*
X79934162Y-120015000D02*
X81661000Y-120015000D01*
X83439000Y-120015000D02*
X83820000Y-120015000D01*
X83820000Y-116205000D02*
X83820000Y-116586000D01*
X81280000Y-113665000D02*
X72390000Y-113665000D01*
X72390000Y-113665000D02*
X72390000Y-114046000D01*
X79934162Y-99967960D02*
G75*
G03*
X77470000Y-98044000I-2464162J-616040D01*
G01*
X83820000Y-96139000D02*
G75*
G03*
X81280000Y-93599000I-2540000J0D01*
G01*
X83820000Y-99568000D02*
X83820000Y-99949000D01*
X72390000Y-97028000D02*
X72390000Y-98044000D01*
X72390000Y-98044000D02*
X77470000Y-98044000D01*
X79934162Y-99949000D02*
X81661000Y-99949000D01*
X83439000Y-99949000D02*
X83820000Y-99949000D01*
X83820000Y-96139000D02*
X83820000Y-96520000D01*
X81280000Y-93599000D02*
X72390000Y-93599000D01*
X72390000Y-93599000D02*
X72390000Y-93980000D01*
X79934162Y-79901960D02*
G75*
G03*
X77470000Y-77978000I-2464162J-616040D01*
G01*
X83820000Y-76073000D02*
G75*
G03*
X81280000Y-73533000I-2540000J0D01*
G01*
X83820000Y-79502000D02*
X83820000Y-79883000D01*
X72390000Y-76962000D02*
X72390000Y-77978000D01*
X72390000Y-77978000D02*
X77470000Y-77978000D01*
X79934162Y-79883000D02*
X81661000Y-79883000D01*
X83439000Y-79883000D02*
X83820000Y-79883000D01*
X83820000Y-76073000D02*
X83820000Y-76454000D01*
X81280000Y-73533000D02*
X72390000Y-73533000D01*
X72390000Y-73533000D02*
X72390000Y-73914000D01*
X79934162Y-59835960D02*
G75*
G03*
X77470000Y-57912000I-2464162J-616040D01*
G01*
X83820000Y-56007000D02*
G75*
G03*
X81280000Y-53467000I-2540000J0D01*
G01*
X83820000Y-59436000D02*
X83820000Y-59817000D01*
X72390000Y-56896000D02*
X72390000Y-57912000D01*
X72390000Y-57912000D02*
X77470000Y-57912000D01*
X79934162Y-59817000D02*
X81661000Y-59817000D01*
X83439000Y-59817000D02*
X83820000Y-59817000D01*
X83820000Y-56007000D02*
X83820000Y-56388000D01*
X81280000Y-53467000D02*
X72390000Y-53467000D01*
X72390000Y-53467000D02*
X72390000Y-53848000D01*
X100000162Y-120033960D02*
G75*
G03*
X97536000Y-118110000I-2464162J-616040D01*
G01*
X103886000Y-116205000D02*
G75*
G03*
X101346000Y-113665000I-2540000J0D01*
G01*
X103886000Y-119634000D02*
X103886000Y-120015000D01*
X92456000Y-117094000D02*
X92456000Y-118110000D01*
X92456000Y-118110000D02*
X97536000Y-118110000D01*
X100000162Y-120015000D02*
X101727000Y-120015000D01*
X103505000Y-120015000D02*
X103886000Y-120015000D01*
X103886000Y-116205000D02*
X103886000Y-116586000D01*
X101346000Y-113665000D02*
X92456000Y-113665000D01*
X92456000Y-113665000D02*
X92456000Y-114046000D01*
X100000162Y-99967960D02*
G75*
G03*
X97536000Y-98044000I-2464162J-616040D01*
G01*
X103886000Y-96139000D02*
G75*
G03*
X101346000Y-93599000I-2540000J0D01*
G01*
X103886000Y-99568000D02*
X103886000Y-99949000D01*
X92456000Y-97028000D02*
X92456000Y-98044000D01*
X92456000Y-98044000D02*
X97536000Y-98044000D01*
X100000162Y-99949000D02*
X101727000Y-99949000D01*
X103505000Y-99949000D02*
X103886000Y-99949000D01*
X103886000Y-96139000D02*
X103886000Y-96520000D01*
X101346000Y-93599000D02*
X92456000Y-93599000D01*
X92456000Y-93599000D02*
X92456000Y-93980000D01*
X100000162Y-79901960D02*
G75*
G03*
X97536000Y-77978000I-2464162J-616040D01*
G01*
X103886000Y-76073000D02*
G75*
G03*
X101346000Y-73533000I-2540000J0D01*
G01*
X103886000Y-79502000D02*
X103886000Y-79883000D01*
X92456000Y-76962000D02*
X92456000Y-77978000D01*
X92456000Y-77978000D02*
X97536000Y-77978000D01*
X100000162Y-79883000D02*
X101727000Y-79883000D01*
X103505000Y-79883000D02*
X103886000Y-79883000D01*
X103886000Y-76073000D02*
X103886000Y-76454000D01*
X101346000Y-73533000D02*
X92456000Y-73533000D01*
X92456000Y-73533000D02*
X92456000Y-73914000D01*
X100000162Y-59835960D02*
G75*
G03*
X97536000Y-57912000I-2464162J-616040D01*
G01*
X103886000Y-56007000D02*
G75*
G03*
X101346000Y-53467000I-2540000J0D01*
G01*
X103886000Y-59436000D02*
X103886000Y-59817000D01*
X92456000Y-56896000D02*
X92456000Y-57912000D01*
X92456000Y-57912000D02*
X97536000Y-57912000D01*
X100000162Y-59817000D02*
X101727000Y-59817000D01*
X103505000Y-59817000D02*
X103886000Y-59817000D01*
X103886000Y-56007000D02*
X103886000Y-56388000D01*
X101346000Y-53467000D02*
X92456000Y-53467000D01*
X92456000Y-53467000D02*
X92456000Y-53848000D01*
X120066162Y-120033960D02*
G75*
G03*
X117602000Y-118110000I-2464162J-616040D01*
G01*
X123952000Y-116205000D02*
G75*
G03*
X121412000Y-113665000I-2540000J0D01*
G01*
X123952000Y-119634000D02*
X123952000Y-120015000D01*
X112522000Y-117094000D02*
X112522000Y-118110000D01*
X112522000Y-118110000D02*
X117602000Y-118110000D01*
X120066162Y-120015000D02*
X121793000Y-120015000D01*
X123571000Y-120015000D02*
X123952000Y-120015000D01*
X123952000Y-116205000D02*
X123952000Y-116586000D01*
X121412000Y-113665000D02*
X112522000Y-113665000D01*
X112522000Y-113665000D02*
X112522000Y-114046000D01*
X120066162Y-99967960D02*
G75*
G03*
X117602000Y-98044000I-2464162J-616040D01*
G01*
X123952000Y-96139000D02*
G75*
G03*
X121412000Y-93599000I-2540000J0D01*
G01*
X123952000Y-99568000D02*
X123952000Y-99949000D01*
X112522000Y-97028000D02*
X112522000Y-98044000D01*
X112522000Y-98044000D02*
X117602000Y-98044000D01*
X120066162Y-99949000D02*
X121793000Y-99949000D01*
X123571000Y-99949000D02*
X123952000Y-99949000D01*
X123952000Y-96139000D02*
X123952000Y-96520000D01*
X121412000Y-93599000D02*
X112522000Y-93599000D01*
X112522000Y-93599000D02*
X112522000Y-93980000D01*
X120066162Y-79901960D02*
G75*
G03*
X117602000Y-77978000I-2464162J-616040D01*
G01*
X123952000Y-76073000D02*
G75*
G03*
X121412000Y-73533000I-2540000J0D01*
G01*
X123952000Y-79502000D02*
X123952000Y-79883000D01*
X112522000Y-76962000D02*
X112522000Y-77978000D01*
X112522000Y-77978000D02*
X117602000Y-77978000D01*
X120066162Y-79883000D02*
X121793000Y-79883000D01*
X123571000Y-79883000D02*
X123952000Y-79883000D01*
X123952000Y-76073000D02*
X123952000Y-76454000D01*
X121412000Y-73533000D02*
X112522000Y-73533000D01*
X112522000Y-73533000D02*
X112522000Y-73914000D01*
X120066162Y-59835960D02*
G75*
G03*
X117602000Y-57912000I-2464162J-616040D01*
G01*
X123952000Y-56007000D02*
G75*
G03*
X121412000Y-53467000I-2540000J0D01*
G01*
X123952000Y-59436000D02*
X123952000Y-59817000D01*
X112522000Y-56896000D02*
X112522000Y-57912000D01*
X112522000Y-57912000D02*
X117602000Y-57912000D01*
X120066162Y-59817000D02*
X121793000Y-59817000D01*
X123571000Y-59817000D02*
X123952000Y-59817000D01*
X123952000Y-56007000D02*
X123952000Y-56388000D01*
X121412000Y-53467000D02*
X112522000Y-53467000D01*
X112522000Y-53467000D02*
X112522000Y-53848000D01*
X140132162Y-99967960D02*
G75*
G03*
X137668000Y-98044000I-2464162J-616040D01*
G01*
X144018000Y-96139000D02*
G75*
G03*
X141478000Y-93599000I-2540000J0D01*
G01*
X144018000Y-99568000D02*
X144018000Y-99949000D01*
X132588000Y-97028000D02*
X132588000Y-98044000D01*
X132588000Y-98044000D02*
X137668000Y-98044000D01*
X140132162Y-99949000D02*
X141859000Y-99949000D01*
X143637000Y-99949000D02*
X144018000Y-99949000D01*
X144018000Y-96139000D02*
X144018000Y-96520000D01*
X141478000Y-93599000D02*
X132588000Y-93599000D01*
X132588000Y-93599000D02*
X132588000Y-93980000D01*
X140132162Y-79901960D02*
G75*
G03*
X137668000Y-77978000I-2464162J-616040D01*
G01*
X144018000Y-76073000D02*
G75*
G03*
X141478000Y-73533000I-2540000J0D01*
G01*
X144018000Y-79502000D02*
X144018000Y-79883000D01*
X132588000Y-76962000D02*
X132588000Y-77978000D01*
X132588000Y-77978000D02*
X137668000Y-77978000D01*
X140132162Y-79883000D02*
X141859000Y-79883000D01*
X143637000Y-79883000D02*
X144018000Y-79883000D01*
X144018000Y-76073000D02*
X144018000Y-76454000D01*
X141478000Y-73533000D02*
X132588000Y-73533000D01*
X132588000Y-73533000D02*
X132588000Y-73914000D01*
X140132162Y-59835960D02*
G75*
G03*
X137668000Y-57912000I-2464162J-616040D01*
G01*
X144018000Y-56007000D02*
G75*
G03*
X141478000Y-53467000I-2540000J0D01*
G01*
X144018000Y-59436000D02*
X144018000Y-59817000D01*
X132588000Y-56896000D02*
X132588000Y-57912000D01*
X132588000Y-57912000D02*
X137668000Y-57912000D01*
X140132162Y-59817000D02*
X141859000Y-59817000D01*
X143637000Y-59817000D02*
X144018000Y-59817000D01*
X144018000Y-56007000D02*
X144018000Y-56388000D01*
X141478000Y-53467000D02*
X132588000Y-53467000D01*
X132588000Y-53467000D02*
X132588000Y-53848000D01*
X150165162Y-120033960D02*
G75*
G03*
X147701000Y-118110000I-2464162J-616040D01*
G01*
X154051000Y-116205000D02*
G75*
G03*
X151511000Y-113665000I-2540000J0D01*
G01*
X154051000Y-119634000D02*
X154051000Y-120015000D01*
X142621000Y-117094000D02*
X142621000Y-118110000D01*
X142621000Y-118110000D02*
X147701000Y-118110000D01*
X150165162Y-120015000D02*
X151892000Y-120015000D01*
X153670000Y-120015000D02*
X154051000Y-120015000D01*
X154051000Y-116205000D02*
X154051000Y-116586000D01*
X151511000Y-113665000D02*
X142621000Y-113665000D01*
X142621000Y-113665000D02*
X142621000Y-114046000D01*
X160198162Y-99967960D02*
G75*
G03*
X157734000Y-98044000I-2464162J-616040D01*
G01*
X164084000Y-96139000D02*
G75*
G03*
X161544000Y-93599000I-2540000J0D01*
G01*
X164084000Y-99568000D02*
X164084000Y-99949000D01*
X152654000Y-97028000D02*
X152654000Y-98044000D01*
X152654000Y-98044000D02*
X157734000Y-98044000D01*
X160198162Y-99949000D02*
X161925000Y-99949000D01*
X163703000Y-99949000D02*
X164084000Y-99949000D01*
X164084000Y-96139000D02*
X164084000Y-96520000D01*
X161544000Y-93599000D02*
X152654000Y-93599000D01*
X152654000Y-93599000D02*
X152654000Y-93980000D01*
X160198162Y-79901960D02*
G75*
G03*
X157734000Y-77978000I-2464162J-616040D01*
G01*
X164084000Y-76073000D02*
G75*
G03*
X161544000Y-73533000I-2540000J0D01*
G01*
X164084000Y-79502000D02*
X164084000Y-79883000D01*
X152654000Y-76962000D02*
X152654000Y-77978000D01*
X152654000Y-77978000D02*
X157734000Y-77978000D01*
X160198162Y-79883000D02*
X161925000Y-79883000D01*
X163703000Y-79883000D02*
X164084000Y-79883000D01*
X164084000Y-76073000D02*
X164084000Y-76454000D01*
X161544000Y-73533000D02*
X152654000Y-73533000D01*
X152654000Y-73533000D02*
X152654000Y-73914000D01*
X160198162Y-59835960D02*
G75*
G03*
X157734000Y-57912000I-2464162J-616040D01*
G01*
X164084000Y-56007000D02*
G75*
G03*
X161544000Y-53467000I-2540000J0D01*
G01*
X164084000Y-59436000D02*
X164084000Y-59817000D01*
X152654000Y-56896000D02*
X152654000Y-57912000D01*
X152654000Y-57912000D02*
X157734000Y-57912000D01*
X160198162Y-59817000D02*
X161925000Y-59817000D01*
X163703000Y-59817000D02*
X164084000Y-59817000D01*
X164084000Y-56007000D02*
X164084000Y-56388000D01*
X161544000Y-53467000D02*
X152654000Y-53467000D01*
X152654000Y-53467000D02*
X152654000Y-53848000D01*
X180264162Y-120033960D02*
G75*
G03*
X177800000Y-118110000I-2464162J-616040D01*
G01*
X184150000Y-116205000D02*
G75*
G03*
X181610000Y-113665000I-2540000J0D01*
G01*
X184150000Y-119634000D02*
X184150000Y-120015000D01*
X172720000Y-117094000D02*
X172720000Y-118110000D01*
X172720000Y-118110000D02*
X177800000Y-118110000D01*
X180264162Y-120015000D02*
X181991000Y-120015000D01*
X183769000Y-120015000D02*
X184150000Y-120015000D01*
X184150000Y-116205000D02*
X184150000Y-116586000D01*
X181610000Y-113665000D02*
X172720000Y-113665000D01*
X172720000Y-113665000D02*
X172720000Y-114046000D01*
X180264162Y-99967960D02*
G75*
G03*
X177800000Y-98044000I-2464162J-616040D01*
G01*
X184150000Y-96139000D02*
G75*
G03*
X181610000Y-93599000I-2540000J0D01*
G01*
X184150000Y-99568000D02*
X184150000Y-99949000D01*
X172720000Y-97028000D02*
X172720000Y-98044000D01*
X172720000Y-98044000D02*
X177800000Y-98044000D01*
X180264162Y-99949000D02*
X181991000Y-99949000D01*
X183769000Y-99949000D02*
X184150000Y-99949000D01*
X184150000Y-96139000D02*
X184150000Y-96520000D01*
X181610000Y-93599000D02*
X172720000Y-93599000D01*
X172720000Y-93599000D02*
X172720000Y-93980000D01*
X180264162Y-79901960D02*
G75*
G03*
X177800000Y-77978000I-2464162J-616040D01*
G01*
X184150000Y-76073000D02*
G75*
G03*
X181610000Y-73533000I-2540000J0D01*
G01*
X184150000Y-79502000D02*
X184150000Y-79883000D01*
X172720000Y-76962000D02*
X172720000Y-77978000D01*
X172720000Y-77978000D02*
X177800000Y-77978000D01*
X180264162Y-79883000D02*
X181991000Y-79883000D01*
X183769000Y-79883000D02*
X184150000Y-79883000D01*
X184150000Y-76073000D02*
X184150000Y-76454000D01*
X181610000Y-73533000D02*
X172720000Y-73533000D01*
X172720000Y-73533000D02*
X172720000Y-73914000D01*
X180264162Y-59835960D02*
G75*
G03*
X177800000Y-57912000I-2464162J-616040D01*
G01*
X184150000Y-56007000D02*
G75*
G03*
X181610000Y-53467000I-2540000J0D01*
G01*
X184150000Y-59436000D02*
X184150000Y-59817000D01*
X172720000Y-56896000D02*
X172720000Y-57912000D01*
X172720000Y-57912000D02*
X177800000Y-57912000D01*
X180264162Y-59817000D02*
X181991000Y-59817000D01*
X183769000Y-59817000D02*
X184150000Y-59817000D01*
X184150000Y-56007000D02*
X184150000Y-56388000D01*
X181610000Y-53467000D02*
X172720000Y-53467000D01*
X172720000Y-53467000D02*
X172720000Y-53848000D01*
X200330162Y-120033960D02*
G75*
G03*
X197866000Y-118110000I-2464162J-616040D01*
G01*
X204216000Y-116205000D02*
G75*
G03*
X201676000Y-113665000I-2540000J0D01*
G01*
X204216000Y-119634000D02*
X204216000Y-120015000D01*
X192786000Y-117094000D02*
X192786000Y-118110000D01*
X192786000Y-118110000D02*
X197866000Y-118110000D01*
X200330162Y-120015000D02*
X202057000Y-120015000D01*
X203835000Y-120015000D02*
X204216000Y-120015000D01*
X204216000Y-116205000D02*
X204216000Y-116586000D01*
X201676000Y-113665000D02*
X192786000Y-113665000D01*
X192786000Y-113665000D02*
X192786000Y-114046000D01*
X200330162Y-99967960D02*
G75*
G03*
X197866000Y-98044000I-2464162J-616040D01*
G01*
X204216000Y-96139000D02*
G75*
G03*
X201676000Y-93599000I-2540000J0D01*
G01*
X204216000Y-99568000D02*
X204216000Y-99949000D01*
X192786000Y-97028000D02*
X192786000Y-98044000D01*
X192786000Y-98044000D02*
X197866000Y-98044000D01*
X200330162Y-99949000D02*
X202057000Y-99949000D01*
X203835000Y-99949000D02*
X204216000Y-99949000D01*
X204216000Y-96139000D02*
X204216000Y-96520000D01*
X201676000Y-93599000D02*
X192786000Y-93599000D01*
X192786000Y-93599000D02*
X192786000Y-93980000D01*
X200330162Y-79901960D02*
G75*
G03*
X197866000Y-77978000I-2464162J-616040D01*
G01*
X204216000Y-76073000D02*
G75*
G03*
X201676000Y-73533000I-2540000J0D01*
G01*
X204216000Y-79502000D02*
X204216000Y-79883000D01*
X192786000Y-76962000D02*
X192786000Y-77978000D01*
X192786000Y-77978000D02*
X197866000Y-77978000D01*
X200330162Y-79883000D02*
X202057000Y-79883000D01*
X203835000Y-79883000D02*
X204216000Y-79883000D01*
X204216000Y-76073000D02*
X204216000Y-76454000D01*
X201676000Y-73533000D02*
X192786000Y-73533000D01*
X192786000Y-73533000D02*
X192786000Y-73914000D01*
X200330162Y-59835960D02*
G75*
G03*
X197866000Y-57912000I-2464162J-616040D01*
G01*
X204216000Y-56007000D02*
G75*
G03*
X201676000Y-53467000I-2540000J0D01*
G01*
X204216000Y-59436000D02*
X204216000Y-59817000D01*
X192786000Y-56896000D02*
X192786000Y-57912000D01*
X192786000Y-57912000D02*
X197866000Y-57912000D01*
X200330162Y-59817000D02*
X202057000Y-59817000D01*
X203835000Y-59817000D02*
X204216000Y-59817000D01*
X204216000Y-56007000D02*
X204216000Y-56388000D01*
X201676000Y-53467000D02*
X192786000Y-53467000D01*
X192786000Y-53467000D02*
X192786000Y-53848000D01*
X220396162Y-120033960D02*
G75*
G03*
X217932000Y-118110000I-2464162J-616040D01*
G01*
X224282000Y-116205000D02*
G75*
G03*
X221742000Y-113665000I-2540000J0D01*
G01*
X224282000Y-119634000D02*
X224282000Y-120015000D01*
X212852000Y-117094000D02*
X212852000Y-118110000D01*
X212852000Y-118110000D02*
X217932000Y-118110000D01*
X220396162Y-120015000D02*
X222123000Y-120015000D01*
X223901000Y-120015000D02*
X224282000Y-120015000D01*
X224282000Y-116205000D02*
X224282000Y-116586000D01*
X221742000Y-113665000D02*
X212852000Y-113665000D01*
X212852000Y-113665000D02*
X212852000Y-114046000D01*
X220396162Y-99967960D02*
G75*
G03*
X217932000Y-98044000I-2464162J-616040D01*
G01*
X224282000Y-96139000D02*
G75*
G03*
X221742000Y-93599000I-2540000J0D01*
G01*
X224282000Y-99568000D02*
X224282000Y-99949000D01*
X212852000Y-97028000D02*
X212852000Y-98044000D01*
X212852000Y-98044000D02*
X217932000Y-98044000D01*
X220396162Y-99949000D02*
X222123000Y-99949000D01*
X223901000Y-99949000D02*
X224282000Y-99949000D01*
X224282000Y-96139000D02*
X224282000Y-96520000D01*
X221742000Y-93599000D02*
X212852000Y-93599000D01*
X212852000Y-93599000D02*
X212852000Y-93980000D01*
X220396162Y-79901960D02*
G75*
G03*
X217932000Y-77978000I-2464162J-616040D01*
G01*
X224282000Y-76073000D02*
G75*
G03*
X221742000Y-73533000I-2540000J0D01*
G01*
X224282000Y-79502000D02*
X224282000Y-79883000D01*
X212852000Y-76962000D02*
X212852000Y-77978000D01*
X212852000Y-77978000D02*
X217932000Y-77978000D01*
X220396162Y-79883000D02*
X222123000Y-79883000D01*
X223901000Y-79883000D02*
X224282000Y-79883000D01*
X224282000Y-76073000D02*
X224282000Y-76454000D01*
X221742000Y-73533000D02*
X212852000Y-73533000D01*
X212852000Y-73533000D02*
X212852000Y-73914000D01*
X220396162Y-59835960D02*
G75*
G03*
X217932000Y-57912000I-2464162J-616040D01*
G01*
X224282000Y-56007000D02*
G75*
G03*
X221742000Y-53467000I-2540000J0D01*
G01*
X224282000Y-59436000D02*
X224282000Y-59817000D01*
X212852000Y-56896000D02*
X212852000Y-57912000D01*
X212852000Y-57912000D02*
X217932000Y-57912000D01*
X220396162Y-59817000D02*
X222123000Y-59817000D01*
X223901000Y-59817000D02*
X224282000Y-59817000D01*
X224282000Y-56007000D02*
X224282000Y-56388000D01*
X221742000Y-53467000D02*
X212852000Y-53467000D01*
X212852000Y-53467000D02*
X212852000Y-53848000D01*
X240462162Y-120033960D02*
G75*
G03*
X237998000Y-118110000I-2464162J-616040D01*
G01*
X244348000Y-116205000D02*
G75*
G03*
X241808000Y-113665000I-2540000J0D01*
G01*
X244348000Y-119634000D02*
X244348000Y-120015000D01*
X232918000Y-117094000D02*
X232918000Y-118110000D01*
X232918000Y-118110000D02*
X237998000Y-118110000D01*
X240462162Y-120015000D02*
X242189000Y-120015000D01*
X243967000Y-120015000D02*
X244348000Y-120015000D01*
X244348000Y-116205000D02*
X244348000Y-116586000D01*
X241808000Y-113665000D02*
X232918000Y-113665000D01*
X232918000Y-113665000D02*
X232918000Y-114046000D01*
X240462162Y-99967960D02*
G75*
G03*
X237998000Y-98044000I-2464162J-616040D01*
G01*
X244348000Y-96139000D02*
G75*
G03*
X241808000Y-93599000I-2540000J0D01*
G01*
X244348000Y-99568000D02*
X244348000Y-99949000D01*
X232918000Y-97028000D02*
X232918000Y-98044000D01*
X232918000Y-98044000D02*
X237998000Y-98044000D01*
X240462162Y-99949000D02*
X242189000Y-99949000D01*
X243967000Y-99949000D02*
X244348000Y-99949000D01*
X244348000Y-96139000D02*
X244348000Y-96520000D01*
X241808000Y-93599000D02*
X232918000Y-93599000D01*
X232918000Y-93599000D02*
X232918000Y-93980000D01*
X240462162Y-79901960D02*
G75*
G03*
X237998000Y-77978000I-2464162J-616040D01*
G01*
X244348000Y-76073000D02*
G75*
G03*
X241808000Y-73533000I-2540000J0D01*
G01*
X244348000Y-79502000D02*
X244348000Y-79883000D01*
X232918000Y-76962000D02*
X232918000Y-77978000D01*
X232918000Y-77978000D02*
X237998000Y-77978000D01*
X240462162Y-79883000D02*
X242189000Y-79883000D01*
X243967000Y-79883000D02*
X244348000Y-79883000D01*
X244348000Y-76073000D02*
X244348000Y-76454000D01*
X241808000Y-73533000D02*
X232918000Y-73533000D01*
X232918000Y-73533000D02*
X232918000Y-73914000D01*
X240462162Y-59835960D02*
G75*
G03*
X237998000Y-57912000I-2464162J-616040D01*
G01*
X244348000Y-56007000D02*
G75*
G03*
X241808000Y-53467000I-2540000J0D01*
G01*
X244348000Y-59436000D02*
X244348000Y-59817000D01*
X232918000Y-56896000D02*
X232918000Y-57912000D01*
X232918000Y-57912000D02*
X237998000Y-57912000D01*
X240462162Y-59817000D02*
X242189000Y-59817000D01*
X243967000Y-59817000D02*
X244348000Y-59817000D01*
X244348000Y-56007000D02*
X244348000Y-56388000D01*
X241808000Y-53467000D02*
X232918000Y-53467000D01*
X232918000Y-53467000D02*
X232918000Y-53848000D01*
X260528162Y-120033960D02*
G75*
G03*
X258064000Y-118110000I-2464162J-616040D01*
G01*
X264414000Y-116205000D02*
G75*
G03*
X261874000Y-113665000I-2540000J0D01*
G01*
X264414000Y-119634000D02*
X264414000Y-120015000D01*
X252984000Y-117094000D02*
X252984000Y-118110000D01*
X252984000Y-118110000D02*
X258064000Y-118110000D01*
X260528162Y-120015000D02*
X262255000Y-120015000D01*
X264033000Y-120015000D02*
X264414000Y-120015000D01*
X264414000Y-116205000D02*
X264414000Y-116586000D01*
X261874000Y-113665000D02*
X252984000Y-113665000D01*
X252984000Y-113665000D02*
X252984000Y-114046000D01*
X260528162Y-99967960D02*
G75*
G03*
X258064000Y-98044000I-2464162J-616040D01*
G01*
X264414000Y-96139000D02*
G75*
G03*
X261874000Y-93599000I-2540000J0D01*
G01*
X264414000Y-99568000D02*
X264414000Y-99949000D01*
X252984000Y-97028000D02*
X252984000Y-98044000D01*
X252984000Y-98044000D02*
X258064000Y-98044000D01*
X260528162Y-99949000D02*
X262255000Y-99949000D01*
X264033000Y-99949000D02*
X264414000Y-99949000D01*
X264414000Y-96139000D02*
X264414000Y-96520000D01*
X261874000Y-93599000D02*
X252984000Y-93599000D01*
X252984000Y-93599000D02*
X252984000Y-93980000D01*
X260528162Y-79901960D02*
G75*
G03*
X258064000Y-77978000I-2464162J-616040D01*
G01*
X264414000Y-76073000D02*
G75*
G03*
X261874000Y-73533000I-2540000J0D01*
G01*
X264414000Y-79502000D02*
X264414000Y-79883000D01*
X252984000Y-76962000D02*
X252984000Y-77978000D01*
X252984000Y-77978000D02*
X258064000Y-77978000D01*
X260528162Y-79883000D02*
X262255000Y-79883000D01*
X264033000Y-79883000D02*
X264414000Y-79883000D01*
X264414000Y-76073000D02*
X264414000Y-76454000D01*
X261874000Y-73533000D02*
X252984000Y-73533000D01*
X252984000Y-73533000D02*
X252984000Y-73914000D01*
X260528162Y-59835960D02*
G75*
G03*
X258064000Y-57912000I-2464162J-616040D01*
G01*
X264414000Y-56007000D02*
G75*
G03*
X261874000Y-53467000I-2540000J0D01*
G01*
X264414000Y-59436000D02*
X264414000Y-59817000D01*
X252984000Y-56896000D02*
X252984000Y-57912000D01*
X252984000Y-57912000D02*
X258064000Y-57912000D01*
X260528162Y-59817000D02*
X262255000Y-59817000D01*
X264033000Y-59817000D02*
X264414000Y-59817000D01*
X264414000Y-56007000D02*
X264414000Y-56388000D01*
X261874000Y-53467000D02*
X252984000Y-53467000D01*
X252984000Y-53467000D02*
X252984000Y-53848000D01*
D10*
X36504000Y-35632000D02*
X36504000Y-35662000D01*
X36504000Y-42092000D02*
X36504000Y-42062000D01*
X30044000Y-42092000D02*
X30044000Y-42062000D01*
X30044000Y-35662000D02*
X30044000Y-35632000D01*
X36504000Y-37562000D02*
X36504000Y-40162000D01*
X30044000Y-35632000D02*
X36504000Y-35632000D01*
X30044000Y-37562000D02*
X30044000Y-40162000D01*
X30044000Y-42092000D02*
X36504000Y-42092000D01*
X61949000Y-46000936D02*
X61949000Y-46455064D01*
X60479000Y-46000936D02*
X60479000Y-46455064D01*
X42287564Y-38073000D02*
X41833436Y-38073000D01*
X42287564Y-36603000D02*
X41833436Y-36603000D01*
X42287564Y-40105000D02*
X41833436Y-40105000D01*
X42287564Y-38635000D02*
X41833436Y-38635000D01*
X34062936Y-42699000D02*
X34517064Y-42699000D01*
X34062936Y-44169000D02*
X34517064Y-44169000D01*
X35218000Y-110894000D02*
X35218000Y-113134000D01*
X35218000Y-113134000D02*
X39458000Y-113134000D01*
X39458000Y-113134000D02*
X39458000Y-110894000D01*
X39458000Y-110894000D02*
X35218000Y-110894000D01*
X34568000Y-112014000D02*
X35218000Y-112014000D01*
X40108000Y-112014000D02*
X39458000Y-112014000D01*
X35938000Y-110894000D02*
X35938000Y-113134000D01*
X36058000Y-110894000D02*
X36058000Y-113134000D01*
X35818000Y-110894000D02*
X35818000Y-113134000D01*
X35218000Y-108100000D02*
X35218000Y-110340000D01*
X35218000Y-110340000D02*
X39458000Y-110340000D01*
X39458000Y-110340000D02*
X39458000Y-108100000D01*
X39458000Y-108100000D02*
X35218000Y-108100000D01*
X34568000Y-109220000D02*
X35218000Y-109220000D01*
X40108000Y-109220000D02*
X39458000Y-109220000D01*
X35938000Y-108100000D02*
X35938000Y-110340000D01*
X36058000Y-108100000D02*
X36058000Y-110340000D01*
X35818000Y-108100000D02*
X35818000Y-110340000D01*
X35218000Y-70762000D02*
X35218000Y-73002000D01*
X35218000Y-73002000D02*
X39458000Y-73002000D01*
X39458000Y-73002000D02*
X39458000Y-70762000D01*
X39458000Y-70762000D02*
X35218000Y-70762000D01*
X34568000Y-71882000D02*
X35218000Y-71882000D01*
X40108000Y-71882000D02*
X39458000Y-71882000D01*
X35938000Y-70762000D02*
X35938000Y-73002000D01*
X36058000Y-70762000D02*
X36058000Y-73002000D01*
X35818000Y-70762000D02*
X35818000Y-73002000D01*
X35218000Y-67968000D02*
X35218000Y-70208000D01*
X35218000Y-70208000D02*
X39458000Y-70208000D01*
X39458000Y-70208000D02*
X39458000Y-67968000D01*
X39458000Y-67968000D02*
X35218000Y-67968000D01*
X34568000Y-69088000D02*
X35218000Y-69088000D01*
X40108000Y-69088000D02*
X39458000Y-69088000D01*
X35938000Y-67968000D02*
X35938000Y-70208000D01*
X36058000Y-67968000D02*
X36058000Y-70208000D01*
X35818000Y-67968000D02*
X35818000Y-70208000D01*
X55284000Y-110894000D02*
X55284000Y-113134000D01*
X55284000Y-113134000D02*
X59524000Y-113134000D01*
X59524000Y-113134000D02*
X59524000Y-110894000D01*
X59524000Y-110894000D02*
X55284000Y-110894000D01*
X54634000Y-112014000D02*
X55284000Y-112014000D01*
X60174000Y-112014000D02*
X59524000Y-112014000D01*
X56004000Y-110894000D02*
X56004000Y-113134000D01*
X56124000Y-110894000D02*
X56124000Y-113134000D01*
X55884000Y-110894000D02*
X55884000Y-113134000D01*
X55284000Y-108100000D02*
X55284000Y-110340000D01*
X55284000Y-110340000D02*
X59524000Y-110340000D01*
X59524000Y-110340000D02*
X59524000Y-108100000D01*
X59524000Y-108100000D02*
X55284000Y-108100000D01*
X54634000Y-109220000D02*
X55284000Y-109220000D01*
X60174000Y-109220000D02*
X59524000Y-109220000D01*
X56004000Y-108100000D02*
X56004000Y-110340000D01*
X56124000Y-108100000D02*
X56124000Y-110340000D01*
X55884000Y-108100000D02*
X55884000Y-110340000D01*
X55284000Y-70762000D02*
X55284000Y-73002000D01*
X55284000Y-73002000D02*
X59524000Y-73002000D01*
X59524000Y-73002000D02*
X59524000Y-70762000D01*
X59524000Y-70762000D02*
X55284000Y-70762000D01*
X54634000Y-71882000D02*
X55284000Y-71882000D01*
X60174000Y-71882000D02*
X59524000Y-71882000D01*
X56004000Y-70762000D02*
X56004000Y-73002000D01*
X56124000Y-70762000D02*
X56124000Y-73002000D01*
X55884000Y-70762000D02*
X55884000Y-73002000D01*
X55284000Y-67968000D02*
X55284000Y-70208000D01*
X55284000Y-70208000D02*
X59524000Y-70208000D01*
X59524000Y-70208000D02*
X59524000Y-67968000D01*
X59524000Y-67968000D02*
X55284000Y-67968000D01*
X54634000Y-69088000D02*
X55284000Y-69088000D01*
X60174000Y-69088000D02*
X59524000Y-69088000D01*
X56004000Y-67968000D02*
X56004000Y-70208000D01*
X56124000Y-67968000D02*
X56124000Y-70208000D01*
X55884000Y-67968000D02*
X55884000Y-70208000D01*
X75350000Y-110894000D02*
X75350000Y-113134000D01*
X75350000Y-113134000D02*
X79590000Y-113134000D01*
X79590000Y-113134000D02*
X79590000Y-110894000D01*
X79590000Y-110894000D02*
X75350000Y-110894000D01*
X74700000Y-112014000D02*
X75350000Y-112014000D01*
X80240000Y-112014000D02*
X79590000Y-112014000D01*
X76070000Y-110894000D02*
X76070000Y-113134000D01*
X76190000Y-110894000D02*
X76190000Y-113134000D01*
X75950000Y-110894000D02*
X75950000Y-113134000D01*
X75350000Y-108100000D02*
X75350000Y-110340000D01*
X75350000Y-110340000D02*
X79590000Y-110340000D01*
X79590000Y-110340000D02*
X79590000Y-108100000D01*
X79590000Y-108100000D02*
X75350000Y-108100000D01*
X74700000Y-109220000D02*
X75350000Y-109220000D01*
X80240000Y-109220000D02*
X79590000Y-109220000D01*
X76070000Y-108100000D02*
X76070000Y-110340000D01*
X76190000Y-108100000D02*
X76190000Y-110340000D01*
X75950000Y-108100000D02*
X75950000Y-110340000D01*
X75350000Y-70762000D02*
X75350000Y-73002000D01*
X75350000Y-73002000D02*
X79590000Y-73002000D01*
X79590000Y-73002000D02*
X79590000Y-70762000D01*
X79590000Y-70762000D02*
X75350000Y-70762000D01*
X74700000Y-71882000D02*
X75350000Y-71882000D01*
X80240000Y-71882000D02*
X79590000Y-71882000D01*
X76070000Y-70762000D02*
X76070000Y-73002000D01*
X76190000Y-70762000D02*
X76190000Y-73002000D01*
X75950000Y-70762000D02*
X75950000Y-73002000D01*
X75350000Y-67968000D02*
X75350000Y-70208000D01*
X75350000Y-70208000D02*
X79590000Y-70208000D01*
X79590000Y-70208000D02*
X79590000Y-67968000D01*
X79590000Y-67968000D02*
X75350000Y-67968000D01*
X74700000Y-69088000D02*
X75350000Y-69088000D01*
X80240000Y-69088000D02*
X79590000Y-69088000D01*
X76070000Y-67968000D02*
X76070000Y-70208000D01*
X76190000Y-67968000D02*
X76190000Y-70208000D01*
X75950000Y-67968000D02*
X75950000Y-70208000D01*
X95416000Y-110894000D02*
X95416000Y-113134000D01*
X95416000Y-113134000D02*
X99656000Y-113134000D01*
X99656000Y-113134000D02*
X99656000Y-110894000D01*
X99656000Y-110894000D02*
X95416000Y-110894000D01*
X94766000Y-112014000D02*
X95416000Y-112014000D01*
X100306000Y-112014000D02*
X99656000Y-112014000D01*
X96136000Y-110894000D02*
X96136000Y-113134000D01*
X96256000Y-110894000D02*
X96256000Y-113134000D01*
X96016000Y-110894000D02*
X96016000Y-113134000D01*
X95416000Y-108100000D02*
X95416000Y-110340000D01*
X95416000Y-110340000D02*
X99656000Y-110340000D01*
X99656000Y-110340000D02*
X99656000Y-108100000D01*
X99656000Y-108100000D02*
X95416000Y-108100000D01*
X94766000Y-109220000D02*
X95416000Y-109220000D01*
X100306000Y-109220000D02*
X99656000Y-109220000D01*
X96136000Y-108100000D02*
X96136000Y-110340000D01*
X96256000Y-108100000D02*
X96256000Y-110340000D01*
X96016000Y-108100000D02*
X96016000Y-110340000D01*
X95416000Y-70762000D02*
X95416000Y-73002000D01*
X95416000Y-73002000D02*
X99656000Y-73002000D01*
X99656000Y-73002000D02*
X99656000Y-70762000D01*
X99656000Y-70762000D02*
X95416000Y-70762000D01*
X94766000Y-71882000D02*
X95416000Y-71882000D01*
X100306000Y-71882000D02*
X99656000Y-71882000D01*
X96136000Y-70762000D02*
X96136000Y-73002000D01*
X96256000Y-70762000D02*
X96256000Y-73002000D01*
X96016000Y-70762000D02*
X96016000Y-73002000D01*
X95416000Y-67968000D02*
X95416000Y-70208000D01*
X95416000Y-70208000D02*
X99656000Y-70208000D01*
X99656000Y-70208000D02*
X99656000Y-67968000D01*
X99656000Y-67968000D02*
X95416000Y-67968000D01*
X94766000Y-69088000D02*
X95416000Y-69088000D01*
X100306000Y-69088000D02*
X99656000Y-69088000D01*
X96136000Y-67968000D02*
X96136000Y-70208000D01*
X96256000Y-67968000D02*
X96256000Y-70208000D01*
X96016000Y-67968000D02*
X96016000Y-70208000D01*
X115482000Y-110894000D02*
X115482000Y-113134000D01*
X115482000Y-113134000D02*
X119722000Y-113134000D01*
X119722000Y-113134000D02*
X119722000Y-110894000D01*
X119722000Y-110894000D02*
X115482000Y-110894000D01*
X114832000Y-112014000D02*
X115482000Y-112014000D01*
X120372000Y-112014000D02*
X119722000Y-112014000D01*
X116202000Y-110894000D02*
X116202000Y-113134000D01*
X116322000Y-110894000D02*
X116322000Y-113134000D01*
X116082000Y-110894000D02*
X116082000Y-113134000D01*
X115482000Y-108100000D02*
X115482000Y-110340000D01*
X115482000Y-110340000D02*
X119722000Y-110340000D01*
X119722000Y-110340000D02*
X119722000Y-108100000D01*
X119722000Y-108100000D02*
X115482000Y-108100000D01*
X114832000Y-109220000D02*
X115482000Y-109220000D01*
X120372000Y-109220000D02*
X119722000Y-109220000D01*
X116202000Y-108100000D02*
X116202000Y-110340000D01*
X116322000Y-108100000D02*
X116322000Y-110340000D01*
X116082000Y-108100000D02*
X116082000Y-110340000D01*
X115482000Y-70762000D02*
X115482000Y-73002000D01*
X115482000Y-73002000D02*
X119722000Y-73002000D01*
X119722000Y-73002000D02*
X119722000Y-70762000D01*
X119722000Y-70762000D02*
X115482000Y-70762000D01*
X114832000Y-71882000D02*
X115482000Y-71882000D01*
X120372000Y-71882000D02*
X119722000Y-71882000D01*
X116202000Y-70762000D02*
X116202000Y-73002000D01*
X116322000Y-70762000D02*
X116322000Y-73002000D01*
X116082000Y-70762000D02*
X116082000Y-73002000D01*
X115482000Y-67968000D02*
X115482000Y-70208000D01*
X115482000Y-70208000D02*
X119722000Y-70208000D01*
X119722000Y-70208000D02*
X119722000Y-67968000D01*
X119722000Y-67968000D02*
X115482000Y-67968000D01*
X114832000Y-69088000D02*
X115482000Y-69088000D01*
X120372000Y-69088000D02*
X119722000Y-69088000D01*
X116202000Y-67968000D02*
X116202000Y-70208000D01*
X116322000Y-67968000D02*
X116322000Y-70208000D01*
X116082000Y-67968000D02*
X116082000Y-70208000D01*
X135548000Y-108100000D02*
X135548000Y-110340000D01*
X135548000Y-110340000D02*
X139788000Y-110340000D01*
X139788000Y-110340000D02*
X139788000Y-108100000D01*
X139788000Y-108100000D02*
X135548000Y-108100000D01*
X134898000Y-109220000D02*
X135548000Y-109220000D01*
X140438000Y-109220000D02*
X139788000Y-109220000D01*
X136268000Y-108100000D02*
X136268000Y-110340000D01*
X136388000Y-108100000D02*
X136388000Y-110340000D01*
X136148000Y-108100000D02*
X136148000Y-110340000D01*
X135548000Y-70762000D02*
X135548000Y-73002000D01*
X135548000Y-73002000D02*
X139788000Y-73002000D01*
X139788000Y-73002000D02*
X139788000Y-70762000D01*
X139788000Y-70762000D02*
X135548000Y-70762000D01*
X134898000Y-71882000D02*
X135548000Y-71882000D01*
X140438000Y-71882000D02*
X139788000Y-71882000D01*
X136268000Y-70762000D02*
X136268000Y-73002000D01*
X136388000Y-70762000D02*
X136388000Y-73002000D01*
X136148000Y-70762000D02*
X136148000Y-73002000D01*
X155614000Y-110894000D02*
X155614000Y-113134000D01*
X155614000Y-113134000D02*
X159854000Y-113134000D01*
X159854000Y-113134000D02*
X159854000Y-110894000D01*
X159854000Y-110894000D02*
X155614000Y-110894000D01*
X154964000Y-112014000D02*
X155614000Y-112014000D01*
X160504000Y-112014000D02*
X159854000Y-112014000D01*
X156334000Y-110894000D02*
X156334000Y-113134000D01*
X156454000Y-110894000D02*
X156454000Y-113134000D01*
X156214000Y-110894000D02*
X156214000Y-113134000D01*
X155360000Y-70762000D02*
X155360000Y-73002000D01*
X155360000Y-73002000D02*
X159600000Y-73002000D01*
X159600000Y-73002000D02*
X159600000Y-70762000D01*
X159600000Y-70762000D02*
X155360000Y-70762000D01*
X154710000Y-71882000D02*
X155360000Y-71882000D01*
X160250000Y-71882000D02*
X159600000Y-71882000D01*
X156080000Y-70762000D02*
X156080000Y-73002000D01*
X156200000Y-70762000D02*
X156200000Y-73002000D01*
X155960000Y-70762000D02*
X155960000Y-73002000D01*
X155360000Y-67968000D02*
X155360000Y-70208000D01*
X155360000Y-70208000D02*
X159600000Y-70208000D01*
X159600000Y-70208000D02*
X159600000Y-67968000D01*
X159600000Y-67968000D02*
X155360000Y-67968000D01*
X154710000Y-69088000D02*
X155360000Y-69088000D01*
X160250000Y-69088000D02*
X159600000Y-69088000D01*
X156080000Y-67968000D02*
X156080000Y-70208000D01*
X156200000Y-67968000D02*
X156200000Y-70208000D01*
X155960000Y-67968000D02*
X155960000Y-70208000D01*
X175680000Y-110894000D02*
X175680000Y-113134000D01*
X175680000Y-113134000D02*
X179920000Y-113134000D01*
X179920000Y-113134000D02*
X179920000Y-110894000D01*
X179920000Y-110894000D02*
X175680000Y-110894000D01*
X175030000Y-112014000D02*
X175680000Y-112014000D01*
X180570000Y-112014000D02*
X179920000Y-112014000D01*
X176400000Y-110894000D02*
X176400000Y-113134000D01*
X176520000Y-110894000D02*
X176520000Y-113134000D01*
X176280000Y-110894000D02*
X176280000Y-113134000D01*
X175680000Y-108100000D02*
X175680000Y-110340000D01*
X175680000Y-110340000D02*
X179920000Y-110340000D01*
X179920000Y-110340000D02*
X179920000Y-108100000D01*
X179920000Y-108100000D02*
X175680000Y-108100000D01*
X175030000Y-109220000D02*
X175680000Y-109220000D01*
X180570000Y-109220000D02*
X179920000Y-109220000D01*
X176400000Y-108100000D02*
X176400000Y-110340000D01*
X176520000Y-108100000D02*
X176520000Y-110340000D01*
X176280000Y-108100000D02*
X176280000Y-110340000D01*
X175680000Y-70762000D02*
X175680000Y-73002000D01*
X175680000Y-73002000D02*
X179920000Y-73002000D01*
X179920000Y-73002000D02*
X179920000Y-70762000D01*
X179920000Y-70762000D02*
X175680000Y-70762000D01*
X175030000Y-71882000D02*
X175680000Y-71882000D01*
X180570000Y-71882000D02*
X179920000Y-71882000D01*
X176400000Y-70762000D02*
X176400000Y-73002000D01*
X176520000Y-70762000D02*
X176520000Y-73002000D01*
X176280000Y-70762000D02*
X176280000Y-73002000D01*
X175680000Y-67968000D02*
X175680000Y-70208000D01*
X175680000Y-70208000D02*
X179920000Y-70208000D01*
X179920000Y-70208000D02*
X179920000Y-67968000D01*
X179920000Y-67968000D02*
X175680000Y-67968000D01*
X175030000Y-69088000D02*
X175680000Y-69088000D01*
X180570000Y-69088000D02*
X179920000Y-69088000D01*
X176400000Y-67968000D02*
X176400000Y-70208000D01*
X176520000Y-67968000D02*
X176520000Y-70208000D01*
X176280000Y-67968000D02*
X176280000Y-70208000D01*
X195492000Y-110894000D02*
X195492000Y-113134000D01*
X195492000Y-113134000D02*
X199732000Y-113134000D01*
X199732000Y-113134000D02*
X199732000Y-110894000D01*
X199732000Y-110894000D02*
X195492000Y-110894000D01*
X194842000Y-112014000D02*
X195492000Y-112014000D01*
X200382000Y-112014000D02*
X199732000Y-112014000D01*
X196212000Y-110894000D02*
X196212000Y-113134000D01*
X196332000Y-110894000D02*
X196332000Y-113134000D01*
X196092000Y-110894000D02*
X196092000Y-113134000D01*
X195492000Y-108100000D02*
X195492000Y-110340000D01*
X195492000Y-110340000D02*
X199732000Y-110340000D01*
X199732000Y-110340000D02*
X199732000Y-108100000D01*
X199732000Y-108100000D02*
X195492000Y-108100000D01*
X194842000Y-109220000D02*
X195492000Y-109220000D01*
X200382000Y-109220000D02*
X199732000Y-109220000D01*
X196212000Y-108100000D02*
X196212000Y-110340000D01*
X196332000Y-108100000D02*
X196332000Y-110340000D01*
X196092000Y-108100000D02*
X196092000Y-110340000D01*
X195746000Y-70762000D02*
X195746000Y-73002000D01*
X195746000Y-73002000D02*
X199986000Y-73002000D01*
X199986000Y-73002000D02*
X199986000Y-70762000D01*
X199986000Y-70762000D02*
X195746000Y-70762000D01*
X195096000Y-71882000D02*
X195746000Y-71882000D01*
X200636000Y-71882000D02*
X199986000Y-71882000D01*
X196466000Y-70762000D02*
X196466000Y-73002000D01*
X196586000Y-70762000D02*
X196586000Y-73002000D01*
X196346000Y-70762000D02*
X196346000Y-73002000D01*
X195746000Y-67968000D02*
X195746000Y-70208000D01*
X195746000Y-70208000D02*
X199986000Y-70208000D01*
X199986000Y-70208000D02*
X199986000Y-67968000D01*
X199986000Y-67968000D02*
X195746000Y-67968000D01*
X195096000Y-69088000D02*
X195746000Y-69088000D01*
X200636000Y-69088000D02*
X199986000Y-69088000D01*
X196466000Y-67968000D02*
X196466000Y-70208000D01*
X196586000Y-67968000D02*
X196586000Y-70208000D01*
X196346000Y-67968000D02*
X196346000Y-70208000D01*
X215812000Y-110894000D02*
X215812000Y-113134000D01*
X215812000Y-113134000D02*
X220052000Y-113134000D01*
X220052000Y-113134000D02*
X220052000Y-110894000D01*
X220052000Y-110894000D02*
X215812000Y-110894000D01*
X215162000Y-112014000D02*
X215812000Y-112014000D01*
X220702000Y-112014000D02*
X220052000Y-112014000D01*
X216532000Y-110894000D02*
X216532000Y-113134000D01*
X216652000Y-110894000D02*
X216652000Y-113134000D01*
X216412000Y-110894000D02*
X216412000Y-113134000D01*
X215812000Y-108100000D02*
X215812000Y-110340000D01*
X215812000Y-110340000D02*
X220052000Y-110340000D01*
X220052000Y-110340000D02*
X220052000Y-108100000D01*
X220052000Y-108100000D02*
X215812000Y-108100000D01*
X215162000Y-109220000D02*
X215812000Y-109220000D01*
X220702000Y-109220000D02*
X220052000Y-109220000D01*
X216532000Y-108100000D02*
X216532000Y-110340000D01*
X216652000Y-108100000D02*
X216652000Y-110340000D01*
X216412000Y-108100000D02*
X216412000Y-110340000D01*
X215812000Y-70762000D02*
X215812000Y-73002000D01*
X215812000Y-73002000D02*
X220052000Y-73002000D01*
X220052000Y-73002000D02*
X220052000Y-70762000D01*
X220052000Y-70762000D02*
X215812000Y-70762000D01*
X215162000Y-71882000D02*
X215812000Y-71882000D01*
X220702000Y-71882000D02*
X220052000Y-71882000D01*
X216532000Y-70762000D02*
X216532000Y-73002000D01*
X216652000Y-70762000D02*
X216652000Y-73002000D01*
X216412000Y-70762000D02*
X216412000Y-73002000D01*
X215812000Y-67968000D02*
X215812000Y-70208000D01*
X215812000Y-70208000D02*
X220052000Y-70208000D01*
X220052000Y-70208000D02*
X220052000Y-67968000D01*
X220052000Y-67968000D02*
X215812000Y-67968000D01*
X215162000Y-69088000D02*
X215812000Y-69088000D01*
X220702000Y-69088000D02*
X220052000Y-69088000D01*
X216532000Y-67968000D02*
X216532000Y-70208000D01*
X216652000Y-67968000D02*
X216652000Y-70208000D01*
X216412000Y-67968000D02*
X216412000Y-70208000D01*
X235878000Y-110894000D02*
X235878000Y-113134000D01*
X235878000Y-113134000D02*
X240118000Y-113134000D01*
X240118000Y-113134000D02*
X240118000Y-110894000D01*
X240118000Y-110894000D02*
X235878000Y-110894000D01*
X235228000Y-112014000D02*
X235878000Y-112014000D01*
X240768000Y-112014000D02*
X240118000Y-112014000D01*
X236598000Y-110894000D02*
X236598000Y-113134000D01*
X236718000Y-110894000D02*
X236718000Y-113134000D01*
X236478000Y-110894000D02*
X236478000Y-113134000D01*
X235878000Y-108100000D02*
X235878000Y-110340000D01*
X235878000Y-110340000D02*
X240118000Y-110340000D01*
X240118000Y-110340000D02*
X240118000Y-108100000D01*
X240118000Y-108100000D02*
X235878000Y-108100000D01*
X235228000Y-109220000D02*
X235878000Y-109220000D01*
X240768000Y-109220000D02*
X240118000Y-109220000D01*
X236598000Y-108100000D02*
X236598000Y-110340000D01*
X236718000Y-108100000D02*
X236718000Y-110340000D01*
X236478000Y-108100000D02*
X236478000Y-110340000D01*
X236132000Y-70762000D02*
X236132000Y-73002000D01*
X236132000Y-73002000D02*
X240372000Y-73002000D01*
X240372000Y-73002000D02*
X240372000Y-70762000D01*
X240372000Y-70762000D02*
X236132000Y-70762000D01*
X235482000Y-71882000D02*
X236132000Y-71882000D01*
X241022000Y-71882000D02*
X240372000Y-71882000D01*
X236852000Y-70762000D02*
X236852000Y-73002000D01*
X236972000Y-70762000D02*
X236972000Y-73002000D01*
X236732000Y-70762000D02*
X236732000Y-73002000D01*
X236132000Y-67968000D02*
X236132000Y-70208000D01*
X236132000Y-70208000D02*
X240372000Y-70208000D01*
X240372000Y-70208000D02*
X240372000Y-67968000D01*
X240372000Y-67968000D02*
X236132000Y-67968000D01*
X235482000Y-69088000D02*
X236132000Y-69088000D01*
X241022000Y-69088000D02*
X240372000Y-69088000D01*
X236852000Y-67968000D02*
X236852000Y-70208000D01*
X236972000Y-67968000D02*
X236972000Y-70208000D01*
X236732000Y-67968000D02*
X236732000Y-70208000D01*
X251372000Y-110894000D02*
X251372000Y-113134000D01*
X251372000Y-113134000D02*
X255612000Y-113134000D01*
X255612000Y-113134000D02*
X255612000Y-110894000D01*
X255612000Y-110894000D02*
X251372000Y-110894000D01*
X250722000Y-112014000D02*
X251372000Y-112014000D01*
X256262000Y-112014000D02*
X255612000Y-112014000D01*
X252092000Y-110894000D02*
X252092000Y-113134000D01*
X252212000Y-110894000D02*
X252212000Y-113134000D01*
X251972000Y-110894000D02*
X251972000Y-113134000D01*
X251372000Y-108100000D02*
X251372000Y-110340000D01*
X251372000Y-110340000D02*
X255612000Y-110340000D01*
X255612000Y-110340000D02*
X255612000Y-108100000D01*
X255612000Y-108100000D02*
X251372000Y-108100000D01*
X250722000Y-109220000D02*
X251372000Y-109220000D01*
X256262000Y-109220000D02*
X255612000Y-109220000D01*
X252092000Y-108100000D02*
X252092000Y-110340000D01*
X252212000Y-108100000D02*
X252212000Y-110340000D01*
X251972000Y-108100000D02*
X251972000Y-110340000D01*
X251372000Y-70762000D02*
X251372000Y-73002000D01*
X251372000Y-73002000D02*
X255612000Y-73002000D01*
X255612000Y-73002000D02*
X255612000Y-70762000D01*
X255612000Y-70762000D02*
X251372000Y-70762000D01*
X250722000Y-71882000D02*
X251372000Y-71882000D01*
X256262000Y-71882000D02*
X255612000Y-71882000D01*
X252092000Y-70762000D02*
X252092000Y-73002000D01*
X252212000Y-70762000D02*
X252212000Y-73002000D01*
X251972000Y-70762000D02*
X251972000Y-73002000D01*
X251372000Y-67968000D02*
X251372000Y-70208000D01*
X251372000Y-70208000D02*
X255612000Y-70208000D01*
X255612000Y-70208000D02*
X255612000Y-67968000D01*
X255612000Y-67968000D02*
X251372000Y-67968000D01*
X250722000Y-69088000D02*
X251372000Y-69088000D01*
X256262000Y-69088000D02*
X255612000Y-69088000D01*
X252092000Y-67968000D02*
X252092000Y-70208000D01*
X252212000Y-67968000D02*
X252212000Y-70208000D01*
X251972000Y-67968000D02*
X251972000Y-70208000D01*
X40134000Y-50913420D02*
X40134000Y-51194580D01*
X39114000Y-50913420D02*
X39114000Y-51194580D01*
X49024000Y-52958420D02*
X49024000Y-53239580D01*
X48004000Y-52958420D02*
X48004000Y-53239580D01*
X30112580Y-51310000D02*
X29831420Y-51310000D01*
X30112580Y-50290000D02*
X29831420Y-50290000D01*
X30112580Y-49532000D02*
X29831420Y-49532000D01*
X30112580Y-48512000D02*
X29831420Y-48512000D01*
X60450000Y-37478580D02*
X60450000Y-37197420D01*
X61470000Y-37478580D02*
X61470000Y-37197420D01*
D11*
X156519714Y-107552380D02*
X156519714Y-106552380D01*
X156757809Y-106552380D01*
X156900666Y-106600000D01*
X156995904Y-106695238D01*
X157043523Y-106790476D01*
X157091142Y-106980952D01*
X157091142Y-107123809D01*
X157043523Y-107314285D01*
X156995904Y-107409523D01*
X156900666Y-107504761D01*
X156757809Y-107552380D01*
X156519714Y-107552380D01*
X157472095Y-106647619D02*
X157519714Y-106600000D01*
X157614952Y-106552380D01*
X157853047Y-106552380D01*
X157948285Y-106600000D01*
X157995904Y-106647619D01*
X158043523Y-106742857D01*
X158043523Y-106838095D01*
X157995904Y-106980952D01*
X157424476Y-107552380D01*
X158043523Y-107552380D01*
X158519714Y-107552380D02*
X158710190Y-107552380D01*
X158805428Y-107504761D01*
X158853047Y-107457142D01*
X158948285Y-107314285D01*
X158995904Y-107123809D01*
X158995904Y-106742857D01*
X158948285Y-106647619D01*
X158900666Y-106600000D01*
X158805428Y-106552380D01*
X158614952Y-106552380D01*
X158519714Y-106600000D01*
X158472095Y-106647619D01*
X158424476Y-106742857D01*
X158424476Y-106980952D01*
X158472095Y-107076190D01*
X158519714Y-107123809D01*
X158614952Y-107171428D01*
X158805428Y-107171428D01*
X158900666Y-107123809D01*
X158948285Y-107076190D01*
X158995904Y-106980952D01*
X153662095Y-107872380D02*
X153662095Y-106872380D01*
X154233523Y-107872380D02*
X153804952Y-107300952D01*
X154233523Y-106872380D02*
X153662095Y-107443809D01*
X136453714Y-67420380D02*
X136453714Y-66420380D01*
X136691809Y-66420380D01*
X136834666Y-66468000D01*
X136929904Y-66563238D01*
X136977523Y-66658476D01*
X137025142Y-66848952D01*
X137025142Y-66991809D01*
X136977523Y-67182285D01*
X136929904Y-67277523D01*
X136834666Y-67372761D01*
X136691809Y-67420380D01*
X136453714Y-67420380D01*
X137358476Y-66420380D02*
X137977523Y-66420380D01*
X137644190Y-66801333D01*
X137787047Y-66801333D01*
X137882285Y-66848952D01*
X137929904Y-66896571D01*
X137977523Y-66991809D01*
X137977523Y-67229904D01*
X137929904Y-67325142D01*
X137882285Y-67372761D01*
X137787047Y-67420380D01*
X137501333Y-67420380D01*
X137406095Y-67372761D01*
X137358476Y-67325142D01*
X138358476Y-66515619D02*
X138406095Y-66468000D01*
X138501333Y-66420380D01*
X138739428Y-66420380D01*
X138834666Y-66468000D01*
X138882285Y-66515619D01*
X138929904Y-66610857D01*
X138929904Y-66706095D01*
X138882285Y-66848952D01*
X138310857Y-67420380D01*
X138929904Y-67420380D01*
X133596095Y-67740380D02*
X133596095Y-66740380D01*
X134167523Y-67740380D02*
X133738952Y-67168952D01*
X134167523Y-66740380D02*
X133596095Y-67311809D01*
X41677574Y-52917600D02*
X41340856Y-53254318D01*
X41812261Y-52311509D02*
X41677574Y-52917600D01*
X42283665Y-52782913D01*
X42182650Y-54096111D02*
X41778589Y-53692050D01*
X41980620Y-53894081D02*
X42687726Y-53186974D01*
X42519368Y-53220646D01*
X42384681Y-53220646D01*
X42283665Y-53186974D01*
X60242380Y-44195904D02*
X61051904Y-44195904D01*
X61147142Y-44148285D01*
X61194761Y-44100666D01*
X61242380Y-44005428D01*
X61242380Y-43814952D01*
X61194761Y-43719714D01*
X61147142Y-43672095D01*
X61051904Y-43624476D01*
X60242380Y-43624476D01*
X61242380Y-42624476D02*
X61242380Y-43195904D01*
X61242380Y-42910190D02*
X60242380Y-42910190D01*
X60385238Y-43005428D01*
X60480476Y-43100666D01*
X60528095Y-43195904D01*
X35528476Y-112799761D02*
X35671333Y-112847380D01*
X35909428Y-112847380D01*
X36004666Y-112799761D01*
X36052285Y-112752142D01*
X36099904Y-112656904D01*
X36099904Y-112561666D01*
X36052285Y-112466428D01*
X36004666Y-112418809D01*
X35909428Y-112371190D01*
X35718952Y-112323571D01*
X35623714Y-112275952D01*
X35576095Y-112228333D01*
X35528476Y-112133095D01*
X35528476Y-112037857D01*
X35576095Y-111942619D01*
X35623714Y-111895000D01*
X35718952Y-111847380D01*
X35957047Y-111847380D01*
X36099904Y-111895000D01*
X36433238Y-111847380D02*
X36671333Y-112847380D01*
X36861809Y-112133095D01*
X37052285Y-112847380D01*
X37290380Y-111847380D01*
X38099904Y-111847380D02*
X37909428Y-111847380D01*
X37814190Y-111895000D01*
X37766571Y-111942619D01*
X37671333Y-112085476D01*
X37623714Y-112275952D01*
X37623714Y-112656904D01*
X37671333Y-112752142D01*
X37718952Y-112799761D01*
X37814190Y-112847380D01*
X38004666Y-112847380D01*
X38099904Y-112799761D01*
X38147523Y-112752142D01*
X38195142Y-112656904D01*
X38195142Y-112418809D01*
X38147523Y-112323571D01*
X38099904Y-112275952D01*
X38004666Y-112228333D01*
X37814190Y-112228333D01*
X37718952Y-112275952D01*
X37671333Y-112323571D01*
X37623714Y-112418809D01*
X38814190Y-111847380D02*
X38909428Y-111847380D01*
X39004666Y-111895000D01*
X39052285Y-111942619D01*
X39099904Y-112037857D01*
X39147523Y-112228333D01*
X39147523Y-112466428D01*
X39099904Y-112656904D01*
X39052285Y-112752142D01*
X39004666Y-112799761D01*
X38909428Y-112847380D01*
X38814190Y-112847380D01*
X38718952Y-112799761D01*
X38671333Y-112752142D01*
X38623714Y-112656904D01*
X38576095Y-112466428D01*
X38576095Y-112228333D01*
X38623714Y-112037857D01*
X38671333Y-111942619D01*
X38718952Y-111895000D01*
X38814190Y-111847380D01*
X35528476Y-92733761D02*
X35671333Y-92781380D01*
X35909428Y-92781380D01*
X36004666Y-92733761D01*
X36052285Y-92686142D01*
X36099904Y-92590904D01*
X36099904Y-92495666D01*
X36052285Y-92400428D01*
X36004666Y-92352809D01*
X35909428Y-92305190D01*
X35718952Y-92257571D01*
X35623714Y-92209952D01*
X35576095Y-92162333D01*
X35528476Y-92067095D01*
X35528476Y-91971857D01*
X35576095Y-91876619D01*
X35623714Y-91829000D01*
X35718952Y-91781380D01*
X35957047Y-91781380D01*
X36099904Y-91829000D01*
X36433238Y-91781380D02*
X36671333Y-92781380D01*
X36861809Y-92067095D01*
X37052285Y-92781380D01*
X37290380Y-91781380D01*
X38147523Y-91781380D02*
X37671333Y-91781380D01*
X37623714Y-92257571D01*
X37671333Y-92209952D01*
X37766571Y-92162333D01*
X38004666Y-92162333D01*
X38099904Y-92209952D01*
X38147523Y-92257571D01*
X38195142Y-92352809D01*
X38195142Y-92590904D01*
X38147523Y-92686142D01*
X38099904Y-92733761D01*
X38004666Y-92781380D01*
X37766571Y-92781380D01*
X37671333Y-92733761D01*
X37623714Y-92686142D01*
X38671333Y-92781380D02*
X38861809Y-92781380D01*
X38957047Y-92733761D01*
X39004666Y-92686142D01*
X39099904Y-92543285D01*
X39147523Y-92352809D01*
X39147523Y-91971857D01*
X39099904Y-91876619D01*
X39052285Y-91829000D01*
X38957047Y-91781380D01*
X38766571Y-91781380D01*
X38671333Y-91829000D01*
X38623714Y-91876619D01*
X38576095Y-91971857D01*
X38576095Y-92209952D01*
X38623714Y-92305190D01*
X38671333Y-92352809D01*
X38766571Y-92400428D01*
X38957047Y-92400428D01*
X39052285Y-92352809D01*
X39099904Y-92305190D01*
X39147523Y-92209952D01*
X35528476Y-72667761D02*
X35671333Y-72715380D01*
X35909428Y-72715380D01*
X36004666Y-72667761D01*
X36052285Y-72620142D01*
X36099904Y-72524904D01*
X36099904Y-72429666D01*
X36052285Y-72334428D01*
X36004666Y-72286809D01*
X35909428Y-72239190D01*
X35718952Y-72191571D01*
X35623714Y-72143952D01*
X35576095Y-72096333D01*
X35528476Y-72001095D01*
X35528476Y-71905857D01*
X35576095Y-71810619D01*
X35623714Y-71763000D01*
X35718952Y-71715380D01*
X35957047Y-71715380D01*
X36099904Y-71763000D01*
X36433238Y-71715380D02*
X36671333Y-72715380D01*
X36861809Y-72001095D01*
X37052285Y-72715380D01*
X37290380Y-71715380D01*
X38147523Y-71715380D02*
X37671333Y-71715380D01*
X37623714Y-72191571D01*
X37671333Y-72143952D01*
X37766571Y-72096333D01*
X38004666Y-72096333D01*
X38099904Y-72143952D01*
X38147523Y-72191571D01*
X38195142Y-72286809D01*
X38195142Y-72524904D01*
X38147523Y-72620142D01*
X38099904Y-72667761D01*
X38004666Y-72715380D01*
X37766571Y-72715380D01*
X37671333Y-72667761D01*
X37623714Y-72620142D01*
X38766571Y-72143952D02*
X38671333Y-72096333D01*
X38623714Y-72048714D01*
X38576095Y-71953476D01*
X38576095Y-71905857D01*
X38623714Y-71810619D01*
X38671333Y-71763000D01*
X38766571Y-71715380D01*
X38957047Y-71715380D01*
X39052285Y-71763000D01*
X39099904Y-71810619D01*
X39147523Y-71905857D01*
X39147523Y-71953476D01*
X39099904Y-72048714D01*
X39052285Y-72096333D01*
X38957047Y-72143952D01*
X38766571Y-72143952D01*
X38671333Y-72191571D01*
X38623714Y-72239190D01*
X38576095Y-72334428D01*
X38576095Y-72524904D01*
X38623714Y-72620142D01*
X38671333Y-72667761D01*
X38766571Y-72715380D01*
X38957047Y-72715380D01*
X39052285Y-72667761D01*
X39099904Y-72620142D01*
X39147523Y-72524904D01*
X39147523Y-72334428D01*
X39099904Y-72239190D01*
X39052285Y-72191571D01*
X38957047Y-72143952D01*
X35528476Y-52601761D02*
X35671333Y-52649380D01*
X35909428Y-52649380D01*
X36004666Y-52601761D01*
X36052285Y-52554142D01*
X36099904Y-52458904D01*
X36099904Y-52363666D01*
X36052285Y-52268428D01*
X36004666Y-52220809D01*
X35909428Y-52173190D01*
X35718952Y-52125571D01*
X35623714Y-52077952D01*
X35576095Y-52030333D01*
X35528476Y-51935095D01*
X35528476Y-51839857D01*
X35576095Y-51744619D01*
X35623714Y-51697000D01*
X35718952Y-51649380D01*
X35957047Y-51649380D01*
X36099904Y-51697000D01*
X36433238Y-51649380D02*
X36671333Y-52649380D01*
X36861809Y-51935095D01*
X37052285Y-52649380D01*
X37290380Y-51649380D01*
X38147523Y-51649380D02*
X37671333Y-51649380D01*
X37623714Y-52125571D01*
X37671333Y-52077952D01*
X37766571Y-52030333D01*
X38004666Y-52030333D01*
X38099904Y-52077952D01*
X38147523Y-52125571D01*
X38195142Y-52220809D01*
X38195142Y-52458904D01*
X38147523Y-52554142D01*
X38099904Y-52601761D01*
X38004666Y-52649380D01*
X37766571Y-52649380D01*
X37671333Y-52601761D01*
X37623714Y-52554142D01*
X38528476Y-51649380D02*
X39195142Y-51649380D01*
X38766571Y-52649380D01*
X55594476Y-112799761D02*
X55737333Y-112847380D01*
X55975428Y-112847380D01*
X56070666Y-112799761D01*
X56118285Y-112752142D01*
X56165904Y-112656904D01*
X56165904Y-112561666D01*
X56118285Y-112466428D01*
X56070666Y-112418809D01*
X55975428Y-112371190D01*
X55784952Y-112323571D01*
X55689714Y-112275952D01*
X55642095Y-112228333D01*
X55594476Y-112133095D01*
X55594476Y-112037857D01*
X55642095Y-111942619D01*
X55689714Y-111895000D01*
X55784952Y-111847380D01*
X56023047Y-111847380D01*
X56165904Y-111895000D01*
X56499238Y-111847380D02*
X56737333Y-112847380D01*
X56927809Y-112133095D01*
X57118285Y-112847380D01*
X57356380Y-111847380D01*
X58213523Y-111847380D02*
X57737333Y-111847380D01*
X57689714Y-112323571D01*
X57737333Y-112275952D01*
X57832571Y-112228333D01*
X58070666Y-112228333D01*
X58165904Y-112275952D01*
X58213523Y-112323571D01*
X58261142Y-112418809D01*
X58261142Y-112656904D01*
X58213523Y-112752142D01*
X58165904Y-112799761D01*
X58070666Y-112847380D01*
X57832571Y-112847380D01*
X57737333Y-112799761D01*
X57689714Y-112752142D01*
X59165904Y-111847380D02*
X58689714Y-111847380D01*
X58642095Y-112323571D01*
X58689714Y-112275952D01*
X58784952Y-112228333D01*
X59023047Y-112228333D01*
X59118285Y-112275952D01*
X59165904Y-112323571D01*
X59213523Y-112418809D01*
X59213523Y-112656904D01*
X59165904Y-112752142D01*
X59118285Y-112799761D01*
X59023047Y-112847380D01*
X58784952Y-112847380D01*
X58689714Y-112799761D01*
X58642095Y-112752142D01*
X55594476Y-92733761D02*
X55737333Y-92781380D01*
X55975428Y-92781380D01*
X56070666Y-92733761D01*
X56118285Y-92686142D01*
X56165904Y-92590904D01*
X56165904Y-92495666D01*
X56118285Y-92400428D01*
X56070666Y-92352809D01*
X55975428Y-92305190D01*
X55784952Y-92257571D01*
X55689714Y-92209952D01*
X55642095Y-92162333D01*
X55594476Y-92067095D01*
X55594476Y-91971857D01*
X55642095Y-91876619D01*
X55689714Y-91829000D01*
X55784952Y-91781380D01*
X56023047Y-91781380D01*
X56165904Y-91829000D01*
X56499238Y-91781380D02*
X56737333Y-92781380D01*
X56927809Y-92067095D01*
X57118285Y-92781380D01*
X57356380Y-91781380D01*
X58213523Y-91781380D02*
X57737333Y-91781380D01*
X57689714Y-92257571D01*
X57737333Y-92209952D01*
X57832571Y-92162333D01*
X58070666Y-92162333D01*
X58165904Y-92209952D01*
X58213523Y-92257571D01*
X58261142Y-92352809D01*
X58261142Y-92590904D01*
X58213523Y-92686142D01*
X58165904Y-92733761D01*
X58070666Y-92781380D01*
X57832571Y-92781380D01*
X57737333Y-92733761D01*
X57689714Y-92686142D01*
X59118285Y-92114714D02*
X59118285Y-92781380D01*
X58880190Y-91733761D02*
X58642095Y-92448047D01*
X59261142Y-92448047D01*
X55594476Y-72667761D02*
X55737333Y-72715380D01*
X55975428Y-72715380D01*
X56070666Y-72667761D01*
X56118285Y-72620142D01*
X56165904Y-72524904D01*
X56165904Y-72429666D01*
X56118285Y-72334428D01*
X56070666Y-72286809D01*
X55975428Y-72239190D01*
X55784952Y-72191571D01*
X55689714Y-72143952D01*
X55642095Y-72096333D01*
X55594476Y-72001095D01*
X55594476Y-71905857D01*
X55642095Y-71810619D01*
X55689714Y-71763000D01*
X55784952Y-71715380D01*
X56023047Y-71715380D01*
X56165904Y-71763000D01*
X56499238Y-71715380D02*
X56737333Y-72715380D01*
X56927809Y-72001095D01*
X57118285Y-72715380D01*
X57356380Y-71715380D01*
X58213523Y-71715380D02*
X57737333Y-71715380D01*
X57689714Y-72191571D01*
X57737333Y-72143952D01*
X57832571Y-72096333D01*
X58070666Y-72096333D01*
X58165904Y-72143952D01*
X58213523Y-72191571D01*
X58261142Y-72286809D01*
X58261142Y-72524904D01*
X58213523Y-72620142D01*
X58165904Y-72667761D01*
X58070666Y-72715380D01*
X57832571Y-72715380D01*
X57737333Y-72667761D01*
X57689714Y-72620142D01*
X58594476Y-71715380D02*
X59213523Y-71715380D01*
X58880190Y-72096333D01*
X59023047Y-72096333D01*
X59118285Y-72143952D01*
X59165904Y-72191571D01*
X59213523Y-72286809D01*
X59213523Y-72524904D01*
X59165904Y-72620142D01*
X59118285Y-72667761D01*
X59023047Y-72715380D01*
X58737333Y-72715380D01*
X58642095Y-72667761D01*
X58594476Y-72620142D01*
X55594476Y-52601761D02*
X55737333Y-52649380D01*
X55975428Y-52649380D01*
X56070666Y-52601761D01*
X56118285Y-52554142D01*
X56165904Y-52458904D01*
X56165904Y-52363666D01*
X56118285Y-52268428D01*
X56070666Y-52220809D01*
X55975428Y-52173190D01*
X55784952Y-52125571D01*
X55689714Y-52077952D01*
X55642095Y-52030333D01*
X55594476Y-51935095D01*
X55594476Y-51839857D01*
X55642095Y-51744619D01*
X55689714Y-51697000D01*
X55784952Y-51649380D01*
X56023047Y-51649380D01*
X56165904Y-51697000D01*
X56499238Y-51649380D02*
X56737333Y-52649380D01*
X56927809Y-51935095D01*
X57118285Y-52649380D01*
X57356380Y-51649380D01*
X58213523Y-51649380D02*
X57737333Y-51649380D01*
X57689714Y-52125571D01*
X57737333Y-52077952D01*
X57832571Y-52030333D01*
X58070666Y-52030333D01*
X58165904Y-52077952D01*
X58213523Y-52125571D01*
X58261142Y-52220809D01*
X58261142Y-52458904D01*
X58213523Y-52554142D01*
X58165904Y-52601761D01*
X58070666Y-52649380D01*
X57832571Y-52649380D01*
X57737333Y-52601761D01*
X57689714Y-52554142D01*
X58642095Y-51744619D02*
X58689714Y-51697000D01*
X58784952Y-51649380D01*
X59023047Y-51649380D01*
X59118285Y-51697000D01*
X59165904Y-51744619D01*
X59213523Y-51839857D01*
X59213523Y-51935095D01*
X59165904Y-52077952D01*
X58594476Y-52649380D01*
X59213523Y-52649380D01*
X75660476Y-112799761D02*
X75803333Y-112847380D01*
X76041428Y-112847380D01*
X76136666Y-112799761D01*
X76184285Y-112752142D01*
X76231904Y-112656904D01*
X76231904Y-112561666D01*
X76184285Y-112466428D01*
X76136666Y-112418809D01*
X76041428Y-112371190D01*
X75850952Y-112323571D01*
X75755714Y-112275952D01*
X75708095Y-112228333D01*
X75660476Y-112133095D01*
X75660476Y-112037857D01*
X75708095Y-111942619D01*
X75755714Y-111895000D01*
X75850952Y-111847380D01*
X76089047Y-111847380D01*
X76231904Y-111895000D01*
X76565238Y-111847380D02*
X76803333Y-112847380D01*
X76993809Y-112133095D01*
X77184285Y-112847380D01*
X77422380Y-111847380D01*
X78279523Y-111847380D02*
X77803333Y-111847380D01*
X77755714Y-112323571D01*
X77803333Y-112275952D01*
X77898571Y-112228333D01*
X78136666Y-112228333D01*
X78231904Y-112275952D01*
X78279523Y-112323571D01*
X78327142Y-112418809D01*
X78327142Y-112656904D01*
X78279523Y-112752142D01*
X78231904Y-112799761D01*
X78136666Y-112847380D01*
X77898571Y-112847380D01*
X77803333Y-112799761D01*
X77755714Y-112752142D01*
X78946190Y-111847380D02*
X79041428Y-111847380D01*
X79136666Y-111895000D01*
X79184285Y-111942619D01*
X79231904Y-112037857D01*
X79279523Y-112228333D01*
X79279523Y-112466428D01*
X79231904Y-112656904D01*
X79184285Y-112752142D01*
X79136666Y-112799761D01*
X79041428Y-112847380D01*
X78946190Y-112847380D01*
X78850952Y-112799761D01*
X78803333Y-112752142D01*
X78755714Y-112656904D01*
X78708095Y-112466428D01*
X78708095Y-112228333D01*
X78755714Y-112037857D01*
X78803333Y-111942619D01*
X78850952Y-111895000D01*
X78946190Y-111847380D01*
X75660476Y-92733761D02*
X75803333Y-92781380D01*
X76041428Y-92781380D01*
X76136666Y-92733761D01*
X76184285Y-92686142D01*
X76231904Y-92590904D01*
X76231904Y-92495666D01*
X76184285Y-92400428D01*
X76136666Y-92352809D01*
X76041428Y-92305190D01*
X75850952Y-92257571D01*
X75755714Y-92209952D01*
X75708095Y-92162333D01*
X75660476Y-92067095D01*
X75660476Y-91971857D01*
X75708095Y-91876619D01*
X75755714Y-91829000D01*
X75850952Y-91781380D01*
X76089047Y-91781380D01*
X76231904Y-91829000D01*
X76565238Y-91781380D02*
X76803333Y-92781380D01*
X76993809Y-92067095D01*
X77184285Y-92781380D01*
X77422380Y-91781380D01*
X78231904Y-92114714D02*
X78231904Y-92781380D01*
X77993809Y-91733761D02*
X77755714Y-92448047D01*
X78374761Y-92448047D01*
X78803333Y-92781380D02*
X78993809Y-92781380D01*
X79089047Y-92733761D01*
X79136666Y-92686142D01*
X79231904Y-92543285D01*
X79279523Y-92352809D01*
X79279523Y-91971857D01*
X79231904Y-91876619D01*
X79184285Y-91829000D01*
X79089047Y-91781380D01*
X78898571Y-91781380D01*
X78803333Y-91829000D01*
X78755714Y-91876619D01*
X78708095Y-91971857D01*
X78708095Y-92209952D01*
X78755714Y-92305190D01*
X78803333Y-92352809D01*
X78898571Y-92400428D01*
X79089047Y-92400428D01*
X79184285Y-92352809D01*
X79231904Y-92305190D01*
X79279523Y-92209952D01*
X75660476Y-72667761D02*
X75803333Y-72715380D01*
X76041428Y-72715380D01*
X76136666Y-72667761D01*
X76184285Y-72620142D01*
X76231904Y-72524904D01*
X76231904Y-72429666D01*
X76184285Y-72334428D01*
X76136666Y-72286809D01*
X76041428Y-72239190D01*
X75850952Y-72191571D01*
X75755714Y-72143952D01*
X75708095Y-72096333D01*
X75660476Y-72001095D01*
X75660476Y-71905857D01*
X75708095Y-71810619D01*
X75755714Y-71763000D01*
X75850952Y-71715380D01*
X76089047Y-71715380D01*
X76231904Y-71763000D01*
X76565238Y-71715380D02*
X76803333Y-72715380D01*
X76993809Y-72001095D01*
X77184285Y-72715380D01*
X77422380Y-71715380D01*
X78231904Y-72048714D02*
X78231904Y-72715380D01*
X77993809Y-71667761D02*
X77755714Y-72382047D01*
X78374761Y-72382047D01*
X78898571Y-72143952D02*
X78803333Y-72096333D01*
X78755714Y-72048714D01*
X78708095Y-71953476D01*
X78708095Y-71905857D01*
X78755714Y-71810619D01*
X78803333Y-71763000D01*
X78898571Y-71715380D01*
X79089047Y-71715380D01*
X79184285Y-71763000D01*
X79231904Y-71810619D01*
X79279523Y-71905857D01*
X79279523Y-71953476D01*
X79231904Y-72048714D01*
X79184285Y-72096333D01*
X79089047Y-72143952D01*
X78898571Y-72143952D01*
X78803333Y-72191571D01*
X78755714Y-72239190D01*
X78708095Y-72334428D01*
X78708095Y-72524904D01*
X78755714Y-72620142D01*
X78803333Y-72667761D01*
X78898571Y-72715380D01*
X79089047Y-72715380D01*
X79184285Y-72667761D01*
X79231904Y-72620142D01*
X79279523Y-72524904D01*
X79279523Y-72334428D01*
X79231904Y-72239190D01*
X79184285Y-72191571D01*
X79089047Y-72143952D01*
X75660476Y-52601761D02*
X75803333Y-52649380D01*
X76041428Y-52649380D01*
X76136666Y-52601761D01*
X76184285Y-52554142D01*
X76231904Y-52458904D01*
X76231904Y-52363666D01*
X76184285Y-52268428D01*
X76136666Y-52220809D01*
X76041428Y-52173190D01*
X75850952Y-52125571D01*
X75755714Y-52077952D01*
X75708095Y-52030333D01*
X75660476Y-51935095D01*
X75660476Y-51839857D01*
X75708095Y-51744619D01*
X75755714Y-51697000D01*
X75850952Y-51649380D01*
X76089047Y-51649380D01*
X76231904Y-51697000D01*
X76565238Y-51649380D02*
X76803333Y-52649380D01*
X76993809Y-51935095D01*
X77184285Y-52649380D01*
X77422380Y-51649380D01*
X78231904Y-51982714D02*
X78231904Y-52649380D01*
X77993809Y-51601761D02*
X77755714Y-52316047D01*
X78374761Y-52316047D01*
X78660476Y-51649380D02*
X79327142Y-51649380D01*
X78898571Y-52649380D01*
X95726476Y-112799761D02*
X95869333Y-112847380D01*
X96107428Y-112847380D01*
X96202666Y-112799761D01*
X96250285Y-112752142D01*
X96297904Y-112656904D01*
X96297904Y-112561666D01*
X96250285Y-112466428D01*
X96202666Y-112418809D01*
X96107428Y-112371190D01*
X95916952Y-112323571D01*
X95821714Y-112275952D01*
X95774095Y-112228333D01*
X95726476Y-112133095D01*
X95726476Y-112037857D01*
X95774095Y-111942619D01*
X95821714Y-111895000D01*
X95916952Y-111847380D01*
X96155047Y-111847380D01*
X96297904Y-111895000D01*
X96631238Y-111847380D02*
X96869333Y-112847380D01*
X97059809Y-112133095D01*
X97250285Y-112847380D01*
X97488380Y-111847380D01*
X98297904Y-112180714D02*
X98297904Y-112847380D01*
X98059809Y-111799761D02*
X97821714Y-112514047D01*
X98440761Y-112514047D01*
X99297904Y-111847380D02*
X98821714Y-111847380D01*
X98774095Y-112323571D01*
X98821714Y-112275952D01*
X98916952Y-112228333D01*
X99155047Y-112228333D01*
X99250285Y-112275952D01*
X99297904Y-112323571D01*
X99345523Y-112418809D01*
X99345523Y-112656904D01*
X99297904Y-112752142D01*
X99250285Y-112799761D01*
X99155047Y-112847380D01*
X98916952Y-112847380D01*
X98821714Y-112799761D01*
X98774095Y-112752142D01*
X95726476Y-92733761D02*
X95869333Y-92781380D01*
X96107428Y-92781380D01*
X96202666Y-92733761D01*
X96250285Y-92686142D01*
X96297904Y-92590904D01*
X96297904Y-92495666D01*
X96250285Y-92400428D01*
X96202666Y-92352809D01*
X96107428Y-92305190D01*
X95916952Y-92257571D01*
X95821714Y-92209952D01*
X95774095Y-92162333D01*
X95726476Y-92067095D01*
X95726476Y-91971857D01*
X95774095Y-91876619D01*
X95821714Y-91829000D01*
X95916952Y-91781380D01*
X96155047Y-91781380D01*
X96297904Y-91829000D01*
X96631238Y-91781380D02*
X96869333Y-92781380D01*
X97059809Y-92067095D01*
X97250285Y-92781380D01*
X97488380Y-91781380D01*
X98297904Y-92114714D02*
X98297904Y-92781380D01*
X98059809Y-91733761D02*
X97821714Y-92448047D01*
X98440761Y-92448047D01*
X99250285Y-92114714D02*
X99250285Y-92781380D01*
X99012190Y-91733761D02*
X98774095Y-92448047D01*
X99393142Y-92448047D01*
X95726476Y-72667761D02*
X95869333Y-72715380D01*
X96107428Y-72715380D01*
X96202666Y-72667761D01*
X96250285Y-72620142D01*
X96297904Y-72524904D01*
X96297904Y-72429666D01*
X96250285Y-72334428D01*
X96202666Y-72286809D01*
X96107428Y-72239190D01*
X95916952Y-72191571D01*
X95821714Y-72143952D01*
X95774095Y-72096333D01*
X95726476Y-72001095D01*
X95726476Y-71905857D01*
X95774095Y-71810619D01*
X95821714Y-71763000D01*
X95916952Y-71715380D01*
X96155047Y-71715380D01*
X96297904Y-71763000D01*
X96631238Y-71715380D02*
X96869333Y-72715380D01*
X97059809Y-72001095D01*
X97250285Y-72715380D01*
X97488380Y-71715380D01*
X98297904Y-72048714D02*
X98297904Y-72715380D01*
X98059809Y-71667761D02*
X97821714Y-72382047D01*
X98440761Y-72382047D01*
X98726476Y-71715380D02*
X99345523Y-71715380D01*
X99012190Y-72096333D01*
X99155047Y-72096333D01*
X99250285Y-72143952D01*
X99297904Y-72191571D01*
X99345523Y-72286809D01*
X99345523Y-72524904D01*
X99297904Y-72620142D01*
X99250285Y-72667761D01*
X99155047Y-72715380D01*
X98869333Y-72715380D01*
X98774095Y-72667761D01*
X98726476Y-72620142D01*
X95726476Y-52601761D02*
X95869333Y-52649380D01*
X96107428Y-52649380D01*
X96202666Y-52601761D01*
X96250285Y-52554142D01*
X96297904Y-52458904D01*
X96297904Y-52363666D01*
X96250285Y-52268428D01*
X96202666Y-52220809D01*
X96107428Y-52173190D01*
X95916952Y-52125571D01*
X95821714Y-52077952D01*
X95774095Y-52030333D01*
X95726476Y-51935095D01*
X95726476Y-51839857D01*
X95774095Y-51744619D01*
X95821714Y-51697000D01*
X95916952Y-51649380D01*
X96155047Y-51649380D01*
X96297904Y-51697000D01*
X96631238Y-51649380D02*
X96869333Y-52649380D01*
X97059809Y-51935095D01*
X97250285Y-52649380D01*
X97488380Y-51649380D01*
X98297904Y-51982714D02*
X98297904Y-52649380D01*
X98059809Y-51601761D02*
X97821714Y-52316047D01*
X98440761Y-52316047D01*
X98774095Y-51744619D02*
X98821714Y-51697000D01*
X98916952Y-51649380D01*
X99155047Y-51649380D01*
X99250285Y-51697000D01*
X99297904Y-51744619D01*
X99345523Y-51839857D01*
X99345523Y-51935095D01*
X99297904Y-52077952D01*
X98726476Y-52649380D01*
X99345523Y-52649380D01*
X115792476Y-112799761D02*
X115935333Y-112847380D01*
X116173428Y-112847380D01*
X116268666Y-112799761D01*
X116316285Y-112752142D01*
X116363904Y-112656904D01*
X116363904Y-112561666D01*
X116316285Y-112466428D01*
X116268666Y-112418809D01*
X116173428Y-112371190D01*
X115982952Y-112323571D01*
X115887714Y-112275952D01*
X115840095Y-112228333D01*
X115792476Y-112133095D01*
X115792476Y-112037857D01*
X115840095Y-111942619D01*
X115887714Y-111895000D01*
X115982952Y-111847380D01*
X116221047Y-111847380D01*
X116363904Y-111895000D01*
X116697238Y-111847380D02*
X116935333Y-112847380D01*
X117125809Y-112133095D01*
X117316285Y-112847380D01*
X117554380Y-111847380D01*
X118363904Y-112180714D02*
X118363904Y-112847380D01*
X118125809Y-111799761D02*
X117887714Y-112514047D01*
X118506761Y-112514047D01*
X119078190Y-111847380D02*
X119173428Y-111847380D01*
X119268666Y-111895000D01*
X119316285Y-111942619D01*
X119363904Y-112037857D01*
X119411523Y-112228333D01*
X119411523Y-112466428D01*
X119363904Y-112656904D01*
X119316285Y-112752142D01*
X119268666Y-112799761D01*
X119173428Y-112847380D01*
X119078190Y-112847380D01*
X118982952Y-112799761D01*
X118935333Y-112752142D01*
X118887714Y-112656904D01*
X118840095Y-112466428D01*
X118840095Y-112228333D01*
X118887714Y-112037857D01*
X118935333Y-111942619D01*
X118982952Y-111895000D01*
X119078190Y-111847380D01*
X115792476Y-92733761D02*
X115935333Y-92781380D01*
X116173428Y-92781380D01*
X116268666Y-92733761D01*
X116316285Y-92686142D01*
X116363904Y-92590904D01*
X116363904Y-92495666D01*
X116316285Y-92400428D01*
X116268666Y-92352809D01*
X116173428Y-92305190D01*
X115982952Y-92257571D01*
X115887714Y-92209952D01*
X115840095Y-92162333D01*
X115792476Y-92067095D01*
X115792476Y-91971857D01*
X115840095Y-91876619D01*
X115887714Y-91829000D01*
X115982952Y-91781380D01*
X116221047Y-91781380D01*
X116363904Y-91829000D01*
X116697238Y-91781380D02*
X116935333Y-92781380D01*
X117125809Y-92067095D01*
X117316285Y-92781380D01*
X117554380Y-91781380D01*
X117840095Y-91781380D02*
X118459142Y-91781380D01*
X118125809Y-92162333D01*
X118268666Y-92162333D01*
X118363904Y-92209952D01*
X118411523Y-92257571D01*
X118459142Y-92352809D01*
X118459142Y-92590904D01*
X118411523Y-92686142D01*
X118363904Y-92733761D01*
X118268666Y-92781380D01*
X117982952Y-92781380D01*
X117887714Y-92733761D01*
X117840095Y-92686142D01*
X118935333Y-92781380D02*
X119125809Y-92781380D01*
X119221047Y-92733761D01*
X119268666Y-92686142D01*
X119363904Y-92543285D01*
X119411523Y-92352809D01*
X119411523Y-91971857D01*
X119363904Y-91876619D01*
X119316285Y-91829000D01*
X119221047Y-91781380D01*
X119030571Y-91781380D01*
X118935333Y-91829000D01*
X118887714Y-91876619D01*
X118840095Y-91971857D01*
X118840095Y-92209952D01*
X118887714Y-92305190D01*
X118935333Y-92352809D01*
X119030571Y-92400428D01*
X119221047Y-92400428D01*
X119316285Y-92352809D01*
X119363904Y-92305190D01*
X119411523Y-92209952D01*
X115792476Y-72667761D02*
X115935333Y-72715380D01*
X116173428Y-72715380D01*
X116268666Y-72667761D01*
X116316285Y-72620142D01*
X116363904Y-72524904D01*
X116363904Y-72429666D01*
X116316285Y-72334428D01*
X116268666Y-72286809D01*
X116173428Y-72239190D01*
X115982952Y-72191571D01*
X115887714Y-72143952D01*
X115840095Y-72096333D01*
X115792476Y-72001095D01*
X115792476Y-71905857D01*
X115840095Y-71810619D01*
X115887714Y-71763000D01*
X115982952Y-71715380D01*
X116221047Y-71715380D01*
X116363904Y-71763000D01*
X116697238Y-71715380D02*
X116935333Y-72715380D01*
X117125809Y-72001095D01*
X117316285Y-72715380D01*
X117554380Y-71715380D01*
X117840095Y-71715380D02*
X118459142Y-71715380D01*
X118125809Y-72096333D01*
X118268666Y-72096333D01*
X118363904Y-72143952D01*
X118411523Y-72191571D01*
X118459142Y-72286809D01*
X118459142Y-72524904D01*
X118411523Y-72620142D01*
X118363904Y-72667761D01*
X118268666Y-72715380D01*
X117982952Y-72715380D01*
X117887714Y-72667761D01*
X117840095Y-72620142D01*
X119030571Y-72143952D02*
X118935333Y-72096333D01*
X118887714Y-72048714D01*
X118840095Y-71953476D01*
X118840095Y-71905857D01*
X118887714Y-71810619D01*
X118935333Y-71763000D01*
X119030571Y-71715380D01*
X119221047Y-71715380D01*
X119316285Y-71763000D01*
X119363904Y-71810619D01*
X119411523Y-71905857D01*
X119411523Y-71953476D01*
X119363904Y-72048714D01*
X119316285Y-72096333D01*
X119221047Y-72143952D01*
X119030571Y-72143952D01*
X118935333Y-72191571D01*
X118887714Y-72239190D01*
X118840095Y-72334428D01*
X118840095Y-72524904D01*
X118887714Y-72620142D01*
X118935333Y-72667761D01*
X119030571Y-72715380D01*
X119221047Y-72715380D01*
X119316285Y-72667761D01*
X119363904Y-72620142D01*
X119411523Y-72524904D01*
X119411523Y-72334428D01*
X119363904Y-72239190D01*
X119316285Y-72191571D01*
X119221047Y-72143952D01*
X115792476Y-52601761D02*
X115935333Y-52649380D01*
X116173428Y-52649380D01*
X116268666Y-52601761D01*
X116316285Y-52554142D01*
X116363904Y-52458904D01*
X116363904Y-52363666D01*
X116316285Y-52268428D01*
X116268666Y-52220809D01*
X116173428Y-52173190D01*
X115982952Y-52125571D01*
X115887714Y-52077952D01*
X115840095Y-52030333D01*
X115792476Y-51935095D01*
X115792476Y-51839857D01*
X115840095Y-51744619D01*
X115887714Y-51697000D01*
X115982952Y-51649380D01*
X116221047Y-51649380D01*
X116363904Y-51697000D01*
X116697238Y-51649380D02*
X116935333Y-52649380D01*
X117125809Y-51935095D01*
X117316285Y-52649380D01*
X117554380Y-51649380D01*
X117840095Y-51649380D02*
X118459142Y-51649380D01*
X118125809Y-52030333D01*
X118268666Y-52030333D01*
X118363904Y-52077952D01*
X118411523Y-52125571D01*
X118459142Y-52220809D01*
X118459142Y-52458904D01*
X118411523Y-52554142D01*
X118363904Y-52601761D01*
X118268666Y-52649380D01*
X117982952Y-52649380D01*
X117887714Y-52601761D01*
X117840095Y-52554142D01*
X118792476Y-51649380D02*
X119459142Y-51649380D01*
X119030571Y-52649380D01*
X135858476Y-92733761D02*
X136001333Y-92781380D01*
X136239428Y-92781380D01*
X136334666Y-92733761D01*
X136382285Y-92686142D01*
X136429904Y-92590904D01*
X136429904Y-92495666D01*
X136382285Y-92400428D01*
X136334666Y-92352809D01*
X136239428Y-92305190D01*
X136048952Y-92257571D01*
X135953714Y-92209952D01*
X135906095Y-92162333D01*
X135858476Y-92067095D01*
X135858476Y-91971857D01*
X135906095Y-91876619D01*
X135953714Y-91829000D01*
X136048952Y-91781380D01*
X136287047Y-91781380D01*
X136429904Y-91829000D01*
X136763238Y-91781380D02*
X137001333Y-92781380D01*
X137191809Y-92067095D01*
X137382285Y-92781380D01*
X137620380Y-91781380D01*
X137906095Y-91781380D02*
X138525142Y-91781380D01*
X138191809Y-92162333D01*
X138334666Y-92162333D01*
X138429904Y-92209952D01*
X138477523Y-92257571D01*
X138525142Y-92352809D01*
X138525142Y-92590904D01*
X138477523Y-92686142D01*
X138429904Y-92733761D01*
X138334666Y-92781380D01*
X138048952Y-92781380D01*
X137953714Y-92733761D01*
X137906095Y-92686142D01*
X139429904Y-91781380D02*
X138953714Y-91781380D01*
X138906095Y-92257571D01*
X138953714Y-92209952D01*
X139048952Y-92162333D01*
X139287047Y-92162333D01*
X139382285Y-92209952D01*
X139429904Y-92257571D01*
X139477523Y-92352809D01*
X139477523Y-92590904D01*
X139429904Y-92686142D01*
X139382285Y-92733761D01*
X139287047Y-92781380D01*
X139048952Y-92781380D01*
X138953714Y-92733761D01*
X138906095Y-92686142D01*
X135858476Y-72667761D02*
X136001333Y-72715380D01*
X136239428Y-72715380D01*
X136334666Y-72667761D01*
X136382285Y-72620142D01*
X136429904Y-72524904D01*
X136429904Y-72429666D01*
X136382285Y-72334428D01*
X136334666Y-72286809D01*
X136239428Y-72239190D01*
X136048952Y-72191571D01*
X135953714Y-72143952D01*
X135906095Y-72096333D01*
X135858476Y-72001095D01*
X135858476Y-71905857D01*
X135906095Y-71810619D01*
X135953714Y-71763000D01*
X136048952Y-71715380D01*
X136287047Y-71715380D01*
X136429904Y-71763000D01*
X136763238Y-71715380D02*
X137001333Y-72715380D01*
X137191809Y-72001095D01*
X137382285Y-72715380D01*
X137620380Y-71715380D01*
X137906095Y-71715380D02*
X138525142Y-71715380D01*
X138191809Y-72096333D01*
X138334666Y-72096333D01*
X138429904Y-72143952D01*
X138477523Y-72191571D01*
X138525142Y-72286809D01*
X138525142Y-72524904D01*
X138477523Y-72620142D01*
X138429904Y-72667761D01*
X138334666Y-72715380D01*
X138048952Y-72715380D01*
X137953714Y-72667761D01*
X137906095Y-72620142D01*
X139382285Y-72048714D02*
X139382285Y-72715380D01*
X139144190Y-71667761D02*
X138906095Y-72382047D01*
X139525142Y-72382047D01*
X135858476Y-52601761D02*
X136001333Y-52649380D01*
X136239428Y-52649380D01*
X136334666Y-52601761D01*
X136382285Y-52554142D01*
X136429904Y-52458904D01*
X136429904Y-52363666D01*
X136382285Y-52268428D01*
X136334666Y-52220809D01*
X136239428Y-52173190D01*
X136048952Y-52125571D01*
X135953714Y-52077952D01*
X135906095Y-52030333D01*
X135858476Y-51935095D01*
X135858476Y-51839857D01*
X135906095Y-51744619D01*
X135953714Y-51697000D01*
X136048952Y-51649380D01*
X136287047Y-51649380D01*
X136429904Y-51697000D01*
X136763238Y-51649380D02*
X137001333Y-52649380D01*
X137191809Y-51935095D01*
X137382285Y-52649380D01*
X137620380Y-51649380D01*
X137906095Y-51649380D02*
X138525142Y-51649380D01*
X138191809Y-52030333D01*
X138334666Y-52030333D01*
X138429904Y-52077952D01*
X138477523Y-52125571D01*
X138525142Y-52220809D01*
X138525142Y-52458904D01*
X138477523Y-52554142D01*
X138429904Y-52601761D01*
X138334666Y-52649380D01*
X138048952Y-52649380D01*
X137953714Y-52601761D01*
X137906095Y-52554142D01*
X138858476Y-51649380D02*
X139477523Y-51649380D01*
X139144190Y-52030333D01*
X139287047Y-52030333D01*
X139382285Y-52077952D01*
X139429904Y-52125571D01*
X139477523Y-52220809D01*
X139477523Y-52458904D01*
X139429904Y-52554142D01*
X139382285Y-52601761D01*
X139287047Y-52649380D01*
X139001333Y-52649380D01*
X138906095Y-52601761D01*
X138858476Y-52554142D01*
X145891476Y-112799761D02*
X146034333Y-112847380D01*
X146272428Y-112847380D01*
X146367666Y-112799761D01*
X146415285Y-112752142D01*
X146462904Y-112656904D01*
X146462904Y-112561666D01*
X146415285Y-112466428D01*
X146367666Y-112418809D01*
X146272428Y-112371190D01*
X146081952Y-112323571D01*
X145986714Y-112275952D01*
X145939095Y-112228333D01*
X145891476Y-112133095D01*
X145891476Y-112037857D01*
X145939095Y-111942619D01*
X145986714Y-111895000D01*
X146081952Y-111847380D01*
X146320047Y-111847380D01*
X146462904Y-111895000D01*
X146796238Y-111847380D02*
X147034333Y-112847380D01*
X147224809Y-112133095D01*
X147415285Y-112847380D01*
X147653380Y-111847380D01*
X147939095Y-111847380D02*
X148558142Y-111847380D01*
X148224809Y-112228333D01*
X148367666Y-112228333D01*
X148462904Y-112275952D01*
X148510523Y-112323571D01*
X148558142Y-112418809D01*
X148558142Y-112656904D01*
X148510523Y-112752142D01*
X148462904Y-112799761D01*
X148367666Y-112847380D01*
X148081952Y-112847380D01*
X147986714Y-112799761D01*
X147939095Y-112752142D01*
X149510523Y-112847380D02*
X148939095Y-112847380D01*
X149224809Y-112847380D02*
X149224809Y-111847380D01*
X149129571Y-111990238D01*
X149034333Y-112085476D01*
X148939095Y-112133095D01*
X155924476Y-92733761D02*
X156067333Y-92781380D01*
X156305428Y-92781380D01*
X156400666Y-92733761D01*
X156448285Y-92686142D01*
X156495904Y-92590904D01*
X156495904Y-92495666D01*
X156448285Y-92400428D01*
X156400666Y-92352809D01*
X156305428Y-92305190D01*
X156114952Y-92257571D01*
X156019714Y-92209952D01*
X155972095Y-92162333D01*
X155924476Y-92067095D01*
X155924476Y-91971857D01*
X155972095Y-91876619D01*
X156019714Y-91829000D01*
X156114952Y-91781380D01*
X156353047Y-91781380D01*
X156495904Y-91829000D01*
X156829238Y-91781380D02*
X157067333Y-92781380D01*
X157257809Y-92067095D01*
X157448285Y-92781380D01*
X157686380Y-91781380D01*
X157972095Y-91781380D02*
X158591142Y-91781380D01*
X158257809Y-92162333D01*
X158400666Y-92162333D01*
X158495904Y-92209952D01*
X158543523Y-92257571D01*
X158591142Y-92352809D01*
X158591142Y-92590904D01*
X158543523Y-92686142D01*
X158495904Y-92733761D01*
X158400666Y-92781380D01*
X158114952Y-92781380D01*
X158019714Y-92733761D01*
X157972095Y-92686142D01*
X159210190Y-91781380D02*
X159305428Y-91781380D01*
X159400666Y-91829000D01*
X159448285Y-91876619D01*
X159495904Y-91971857D01*
X159543523Y-92162333D01*
X159543523Y-92400428D01*
X159495904Y-92590904D01*
X159448285Y-92686142D01*
X159400666Y-92733761D01*
X159305428Y-92781380D01*
X159210190Y-92781380D01*
X159114952Y-92733761D01*
X159067333Y-92686142D01*
X159019714Y-92590904D01*
X158972095Y-92400428D01*
X158972095Y-92162333D01*
X159019714Y-91971857D01*
X159067333Y-91876619D01*
X159114952Y-91829000D01*
X159210190Y-91781380D01*
X155924476Y-72667761D02*
X156067333Y-72715380D01*
X156305428Y-72715380D01*
X156400666Y-72667761D01*
X156448285Y-72620142D01*
X156495904Y-72524904D01*
X156495904Y-72429666D01*
X156448285Y-72334428D01*
X156400666Y-72286809D01*
X156305428Y-72239190D01*
X156114952Y-72191571D01*
X156019714Y-72143952D01*
X155972095Y-72096333D01*
X155924476Y-72001095D01*
X155924476Y-71905857D01*
X155972095Y-71810619D01*
X156019714Y-71763000D01*
X156114952Y-71715380D01*
X156353047Y-71715380D01*
X156495904Y-71763000D01*
X156829238Y-71715380D02*
X157067333Y-72715380D01*
X157257809Y-72001095D01*
X157448285Y-72715380D01*
X157686380Y-71715380D01*
X158019714Y-71810619D02*
X158067333Y-71763000D01*
X158162571Y-71715380D01*
X158400666Y-71715380D01*
X158495904Y-71763000D01*
X158543523Y-71810619D01*
X158591142Y-71905857D01*
X158591142Y-72001095D01*
X158543523Y-72143952D01*
X157972095Y-72715380D01*
X158591142Y-72715380D01*
X159067333Y-72715380D02*
X159257809Y-72715380D01*
X159353047Y-72667761D01*
X159400666Y-72620142D01*
X159495904Y-72477285D01*
X159543523Y-72286809D01*
X159543523Y-71905857D01*
X159495904Y-71810619D01*
X159448285Y-71763000D01*
X159353047Y-71715380D01*
X159162571Y-71715380D01*
X159067333Y-71763000D01*
X159019714Y-71810619D01*
X158972095Y-71905857D01*
X158972095Y-72143952D01*
X159019714Y-72239190D01*
X159067333Y-72286809D01*
X159162571Y-72334428D01*
X159353047Y-72334428D01*
X159448285Y-72286809D01*
X159495904Y-72239190D01*
X159543523Y-72143952D01*
X155924476Y-52601761D02*
X156067333Y-52649380D01*
X156305428Y-52649380D01*
X156400666Y-52601761D01*
X156448285Y-52554142D01*
X156495904Y-52458904D01*
X156495904Y-52363666D01*
X156448285Y-52268428D01*
X156400666Y-52220809D01*
X156305428Y-52173190D01*
X156114952Y-52125571D01*
X156019714Y-52077952D01*
X155972095Y-52030333D01*
X155924476Y-51935095D01*
X155924476Y-51839857D01*
X155972095Y-51744619D01*
X156019714Y-51697000D01*
X156114952Y-51649380D01*
X156353047Y-51649380D01*
X156495904Y-51697000D01*
X156829238Y-51649380D02*
X157067333Y-52649380D01*
X157257809Y-51935095D01*
X157448285Y-52649380D01*
X157686380Y-51649380D01*
X158019714Y-51744619D02*
X158067333Y-51697000D01*
X158162571Y-51649380D01*
X158400666Y-51649380D01*
X158495904Y-51697000D01*
X158543523Y-51744619D01*
X158591142Y-51839857D01*
X158591142Y-51935095D01*
X158543523Y-52077952D01*
X157972095Y-52649380D01*
X158591142Y-52649380D01*
X159162571Y-52077952D02*
X159067333Y-52030333D01*
X159019714Y-51982714D01*
X158972095Y-51887476D01*
X158972095Y-51839857D01*
X159019714Y-51744619D01*
X159067333Y-51697000D01*
X159162571Y-51649380D01*
X159353047Y-51649380D01*
X159448285Y-51697000D01*
X159495904Y-51744619D01*
X159543523Y-51839857D01*
X159543523Y-51887476D01*
X159495904Y-51982714D01*
X159448285Y-52030333D01*
X159353047Y-52077952D01*
X159162571Y-52077952D01*
X159067333Y-52125571D01*
X159019714Y-52173190D01*
X158972095Y-52268428D01*
X158972095Y-52458904D01*
X159019714Y-52554142D01*
X159067333Y-52601761D01*
X159162571Y-52649380D01*
X159353047Y-52649380D01*
X159448285Y-52601761D01*
X159495904Y-52554142D01*
X159543523Y-52458904D01*
X159543523Y-52268428D01*
X159495904Y-52173190D01*
X159448285Y-52125571D01*
X159353047Y-52077952D01*
X175990476Y-112799761D02*
X176133333Y-112847380D01*
X176371428Y-112847380D01*
X176466666Y-112799761D01*
X176514285Y-112752142D01*
X176561904Y-112656904D01*
X176561904Y-112561666D01*
X176514285Y-112466428D01*
X176466666Y-112418809D01*
X176371428Y-112371190D01*
X176180952Y-112323571D01*
X176085714Y-112275952D01*
X176038095Y-112228333D01*
X175990476Y-112133095D01*
X175990476Y-112037857D01*
X176038095Y-111942619D01*
X176085714Y-111895000D01*
X176180952Y-111847380D01*
X176419047Y-111847380D01*
X176561904Y-111895000D01*
X176895238Y-111847380D02*
X177133333Y-112847380D01*
X177323809Y-112133095D01*
X177514285Y-112847380D01*
X177752380Y-111847380D01*
X178085714Y-111942619D02*
X178133333Y-111895000D01*
X178228571Y-111847380D01*
X178466666Y-111847380D01*
X178561904Y-111895000D01*
X178609523Y-111942619D01*
X178657142Y-112037857D01*
X178657142Y-112133095D01*
X178609523Y-112275952D01*
X178038095Y-112847380D01*
X178657142Y-112847380D01*
X179514285Y-111847380D02*
X179323809Y-111847380D01*
X179228571Y-111895000D01*
X179180952Y-111942619D01*
X179085714Y-112085476D01*
X179038095Y-112275952D01*
X179038095Y-112656904D01*
X179085714Y-112752142D01*
X179133333Y-112799761D01*
X179228571Y-112847380D01*
X179419047Y-112847380D01*
X179514285Y-112799761D01*
X179561904Y-112752142D01*
X179609523Y-112656904D01*
X179609523Y-112418809D01*
X179561904Y-112323571D01*
X179514285Y-112275952D01*
X179419047Y-112228333D01*
X179228571Y-112228333D01*
X179133333Y-112275952D01*
X179085714Y-112323571D01*
X179038095Y-112418809D01*
X175990476Y-92733761D02*
X176133333Y-92781380D01*
X176371428Y-92781380D01*
X176466666Y-92733761D01*
X176514285Y-92686142D01*
X176561904Y-92590904D01*
X176561904Y-92495666D01*
X176514285Y-92400428D01*
X176466666Y-92352809D01*
X176371428Y-92305190D01*
X176180952Y-92257571D01*
X176085714Y-92209952D01*
X176038095Y-92162333D01*
X175990476Y-92067095D01*
X175990476Y-91971857D01*
X176038095Y-91876619D01*
X176085714Y-91829000D01*
X176180952Y-91781380D01*
X176419047Y-91781380D01*
X176561904Y-91829000D01*
X176895238Y-91781380D02*
X177133333Y-92781380D01*
X177323809Y-92067095D01*
X177514285Y-92781380D01*
X177752380Y-91781380D01*
X178085714Y-91876619D02*
X178133333Y-91829000D01*
X178228571Y-91781380D01*
X178466666Y-91781380D01*
X178561904Y-91829000D01*
X178609523Y-91876619D01*
X178657142Y-91971857D01*
X178657142Y-92067095D01*
X178609523Y-92209952D01*
X178038095Y-92781380D01*
X178657142Y-92781380D01*
X179561904Y-91781380D02*
X179085714Y-91781380D01*
X179038095Y-92257571D01*
X179085714Y-92209952D01*
X179180952Y-92162333D01*
X179419047Y-92162333D01*
X179514285Y-92209952D01*
X179561904Y-92257571D01*
X179609523Y-92352809D01*
X179609523Y-92590904D01*
X179561904Y-92686142D01*
X179514285Y-92733761D01*
X179419047Y-92781380D01*
X179180952Y-92781380D01*
X179085714Y-92733761D01*
X179038095Y-92686142D01*
X175990476Y-72667761D02*
X176133333Y-72715380D01*
X176371428Y-72715380D01*
X176466666Y-72667761D01*
X176514285Y-72620142D01*
X176561904Y-72524904D01*
X176561904Y-72429666D01*
X176514285Y-72334428D01*
X176466666Y-72286809D01*
X176371428Y-72239190D01*
X176180952Y-72191571D01*
X176085714Y-72143952D01*
X176038095Y-72096333D01*
X175990476Y-72001095D01*
X175990476Y-71905857D01*
X176038095Y-71810619D01*
X176085714Y-71763000D01*
X176180952Y-71715380D01*
X176419047Y-71715380D01*
X176561904Y-71763000D01*
X176895238Y-71715380D02*
X177133333Y-72715380D01*
X177323809Y-72001095D01*
X177514285Y-72715380D01*
X177752380Y-71715380D01*
X178085714Y-71810619D02*
X178133333Y-71763000D01*
X178228571Y-71715380D01*
X178466666Y-71715380D01*
X178561904Y-71763000D01*
X178609523Y-71810619D01*
X178657142Y-71905857D01*
X178657142Y-72001095D01*
X178609523Y-72143952D01*
X178038095Y-72715380D01*
X178657142Y-72715380D01*
X179514285Y-72048714D02*
X179514285Y-72715380D01*
X179276190Y-71667761D02*
X179038095Y-72382047D01*
X179657142Y-72382047D01*
X175990476Y-52601761D02*
X176133333Y-52649380D01*
X176371428Y-52649380D01*
X176466666Y-52601761D01*
X176514285Y-52554142D01*
X176561904Y-52458904D01*
X176561904Y-52363666D01*
X176514285Y-52268428D01*
X176466666Y-52220809D01*
X176371428Y-52173190D01*
X176180952Y-52125571D01*
X176085714Y-52077952D01*
X176038095Y-52030333D01*
X175990476Y-51935095D01*
X175990476Y-51839857D01*
X176038095Y-51744619D01*
X176085714Y-51697000D01*
X176180952Y-51649380D01*
X176419047Y-51649380D01*
X176561904Y-51697000D01*
X176895238Y-51649380D02*
X177133333Y-52649380D01*
X177323809Y-51935095D01*
X177514285Y-52649380D01*
X177752380Y-51649380D01*
X178085714Y-51744619D02*
X178133333Y-51697000D01*
X178228571Y-51649380D01*
X178466666Y-51649380D01*
X178561904Y-51697000D01*
X178609523Y-51744619D01*
X178657142Y-51839857D01*
X178657142Y-51935095D01*
X178609523Y-52077952D01*
X178038095Y-52649380D01*
X178657142Y-52649380D01*
X178990476Y-51649380D02*
X179609523Y-51649380D01*
X179276190Y-52030333D01*
X179419047Y-52030333D01*
X179514285Y-52077952D01*
X179561904Y-52125571D01*
X179609523Y-52220809D01*
X179609523Y-52458904D01*
X179561904Y-52554142D01*
X179514285Y-52601761D01*
X179419047Y-52649380D01*
X179133333Y-52649380D01*
X179038095Y-52601761D01*
X178990476Y-52554142D01*
X196056476Y-112799761D02*
X196199333Y-112847380D01*
X196437428Y-112847380D01*
X196532666Y-112799761D01*
X196580285Y-112752142D01*
X196627904Y-112656904D01*
X196627904Y-112561666D01*
X196580285Y-112466428D01*
X196532666Y-112418809D01*
X196437428Y-112371190D01*
X196246952Y-112323571D01*
X196151714Y-112275952D01*
X196104095Y-112228333D01*
X196056476Y-112133095D01*
X196056476Y-112037857D01*
X196104095Y-111942619D01*
X196151714Y-111895000D01*
X196246952Y-111847380D01*
X196485047Y-111847380D01*
X196627904Y-111895000D01*
X196961238Y-111847380D02*
X197199333Y-112847380D01*
X197389809Y-112133095D01*
X197580285Y-112847380D01*
X197818380Y-111847380D01*
X198151714Y-111942619D02*
X198199333Y-111895000D01*
X198294571Y-111847380D01*
X198532666Y-111847380D01*
X198627904Y-111895000D01*
X198675523Y-111942619D01*
X198723142Y-112037857D01*
X198723142Y-112133095D01*
X198675523Y-112275952D01*
X198104095Y-112847380D01*
X198723142Y-112847380D01*
X199675523Y-112847380D02*
X199104095Y-112847380D01*
X199389809Y-112847380D02*
X199389809Y-111847380D01*
X199294571Y-111990238D01*
X199199333Y-112085476D01*
X199104095Y-112133095D01*
X196056476Y-92733761D02*
X196199333Y-92781380D01*
X196437428Y-92781380D01*
X196532666Y-92733761D01*
X196580285Y-92686142D01*
X196627904Y-92590904D01*
X196627904Y-92495666D01*
X196580285Y-92400428D01*
X196532666Y-92352809D01*
X196437428Y-92305190D01*
X196246952Y-92257571D01*
X196151714Y-92209952D01*
X196104095Y-92162333D01*
X196056476Y-92067095D01*
X196056476Y-91971857D01*
X196104095Y-91876619D01*
X196151714Y-91829000D01*
X196246952Y-91781380D01*
X196485047Y-91781380D01*
X196627904Y-91829000D01*
X196961238Y-91781380D02*
X197199333Y-92781380D01*
X197389809Y-92067095D01*
X197580285Y-92781380D01*
X197818380Y-91781380D01*
X198151714Y-91876619D02*
X198199333Y-91829000D01*
X198294571Y-91781380D01*
X198532666Y-91781380D01*
X198627904Y-91829000D01*
X198675523Y-91876619D01*
X198723142Y-91971857D01*
X198723142Y-92067095D01*
X198675523Y-92209952D01*
X198104095Y-92781380D01*
X198723142Y-92781380D01*
X199342190Y-91781380D02*
X199437428Y-91781380D01*
X199532666Y-91829000D01*
X199580285Y-91876619D01*
X199627904Y-91971857D01*
X199675523Y-92162333D01*
X199675523Y-92400428D01*
X199627904Y-92590904D01*
X199580285Y-92686142D01*
X199532666Y-92733761D01*
X199437428Y-92781380D01*
X199342190Y-92781380D01*
X199246952Y-92733761D01*
X199199333Y-92686142D01*
X199151714Y-92590904D01*
X199104095Y-92400428D01*
X199104095Y-92162333D01*
X199151714Y-91971857D01*
X199199333Y-91876619D01*
X199246952Y-91829000D01*
X199342190Y-91781380D01*
X196056476Y-72667761D02*
X196199333Y-72715380D01*
X196437428Y-72715380D01*
X196532666Y-72667761D01*
X196580285Y-72620142D01*
X196627904Y-72524904D01*
X196627904Y-72429666D01*
X196580285Y-72334428D01*
X196532666Y-72286809D01*
X196437428Y-72239190D01*
X196246952Y-72191571D01*
X196151714Y-72143952D01*
X196104095Y-72096333D01*
X196056476Y-72001095D01*
X196056476Y-71905857D01*
X196104095Y-71810619D01*
X196151714Y-71763000D01*
X196246952Y-71715380D01*
X196485047Y-71715380D01*
X196627904Y-71763000D01*
X196961238Y-71715380D02*
X197199333Y-72715380D01*
X197389809Y-72001095D01*
X197580285Y-72715380D01*
X197818380Y-71715380D01*
X198723142Y-72715380D02*
X198151714Y-72715380D01*
X198437428Y-72715380D02*
X198437428Y-71715380D01*
X198342190Y-71858238D01*
X198246952Y-71953476D01*
X198151714Y-72001095D01*
X199199333Y-72715380D02*
X199389809Y-72715380D01*
X199485047Y-72667761D01*
X199532666Y-72620142D01*
X199627904Y-72477285D01*
X199675523Y-72286809D01*
X199675523Y-71905857D01*
X199627904Y-71810619D01*
X199580285Y-71763000D01*
X199485047Y-71715380D01*
X199294571Y-71715380D01*
X199199333Y-71763000D01*
X199151714Y-71810619D01*
X199104095Y-71905857D01*
X199104095Y-72143952D01*
X199151714Y-72239190D01*
X199199333Y-72286809D01*
X199294571Y-72334428D01*
X199485047Y-72334428D01*
X199580285Y-72286809D01*
X199627904Y-72239190D01*
X199675523Y-72143952D01*
X196056476Y-52601761D02*
X196199333Y-52649380D01*
X196437428Y-52649380D01*
X196532666Y-52601761D01*
X196580285Y-52554142D01*
X196627904Y-52458904D01*
X196627904Y-52363666D01*
X196580285Y-52268428D01*
X196532666Y-52220809D01*
X196437428Y-52173190D01*
X196246952Y-52125571D01*
X196151714Y-52077952D01*
X196104095Y-52030333D01*
X196056476Y-51935095D01*
X196056476Y-51839857D01*
X196104095Y-51744619D01*
X196151714Y-51697000D01*
X196246952Y-51649380D01*
X196485047Y-51649380D01*
X196627904Y-51697000D01*
X196961238Y-51649380D02*
X197199333Y-52649380D01*
X197389809Y-51935095D01*
X197580285Y-52649380D01*
X197818380Y-51649380D01*
X198723142Y-52649380D02*
X198151714Y-52649380D01*
X198437428Y-52649380D02*
X198437428Y-51649380D01*
X198342190Y-51792238D01*
X198246952Y-51887476D01*
X198151714Y-51935095D01*
X199294571Y-52077952D02*
X199199333Y-52030333D01*
X199151714Y-51982714D01*
X199104095Y-51887476D01*
X199104095Y-51839857D01*
X199151714Y-51744619D01*
X199199333Y-51697000D01*
X199294571Y-51649380D01*
X199485047Y-51649380D01*
X199580285Y-51697000D01*
X199627904Y-51744619D01*
X199675523Y-51839857D01*
X199675523Y-51887476D01*
X199627904Y-51982714D01*
X199580285Y-52030333D01*
X199485047Y-52077952D01*
X199294571Y-52077952D01*
X199199333Y-52125571D01*
X199151714Y-52173190D01*
X199104095Y-52268428D01*
X199104095Y-52458904D01*
X199151714Y-52554142D01*
X199199333Y-52601761D01*
X199294571Y-52649380D01*
X199485047Y-52649380D01*
X199580285Y-52601761D01*
X199627904Y-52554142D01*
X199675523Y-52458904D01*
X199675523Y-52268428D01*
X199627904Y-52173190D01*
X199580285Y-52125571D01*
X199485047Y-52077952D01*
X216122476Y-112799761D02*
X216265333Y-112847380D01*
X216503428Y-112847380D01*
X216598666Y-112799761D01*
X216646285Y-112752142D01*
X216693904Y-112656904D01*
X216693904Y-112561666D01*
X216646285Y-112466428D01*
X216598666Y-112418809D01*
X216503428Y-112371190D01*
X216312952Y-112323571D01*
X216217714Y-112275952D01*
X216170095Y-112228333D01*
X216122476Y-112133095D01*
X216122476Y-112037857D01*
X216170095Y-111942619D01*
X216217714Y-111895000D01*
X216312952Y-111847380D01*
X216551047Y-111847380D01*
X216693904Y-111895000D01*
X217027238Y-111847380D02*
X217265333Y-112847380D01*
X217455809Y-112133095D01*
X217646285Y-112847380D01*
X217884380Y-111847380D01*
X218789142Y-112847380D02*
X218217714Y-112847380D01*
X218503428Y-112847380D02*
X218503428Y-111847380D01*
X218408190Y-111990238D01*
X218312952Y-112085476D01*
X218217714Y-112133095D01*
X219646285Y-111847380D02*
X219455809Y-111847380D01*
X219360571Y-111895000D01*
X219312952Y-111942619D01*
X219217714Y-112085476D01*
X219170095Y-112275952D01*
X219170095Y-112656904D01*
X219217714Y-112752142D01*
X219265333Y-112799761D01*
X219360571Y-112847380D01*
X219551047Y-112847380D01*
X219646285Y-112799761D01*
X219693904Y-112752142D01*
X219741523Y-112656904D01*
X219741523Y-112418809D01*
X219693904Y-112323571D01*
X219646285Y-112275952D01*
X219551047Y-112228333D01*
X219360571Y-112228333D01*
X219265333Y-112275952D01*
X219217714Y-112323571D01*
X219170095Y-112418809D01*
X216122476Y-92733761D02*
X216265333Y-92781380D01*
X216503428Y-92781380D01*
X216598666Y-92733761D01*
X216646285Y-92686142D01*
X216693904Y-92590904D01*
X216693904Y-92495666D01*
X216646285Y-92400428D01*
X216598666Y-92352809D01*
X216503428Y-92305190D01*
X216312952Y-92257571D01*
X216217714Y-92209952D01*
X216170095Y-92162333D01*
X216122476Y-92067095D01*
X216122476Y-91971857D01*
X216170095Y-91876619D01*
X216217714Y-91829000D01*
X216312952Y-91781380D01*
X216551047Y-91781380D01*
X216693904Y-91829000D01*
X217027238Y-91781380D02*
X217265333Y-92781380D01*
X217455809Y-92067095D01*
X217646285Y-92781380D01*
X217884380Y-91781380D01*
X218789142Y-92781380D02*
X218217714Y-92781380D01*
X218503428Y-92781380D02*
X218503428Y-91781380D01*
X218408190Y-91924238D01*
X218312952Y-92019476D01*
X218217714Y-92067095D01*
X219693904Y-91781380D02*
X219217714Y-91781380D01*
X219170095Y-92257571D01*
X219217714Y-92209952D01*
X219312952Y-92162333D01*
X219551047Y-92162333D01*
X219646285Y-92209952D01*
X219693904Y-92257571D01*
X219741523Y-92352809D01*
X219741523Y-92590904D01*
X219693904Y-92686142D01*
X219646285Y-92733761D01*
X219551047Y-92781380D01*
X219312952Y-92781380D01*
X219217714Y-92733761D01*
X219170095Y-92686142D01*
X216122476Y-72667761D02*
X216265333Y-72715380D01*
X216503428Y-72715380D01*
X216598666Y-72667761D01*
X216646285Y-72620142D01*
X216693904Y-72524904D01*
X216693904Y-72429666D01*
X216646285Y-72334428D01*
X216598666Y-72286809D01*
X216503428Y-72239190D01*
X216312952Y-72191571D01*
X216217714Y-72143952D01*
X216170095Y-72096333D01*
X216122476Y-72001095D01*
X216122476Y-71905857D01*
X216170095Y-71810619D01*
X216217714Y-71763000D01*
X216312952Y-71715380D01*
X216551047Y-71715380D01*
X216693904Y-71763000D01*
X217027238Y-71715380D02*
X217265333Y-72715380D01*
X217455809Y-72001095D01*
X217646285Y-72715380D01*
X217884380Y-71715380D01*
X218789142Y-72715380D02*
X218217714Y-72715380D01*
X218503428Y-72715380D02*
X218503428Y-71715380D01*
X218408190Y-71858238D01*
X218312952Y-71953476D01*
X218217714Y-72001095D01*
X219646285Y-72048714D02*
X219646285Y-72715380D01*
X219408190Y-71667761D02*
X219170095Y-72382047D01*
X219789142Y-72382047D01*
X216122476Y-52601761D02*
X216265333Y-52649380D01*
X216503428Y-52649380D01*
X216598666Y-52601761D01*
X216646285Y-52554142D01*
X216693904Y-52458904D01*
X216693904Y-52363666D01*
X216646285Y-52268428D01*
X216598666Y-52220809D01*
X216503428Y-52173190D01*
X216312952Y-52125571D01*
X216217714Y-52077952D01*
X216170095Y-52030333D01*
X216122476Y-51935095D01*
X216122476Y-51839857D01*
X216170095Y-51744619D01*
X216217714Y-51697000D01*
X216312952Y-51649380D01*
X216551047Y-51649380D01*
X216693904Y-51697000D01*
X217027238Y-51649380D02*
X217265333Y-52649380D01*
X217455809Y-51935095D01*
X217646285Y-52649380D01*
X217884380Y-51649380D01*
X218789142Y-52649380D02*
X218217714Y-52649380D01*
X218503428Y-52649380D02*
X218503428Y-51649380D01*
X218408190Y-51792238D01*
X218312952Y-51887476D01*
X218217714Y-51935095D01*
X219122476Y-51649380D02*
X219741523Y-51649380D01*
X219408190Y-52030333D01*
X219551047Y-52030333D01*
X219646285Y-52077952D01*
X219693904Y-52125571D01*
X219741523Y-52220809D01*
X219741523Y-52458904D01*
X219693904Y-52554142D01*
X219646285Y-52601761D01*
X219551047Y-52649380D01*
X219265333Y-52649380D01*
X219170095Y-52601761D01*
X219122476Y-52554142D01*
X236188476Y-112799761D02*
X236331333Y-112847380D01*
X236569428Y-112847380D01*
X236664666Y-112799761D01*
X236712285Y-112752142D01*
X236759904Y-112656904D01*
X236759904Y-112561666D01*
X236712285Y-112466428D01*
X236664666Y-112418809D01*
X236569428Y-112371190D01*
X236378952Y-112323571D01*
X236283714Y-112275952D01*
X236236095Y-112228333D01*
X236188476Y-112133095D01*
X236188476Y-112037857D01*
X236236095Y-111942619D01*
X236283714Y-111895000D01*
X236378952Y-111847380D01*
X236617047Y-111847380D01*
X236759904Y-111895000D01*
X237093238Y-111847380D02*
X237331333Y-112847380D01*
X237521809Y-112133095D01*
X237712285Y-112847380D01*
X237950380Y-111847380D01*
X238855142Y-112847380D02*
X238283714Y-112847380D01*
X238569428Y-112847380D02*
X238569428Y-111847380D01*
X238474190Y-111990238D01*
X238378952Y-112085476D01*
X238283714Y-112133095D01*
X239807523Y-112847380D02*
X239236095Y-112847380D01*
X239521809Y-112847380D02*
X239521809Y-111847380D01*
X239426571Y-111990238D01*
X239331333Y-112085476D01*
X239236095Y-112133095D01*
X236188476Y-92733761D02*
X236331333Y-92781380D01*
X236569428Y-92781380D01*
X236664666Y-92733761D01*
X236712285Y-92686142D01*
X236759904Y-92590904D01*
X236759904Y-92495666D01*
X236712285Y-92400428D01*
X236664666Y-92352809D01*
X236569428Y-92305190D01*
X236378952Y-92257571D01*
X236283714Y-92209952D01*
X236236095Y-92162333D01*
X236188476Y-92067095D01*
X236188476Y-91971857D01*
X236236095Y-91876619D01*
X236283714Y-91829000D01*
X236378952Y-91781380D01*
X236617047Y-91781380D01*
X236759904Y-91829000D01*
X237093238Y-91781380D02*
X237331333Y-92781380D01*
X237521809Y-92067095D01*
X237712285Y-92781380D01*
X237950380Y-91781380D01*
X238855142Y-92781380D02*
X238283714Y-92781380D01*
X238569428Y-92781380D02*
X238569428Y-91781380D01*
X238474190Y-91924238D01*
X238378952Y-92019476D01*
X238283714Y-92067095D01*
X239474190Y-91781380D02*
X239569428Y-91781380D01*
X239664666Y-91829000D01*
X239712285Y-91876619D01*
X239759904Y-91971857D01*
X239807523Y-92162333D01*
X239807523Y-92400428D01*
X239759904Y-92590904D01*
X239712285Y-92686142D01*
X239664666Y-92733761D01*
X239569428Y-92781380D01*
X239474190Y-92781380D01*
X239378952Y-92733761D01*
X239331333Y-92686142D01*
X239283714Y-92590904D01*
X239236095Y-92400428D01*
X239236095Y-92162333D01*
X239283714Y-91971857D01*
X239331333Y-91876619D01*
X239378952Y-91829000D01*
X239474190Y-91781380D01*
X236664666Y-72667761D02*
X236807523Y-72715380D01*
X237045619Y-72715380D01*
X237140857Y-72667761D01*
X237188476Y-72620142D01*
X237236095Y-72524904D01*
X237236095Y-72429666D01*
X237188476Y-72334428D01*
X237140857Y-72286809D01*
X237045619Y-72239190D01*
X236855142Y-72191571D01*
X236759904Y-72143952D01*
X236712285Y-72096333D01*
X236664666Y-72001095D01*
X236664666Y-71905857D01*
X236712285Y-71810619D01*
X236759904Y-71763000D01*
X236855142Y-71715380D01*
X237093238Y-71715380D01*
X237236095Y-71763000D01*
X237569428Y-71715380D02*
X237807523Y-72715380D01*
X237998000Y-72001095D01*
X238188476Y-72715380D01*
X238426571Y-71715380D01*
X238855142Y-72715380D02*
X239045619Y-72715380D01*
X239140857Y-72667761D01*
X239188476Y-72620142D01*
X239283714Y-72477285D01*
X239331333Y-72286809D01*
X239331333Y-71905857D01*
X239283714Y-71810619D01*
X239236095Y-71763000D01*
X239140857Y-71715380D01*
X238950380Y-71715380D01*
X238855142Y-71763000D01*
X238807523Y-71810619D01*
X238759904Y-71905857D01*
X238759904Y-72143952D01*
X238807523Y-72239190D01*
X238855142Y-72286809D01*
X238950380Y-72334428D01*
X239140857Y-72334428D01*
X239236095Y-72286809D01*
X239283714Y-72239190D01*
X239331333Y-72143952D01*
X236664666Y-52601761D02*
X236807523Y-52649380D01*
X237045619Y-52649380D01*
X237140857Y-52601761D01*
X237188476Y-52554142D01*
X237236095Y-52458904D01*
X237236095Y-52363666D01*
X237188476Y-52268428D01*
X237140857Y-52220809D01*
X237045619Y-52173190D01*
X236855142Y-52125571D01*
X236759904Y-52077952D01*
X236712285Y-52030333D01*
X236664666Y-51935095D01*
X236664666Y-51839857D01*
X236712285Y-51744619D01*
X236759904Y-51697000D01*
X236855142Y-51649380D01*
X237093238Y-51649380D01*
X237236095Y-51697000D01*
X237569428Y-51649380D02*
X237807523Y-52649380D01*
X237998000Y-51935095D01*
X238188476Y-52649380D01*
X238426571Y-51649380D01*
X238950380Y-52077952D02*
X238855142Y-52030333D01*
X238807523Y-51982714D01*
X238759904Y-51887476D01*
X238759904Y-51839857D01*
X238807523Y-51744619D01*
X238855142Y-51697000D01*
X238950380Y-51649380D01*
X239140857Y-51649380D01*
X239236095Y-51697000D01*
X239283714Y-51744619D01*
X239331333Y-51839857D01*
X239331333Y-51887476D01*
X239283714Y-51982714D01*
X239236095Y-52030333D01*
X239140857Y-52077952D01*
X238950380Y-52077952D01*
X238855142Y-52125571D01*
X238807523Y-52173190D01*
X238759904Y-52268428D01*
X238759904Y-52458904D01*
X238807523Y-52554142D01*
X238855142Y-52601761D01*
X238950380Y-52649380D01*
X239140857Y-52649380D01*
X239236095Y-52601761D01*
X239283714Y-52554142D01*
X239331333Y-52458904D01*
X239331333Y-52268428D01*
X239283714Y-52173190D01*
X239236095Y-52125571D01*
X239140857Y-52077952D01*
X256730666Y-112799761D02*
X256873523Y-112847380D01*
X257111619Y-112847380D01*
X257206857Y-112799761D01*
X257254476Y-112752142D01*
X257302095Y-112656904D01*
X257302095Y-112561666D01*
X257254476Y-112466428D01*
X257206857Y-112418809D01*
X257111619Y-112371190D01*
X256921142Y-112323571D01*
X256825904Y-112275952D01*
X256778285Y-112228333D01*
X256730666Y-112133095D01*
X256730666Y-112037857D01*
X256778285Y-111942619D01*
X256825904Y-111895000D01*
X256921142Y-111847380D01*
X257159238Y-111847380D01*
X257302095Y-111895000D01*
X257635428Y-111847380D02*
X257873523Y-112847380D01*
X258064000Y-112133095D01*
X258254476Y-112847380D01*
X258492571Y-111847380D01*
X259302095Y-111847380D02*
X259111619Y-111847380D01*
X259016380Y-111895000D01*
X258968761Y-111942619D01*
X258873523Y-112085476D01*
X258825904Y-112275952D01*
X258825904Y-112656904D01*
X258873523Y-112752142D01*
X258921142Y-112799761D01*
X259016380Y-112847380D01*
X259206857Y-112847380D01*
X259302095Y-112799761D01*
X259349714Y-112752142D01*
X259397333Y-112656904D01*
X259397333Y-112418809D01*
X259349714Y-112323571D01*
X259302095Y-112275952D01*
X259206857Y-112228333D01*
X259016380Y-112228333D01*
X258921142Y-112275952D01*
X258873523Y-112323571D01*
X258825904Y-112418809D01*
X256730666Y-92733761D02*
X256873523Y-92781380D01*
X257111619Y-92781380D01*
X257206857Y-92733761D01*
X257254476Y-92686142D01*
X257302095Y-92590904D01*
X257302095Y-92495666D01*
X257254476Y-92400428D01*
X257206857Y-92352809D01*
X257111619Y-92305190D01*
X256921142Y-92257571D01*
X256825904Y-92209952D01*
X256778285Y-92162333D01*
X256730666Y-92067095D01*
X256730666Y-91971857D01*
X256778285Y-91876619D01*
X256825904Y-91829000D01*
X256921142Y-91781380D01*
X257159238Y-91781380D01*
X257302095Y-91829000D01*
X257635428Y-91781380D02*
X257873523Y-92781380D01*
X258064000Y-92067095D01*
X258254476Y-92781380D01*
X258492571Y-91781380D01*
X259349714Y-91781380D02*
X258873523Y-91781380D01*
X258825904Y-92257571D01*
X258873523Y-92209952D01*
X258968761Y-92162333D01*
X259206857Y-92162333D01*
X259302095Y-92209952D01*
X259349714Y-92257571D01*
X259397333Y-92352809D01*
X259397333Y-92590904D01*
X259349714Y-92686142D01*
X259302095Y-92733761D01*
X259206857Y-92781380D01*
X258968761Y-92781380D01*
X258873523Y-92733761D01*
X258825904Y-92686142D01*
X256730666Y-72667761D02*
X256873523Y-72715380D01*
X257111619Y-72715380D01*
X257206857Y-72667761D01*
X257254476Y-72620142D01*
X257302095Y-72524904D01*
X257302095Y-72429666D01*
X257254476Y-72334428D01*
X257206857Y-72286809D01*
X257111619Y-72239190D01*
X256921142Y-72191571D01*
X256825904Y-72143952D01*
X256778285Y-72096333D01*
X256730666Y-72001095D01*
X256730666Y-71905857D01*
X256778285Y-71810619D01*
X256825904Y-71763000D01*
X256921142Y-71715380D01*
X257159238Y-71715380D01*
X257302095Y-71763000D01*
X257635428Y-71715380D02*
X257873523Y-72715380D01*
X258064000Y-72001095D01*
X258254476Y-72715380D01*
X258492571Y-71715380D01*
X259302095Y-72048714D02*
X259302095Y-72715380D01*
X259064000Y-71667761D02*
X258825904Y-72382047D01*
X259444952Y-72382047D01*
X256730666Y-52601761D02*
X256873523Y-52649380D01*
X257111619Y-52649380D01*
X257206857Y-52601761D01*
X257254476Y-52554142D01*
X257302095Y-52458904D01*
X257302095Y-52363666D01*
X257254476Y-52268428D01*
X257206857Y-52220809D01*
X257111619Y-52173190D01*
X256921142Y-52125571D01*
X256825904Y-52077952D01*
X256778285Y-52030333D01*
X256730666Y-51935095D01*
X256730666Y-51839857D01*
X256778285Y-51744619D01*
X256825904Y-51697000D01*
X256921142Y-51649380D01*
X257159238Y-51649380D01*
X257302095Y-51697000D01*
X257635428Y-51649380D02*
X257873523Y-52649380D01*
X258064000Y-51935095D01*
X258254476Y-52649380D01*
X258492571Y-51649380D01*
X258778285Y-51649380D02*
X259397333Y-51649380D01*
X259064000Y-52030333D01*
X259206857Y-52030333D01*
X259302095Y-52077952D01*
X259349714Y-52125571D01*
X259397333Y-52220809D01*
X259397333Y-52458904D01*
X259349714Y-52554142D01*
X259302095Y-52601761D01*
X259206857Y-52649380D01*
X258921142Y-52649380D01*
X258825904Y-52601761D01*
X258778285Y-52554142D01*
X30670666Y-42314761D02*
X30813523Y-42362380D01*
X31051619Y-42362380D01*
X31146857Y-42314761D01*
X31194476Y-42267142D01*
X31242095Y-42171904D01*
X31242095Y-42076666D01*
X31194476Y-41981428D01*
X31146857Y-41933809D01*
X31051619Y-41886190D01*
X30861142Y-41838571D01*
X30765904Y-41790952D01*
X30718285Y-41743333D01*
X30670666Y-41648095D01*
X30670666Y-41552857D01*
X30718285Y-41457619D01*
X30765904Y-41410000D01*
X30861142Y-41362380D01*
X31099238Y-41362380D01*
X31242095Y-41410000D01*
X31575428Y-41362380D02*
X31813523Y-42362380D01*
X32004000Y-41648095D01*
X32194476Y-42362380D01*
X32432571Y-41362380D01*
X33337333Y-42362380D02*
X32765904Y-42362380D01*
X33051619Y-42362380D02*
X33051619Y-41362380D01*
X32956380Y-41505238D01*
X32861142Y-41600476D01*
X32765904Y-41648095D01*
X61047333Y-49220380D02*
X60714000Y-48744190D01*
X60475904Y-49220380D02*
X60475904Y-48220380D01*
X60856857Y-48220380D01*
X60952095Y-48268000D01*
X60999714Y-48315619D01*
X61047333Y-48410857D01*
X61047333Y-48553714D01*
X60999714Y-48648952D01*
X60952095Y-48696571D01*
X60856857Y-48744190D01*
X60475904Y-48744190D01*
X61904476Y-48553714D02*
X61904476Y-49220380D01*
X61666380Y-48172761D02*
X61428285Y-48887047D01*
X62047333Y-48887047D01*
X39203333Y-38044380D02*
X38870000Y-37568190D01*
X38631904Y-38044380D02*
X38631904Y-37044380D01*
X39012857Y-37044380D01*
X39108095Y-37092000D01*
X39155714Y-37139619D01*
X39203333Y-37234857D01*
X39203333Y-37377714D01*
X39155714Y-37472952D01*
X39108095Y-37520571D01*
X39012857Y-37568190D01*
X38631904Y-37568190D01*
X39536666Y-37044380D02*
X40155714Y-37044380D01*
X39822380Y-37425333D01*
X39965238Y-37425333D01*
X40060476Y-37472952D01*
X40108095Y-37520571D01*
X40155714Y-37615809D01*
X40155714Y-37853904D01*
X40108095Y-37949142D01*
X40060476Y-37996761D01*
X39965238Y-38044380D01*
X39679523Y-38044380D01*
X39584285Y-37996761D01*
X39536666Y-37949142D01*
X39203333Y-39822380D02*
X38870000Y-39346190D01*
X38631904Y-39822380D02*
X38631904Y-38822380D01*
X39012857Y-38822380D01*
X39108095Y-38870000D01*
X39155714Y-38917619D01*
X39203333Y-39012857D01*
X39203333Y-39155714D01*
X39155714Y-39250952D01*
X39108095Y-39298571D01*
X39012857Y-39346190D01*
X38631904Y-39346190D01*
X39584285Y-38917619D02*
X39631904Y-38870000D01*
X39727142Y-38822380D01*
X39965238Y-38822380D01*
X40060476Y-38870000D01*
X40108095Y-38917619D01*
X40155714Y-39012857D01*
X40155714Y-39108095D01*
X40108095Y-39250952D01*
X39536666Y-39822380D01*
X40155714Y-39822380D01*
X34377333Y-45664380D02*
X34044000Y-45188190D01*
X33805904Y-45664380D02*
X33805904Y-44664380D01*
X34186857Y-44664380D01*
X34282095Y-44712000D01*
X34329714Y-44759619D01*
X34377333Y-44854857D01*
X34377333Y-44997714D01*
X34329714Y-45092952D01*
X34282095Y-45140571D01*
X34186857Y-45188190D01*
X33805904Y-45188190D01*
X35329714Y-45664380D02*
X34758285Y-45664380D01*
X35044000Y-45664380D02*
X35044000Y-44664380D01*
X34948761Y-44807238D01*
X34853523Y-44902476D01*
X34758285Y-44950095D01*
X36123714Y-110346380D02*
X36123714Y-109346380D01*
X36361809Y-109346380D01*
X36504666Y-109394000D01*
X36599904Y-109489238D01*
X36647523Y-109584476D01*
X36695142Y-109774952D01*
X36695142Y-109917809D01*
X36647523Y-110108285D01*
X36599904Y-110203523D01*
X36504666Y-110298761D01*
X36361809Y-110346380D01*
X36123714Y-110346380D01*
X37599904Y-109346380D02*
X37123714Y-109346380D01*
X37076095Y-109822571D01*
X37123714Y-109774952D01*
X37218952Y-109727333D01*
X37457047Y-109727333D01*
X37552285Y-109774952D01*
X37599904Y-109822571D01*
X37647523Y-109917809D01*
X37647523Y-110155904D01*
X37599904Y-110251142D01*
X37552285Y-110298761D01*
X37457047Y-110346380D01*
X37218952Y-110346380D01*
X37123714Y-110298761D01*
X37076095Y-110251142D01*
X38123714Y-110346380D02*
X38314190Y-110346380D01*
X38409428Y-110298761D01*
X38457047Y-110251142D01*
X38552285Y-110108285D01*
X38599904Y-109917809D01*
X38599904Y-109536857D01*
X38552285Y-109441619D01*
X38504666Y-109394000D01*
X38409428Y-109346380D01*
X38218952Y-109346380D01*
X38123714Y-109394000D01*
X38076095Y-109441619D01*
X38028476Y-109536857D01*
X38028476Y-109774952D01*
X38076095Y-109870190D01*
X38123714Y-109917809D01*
X38218952Y-109965428D01*
X38409428Y-109965428D01*
X38504666Y-109917809D01*
X38552285Y-109870190D01*
X38599904Y-109774952D01*
X33266095Y-110666380D02*
X33266095Y-109666380D01*
X33837523Y-110666380D02*
X33408952Y-110094952D01*
X33837523Y-109666380D02*
X33266095Y-110237809D01*
X36123714Y-107552380D02*
X36123714Y-106552380D01*
X36361809Y-106552380D01*
X36504666Y-106600000D01*
X36599904Y-106695238D01*
X36647523Y-106790476D01*
X36695142Y-106980952D01*
X36695142Y-107123809D01*
X36647523Y-107314285D01*
X36599904Y-107409523D01*
X36504666Y-107504761D01*
X36361809Y-107552380D01*
X36123714Y-107552380D01*
X37599904Y-106552380D02*
X37123714Y-106552380D01*
X37076095Y-107028571D01*
X37123714Y-106980952D01*
X37218952Y-106933333D01*
X37457047Y-106933333D01*
X37552285Y-106980952D01*
X37599904Y-107028571D01*
X37647523Y-107123809D01*
X37647523Y-107361904D01*
X37599904Y-107457142D01*
X37552285Y-107504761D01*
X37457047Y-107552380D01*
X37218952Y-107552380D01*
X37123714Y-107504761D01*
X37076095Y-107457142D01*
X38218952Y-106980952D02*
X38123714Y-106933333D01*
X38076095Y-106885714D01*
X38028476Y-106790476D01*
X38028476Y-106742857D01*
X38076095Y-106647619D01*
X38123714Y-106600000D01*
X38218952Y-106552380D01*
X38409428Y-106552380D01*
X38504666Y-106600000D01*
X38552285Y-106647619D01*
X38599904Y-106742857D01*
X38599904Y-106790476D01*
X38552285Y-106885714D01*
X38504666Y-106933333D01*
X38409428Y-106980952D01*
X38218952Y-106980952D01*
X38123714Y-107028571D01*
X38076095Y-107076190D01*
X38028476Y-107171428D01*
X38028476Y-107361904D01*
X38076095Y-107457142D01*
X38123714Y-107504761D01*
X38218952Y-107552380D01*
X38409428Y-107552380D01*
X38504666Y-107504761D01*
X38552285Y-107457142D01*
X38599904Y-107361904D01*
X38599904Y-107171428D01*
X38552285Y-107076190D01*
X38504666Y-107028571D01*
X38409428Y-106980952D01*
X33266095Y-107872380D02*
X33266095Y-106872380D01*
X33837523Y-107872380D02*
X33408952Y-107300952D01*
X33837523Y-106872380D02*
X33266095Y-107443809D01*
X36123714Y-70214380D02*
X36123714Y-69214380D01*
X36361809Y-69214380D01*
X36504666Y-69262000D01*
X36599904Y-69357238D01*
X36647523Y-69452476D01*
X36695142Y-69642952D01*
X36695142Y-69785809D01*
X36647523Y-69976285D01*
X36599904Y-70071523D01*
X36504666Y-70166761D01*
X36361809Y-70214380D01*
X36123714Y-70214380D01*
X37599904Y-69214380D02*
X37123714Y-69214380D01*
X37076095Y-69690571D01*
X37123714Y-69642952D01*
X37218952Y-69595333D01*
X37457047Y-69595333D01*
X37552285Y-69642952D01*
X37599904Y-69690571D01*
X37647523Y-69785809D01*
X37647523Y-70023904D01*
X37599904Y-70119142D01*
X37552285Y-70166761D01*
X37457047Y-70214380D01*
X37218952Y-70214380D01*
X37123714Y-70166761D01*
X37076095Y-70119142D01*
X37980857Y-69214380D02*
X38647523Y-69214380D01*
X38218952Y-70214380D01*
X33266095Y-70534380D02*
X33266095Y-69534380D01*
X33837523Y-70534380D02*
X33408952Y-69962952D01*
X33837523Y-69534380D02*
X33266095Y-70105809D01*
X36123714Y-67420380D02*
X36123714Y-66420380D01*
X36361809Y-66420380D01*
X36504666Y-66468000D01*
X36599904Y-66563238D01*
X36647523Y-66658476D01*
X36695142Y-66848952D01*
X36695142Y-66991809D01*
X36647523Y-67182285D01*
X36599904Y-67277523D01*
X36504666Y-67372761D01*
X36361809Y-67420380D01*
X36123714Y-67420380D01*
X37599904Y-66420380D02*
X37123714Y-66420380D01*
X37076095Y-66896571D01*
X37123714Y-66848952D01*
X37218952Y-66801333D01*
X37457047Y-66801333D01*
X37552285Y-66848952D01*
X37599904Y-66896571D01*
X37647523Y-66991809D01*
X37647523Y-67229904D01*
X37599904Y-67325142D01*
X37552285Y-67372761D01*
X37457047Y-67420380D01*
X37218952Y-67420380D01*
X37123714Y-67372761D01*
X37076095Y-67325142D01*
X38504666Y-66420380D02*
X38314190Y-66420380D01*
X38218952Y-66468000D01*
X38171333Y-66515619D01*
X38076095Y-66658476D01*
X38028476Y-66848952D01*
X38028476Y-67229904D01*
X38076095Y-67325142D01*
X38123714Y-67372761D01*
X38218952Y-67420380D01*
X38409428Y-67420380D01*
X38504666Y-67372761D01*
X38552285Y-67325142D01*
X38599904Y-67229904D01*
X38599904Y-66991809D01*
X38552285Y-66896571D01*
X38504666Y-66848952D01*
X38409428Y-66801333D01*
X38218952Y-66801333D01*
X38123714Y-66848952D01*
X38076095Y-66896571D01*
X38028476Y-66991809D01*
X33266095Y-67740380D02*
X33266095Y-66740380D01*
X33837523Y-67740380D02*
X33408952Y-67168952D01*
X33837523Y-66740380D02*
X33266095Y-67311809D01*
X56189714Y-110346380D02*
X56189714Y-109346380D01*
X56427809Y-109346380D01*
X56570666Y-109394000D01*
X56665904Y-109489238D01*
X56713523Y-109584476D01*
X56761142Y-109774952D01*
X56761142Y-109917809D01*
X56713523Y-110108285D01*
X56665904Y-110203523D01*
X56570666Y-110298761D01*
X56427809Y-110346380D01*
X56189714Y-110346380D01*
X57665904Y-109346380D02*
X57189714Y-109346380D01*
X57142095Y-109822571D01*
X57189714Y-109774952D01*
X57284952Y-109727333D01*
X57523047Y-109727333D01*
X57618285Y-109774952D01*
X57665904Y-109822571D01*
X57713523Y-109917809D01*
X57713523Y-110155904D01*
X57665904Y-110251142D01*
X57618285Y-110298761D01*
X57523047Y-110346380D01*
X57284952Y-110346380D01*
X57189714Y-110298761D01*
X57142095Y-110251142D01*
X58570666Y-109679714D02*
X58570666Y-110346380D01*
X58332571Y-109298761D02*
X58094476Y-110013047D01*
X58713523Y-110013047D01*
X53332095Y-110666380D02*
X53332095Y-109666380D01*
X53903523Y-110666380D02*
X53474952Y-110094952D01*
X53903523Y-109666380D02*
X53332095Y-110237809D01*
X56189714Y-107552380D02*
X56189714Y-106552380D01*
X56427809Y-106552380D01*
X56570666Y-106600000D01*
X56665904Y-106695238D01*
X56713523Y-106790476D01*
X56761142Y-106980952D01*
X56761142Y-107123809D01*
X56713523Y-107314285D01*
X56665904Y-107409523D01*
X56570666Y-107504761D01*
X56427809Y-107552380D01*
X56189714Y-107552380D01*
X57665904Y-106552380D02*
X57189714Y-106552380D01*
X57142095Y-107028571D01*
X57189714Y-106980952D01*
X57284952Y-106933333D01*
X57523047Y-106933333D01*
X57618285Y-106980952D01*
X57665904Y-107028571D01*
X57713523Y-107123809D01*
X57713523Y-107361904D01*
X57665904Y-107457142D01*
X57618285Y-107504761D01*
X57523047Y-107552380D01*
X57284952Y-107552380D01*
X57189714Y-107504761D01*
X57142095Y-107457142D01*
X58046857Y-106552380D02*
X58665904Y-106552380D01*
X58332571Y-106933333D01*
X58475428Y-106933333D01*
X58570666Y-106980952D01*
X58618285Y-107028571D01*
X58665904Y-107123809D01*
X58665904Y-107361904D01*
X58618285Y-107457142D01*
X58570666Y-107504761D01*
X58475428Y-107552380D01*
X58189714Y-107552380D01*
X58094476Y-107504761D01*
X58046857Y-107457142D01*
X53332095Y-107872380D02*
X53332095Y-106872380D01*
X53903523Y-107872380D02*
X53474952Y-107300952D01*
X53903523Y-106872380D02*
X53332095Y-107443809D01*
X56189714Y-70214380D02*
X56189714Y-69214380D01*
X56427809Y-69214380D01*
X56570666Y-69262000D01*
X56665904Y-69357238D01*
X56713523Y-69452476D01*
X56761142Y-69642952D01*
X56761142Y-69785809D01*
X56713523Y-69976285D01*
X56665904Y-70071523D01*
X56570666Y-70166761D01*
X56427809Y-70214380D01*
X56189714Y-70214380D01*
X57665904Y-69214380D02*
X57189714Y-69214380D01*
X57142095Y-69690571D01*
X57189714Y-69642952D01*
X57284952Y-69595333D01*
X57523047Y-69595333D01*
X57618285Y-69642952D01*
X57665904Y-69690571D01*
X57713523Y-69785809D01*
X57713523Y-70023904D01*
X57665904Y-70119142D01*
X57618285Y-70166761D01*
X57523047Y-70214380D01*
X57284952Y-70214380D01*
X57189714Y-70166761D01*
X57142095Y-70119142D01*
X58094476Y-69309619D02*
X58142095Y-69262000D01*
X58237333Y-69214380D01*
X58475428Y-69214380D01*
X58570666Y-69262000D01*
X58618285Y-69309619D01*
X58665904Y-69404857D01*
X58665904Y-69500095D01*
X58618285Y-69642952D01*
X58046857Y-70214380D01*
X58665904Y-70214380D01*
X53332095Y-70534380D02*
X53332095Y-69534380D01*
X53903523Y-70534380D02*
X53474952Y-69962952D01*
X53903523Y-69534380D02*
X53332095Y-70105809D01*
X56189714Y-67420380D02*
X56189714Y-66420380D01*
X56427809Y-66420380D01*
X56570666Y-66468000D01*
X56665904Y-66563238D01*
X56713523Y-66658476D01*
X56761142Y-66848952D01*
X56761142Y-66991809D01*
X56713523Y-67182285D01*
X56665904Y-67277523D01*
X56570666Y-67372761D01*
X56427809Y-67420380D01*
X56189714Y-67420380D01*
X57665904Y-66420380D02*
X57189714Y-66420380D01*
X57142095Y-66896571D01*
X57189714Y-66848952D01*
X57284952Y-66801333D01*
X57523047Y-66801333D01*
X57618285Y-66848952D01*
X57665904Y-66896571D01*
X57713523Y-66991809D01*
X57713523Y-67229904D01*
X57665904Y-67325142D01*
X57618285Y-67372761D01*
X57523047Y-67420380D01*
X57284952Y-67420380D01*
X57189714Y-67372761D01*
X57142095Y-67325142D01*
X58665904Y-67420380D02*
X58094476Y-67420380D01*
X58380190Y-67420380D02*
X58380190Y-66420380D01*
X58284952Y-66563238D01*
X58189714Y-66658476D01*
X58094476Y-66706095D01*
X53332095Y-67740380D02*
X53332095Y-66740380D01*
X53903523Y-67740380D02*
X53474952Y-67168952D01*
X53903523Y-66740380D02*
X53332095Y-67311809D01*
X76255714Y-110346380D02*
X76255714Y-109346380D01*
X76493809Y-109346380D01*
X76636666Y-109394000D01*
X76731904Y-109489238D01*
X76779523Y-109584476D01*
X76827142Y-109774952D01*
X76827142Y-109917809D01*
X76779523Y-110108285D01*
X76731904Y-110203523D01*
X76636666Y-110298761D01*
X76493809Y-110346380D01*
X76255714Y-110346380D01*
X77684285Y-109679714D02*
X77684285Y-110346380D01*
X77446190Y-109298761D02*
X77208095Y-110013047D01*
X77827142Y-110013047D01*
X78255714Y-110346380D02*
X78446190Y-110346380D01*
X78541428Y-110298761D01*
X78589047Y-110251142D01*
X78684285Y-110108285D01*
X78731904Y-109917809D01*
X78731904Y-109536857D01*
X78684285Y-109441619D01*
X78636666Y-109394000D01*
X78541428Y-109346380D01*
X78350952Y-109346380D01*
X78255714Y-109394000D01*
X78208095Y-109441619D01*
X78160476Y-109536857D01*
X78160476Y-109774952D01*
X78208095Y-109870190D01*
X78255714Y-109917809D01*
X78350952Y-109965428D01*
X78541428Y-109965428D01*
X78636666Y-109917809D01*
X78684285Y-109870190D01*
X78731904Y-109774952D01*
X73398095Y-110666380D02*
X73398095Y-109666380D01*
X73969523Y-110666380D02*
X73540952Y-110094952D01*
X73969523Y-109666380D02*
X73398095Y-110237809D01*
X76255714Y-107552380D02*
X76255714Y-106552380D01*
X76493809Y-106552380D01*
X76636666Y-106600000D01*
X76731904Y-106695238D01*
X76779523Y-106790476D01*
X76827142Y-106980952D01*
X76827142Y-107123809D01*
X76779523Y-107314285D01*
X76731904Y-107409523D01*
X76636666Y-107504761D01*
X76493809Y-107552380D01*
X76255714Y-107552380D01*
X77684285Y-106885714D02*
X77684285Y-107552380D01*
X77446190Y-106504761D02*
X77208095Y-107219047D01*
X77827142Y-107219047D01*
X78350952Y-106980952D02*
X78255714Y-106933333D01*
X78208095Y-106885714D01*
X78160476Y-106790476D01*
X78160476Y-106742857D01*
X78208095Y-106647619D01*
X78255714Y-106600000D01*
X78350952Y-106552380D01*
X78541428Y-106552380D01*
X78636666Y-106600000D01*
X78684285Y-106647619D01*
X78731904Y-106742857D01*
X78731904Y-106790476D01*
X78684285Y-106885714D01*
X78636666Y-106933333D01*
X78541428Y-106980952D01*
X78350952Y-106980952D01*
X78255714Y-107028571D01*
X78208095Y-107076190D01*
X78160476Y-107171428D01*
X78160476Y-107361904D01*
X78208095Y-107457142D01*
X78255714Y-107504761D01*
X78350952Y-107552380D01*
X78541428Y-107552380D01*
X78636666Y-107504761D01*
X78684285Y-107457142D01*
X78731904Y-107361904D01*
X78731904Y-107171428D01*
X78684285Y-107076190D01*
X78636666Y-107028571D01*
X78541428Y-106980952D01*
X73398095Y-107872380D02*
X73398095Y-106872380D01*
X73969523Y-107872380D02*
X73540952Y-107300952D01*
X73969523Y-106872380D02*
X73398095Y-107443809D01*
X76255714Y-70214380D02*
X76255714Y-69214380D01*
X76493809Y-69214380D01*
X76636666Y-69262000D01*
X76731904Y-69357238D01*
X76779523Y-69452476D01*
X76827142Y-69642952D01*
X76827142Y-69785809D01*
X76779523Y-69976285D01*
X76731904Y-70071523D01*
X76636666Y-70166761D01*
X76493809Y-70214380D01*
X76255714Y-70214380D01*
X77684285Y-69547714D02*
X77684285Y-70214380D01*
X77446190Y-69166761D02*
X77208095Y-69881047D01*
X77827142Y-69881047D01*
X78112857Y-69214380D02*
X78779523Y-69214380D01*
X78350952Y-70214380D01*
X73398095Y-70534380D02*
X73398095Y-69534380D01*
X73969523Y-70534380D02*
X73540952Y-69962952D01*
X73969523Y-69534380D02*
X73398095Y-70105809D01*
X76255714Y-67420380D02*
X76255714Y-66420380D01*
X76493809Y-66420380D01*
X76636666Y-66468000D01*
X76731904Y-66563238D01*
X76779523Y-66658476D01*
X76827142Y-66848952D01*
X76827142Y-66991809D01*
X76779523Y-67182285D01*
X76731904Y-67277523D01*
X76636666Y-67372761D01*
X76493809Y-67420380D01*
X76255714Y-67420380D01*
X77684285Y-66753714D02*
X77684285Y-67420380D01*
X77446190Y-66372761D02*
X77208095Y-67087047D01*
X77827142Y-67087047D01*
X78636666Y-66420380D02*
X78446190Y-66420380D01*
X78350952Y-66468000D01*
X78303333Y-66515619D01*
X78208095Y-66658476D01*
X78160476Y-66848952D01*
X78160476Y-67229904D01*
X78208095Y-67325142D01*
X78255714Y-67372761D01*
X78350952Y-67420380D01*
X78541428Y-67420380D01*
X78636666Y-67372761D01*
X78684285Y-67325142D01*
X78731904Y-67229904D01*
X78731904Y-66991809D01*
X78684285Y-66896571D01*
X78636666Y-66848952D01*
X78541428Y-66801333D01*
X78350952Y-66801333D01*
X78255714Y-66848952D01*
X78208095Y-66896571D01*
X78160476Y-66991809D01*
X73398095Y-67740380D02*
X73398095Y-66740380D01*
X73969523Y-67740380D02*
X73540952Y-67168952D01*
X73969523Y-66740380D02*
X73398095Y-67311809D01*
X96321714Y-110346380D02*
X96321714Y-109346380D01*
X96559809Y-109346380D01*
X96702666Y-109394000D01*
X96797904Y-109489238D01*
X96845523Y-109584476D01*
X96893142Y-109774952D01*
X96893142Y-109917809D01*
X96845523Y-110108285D01*
X96797904Y-110203523D01*
X96702666Y-110298761D01*
X96559809Y-110346380D01*
X96321714Y-110346380D01*
X97750285Y-109679714D02*
X97750285Y-110346380D01*
X97512190Y-109298761D02*
X97274095Y-110013047D01*
X97893142Y-110013047D01*
X98702666Y-109679714D02*
X98702666Y-110346380D01*
X98464571Y-109298761D02*
X98226476Y-110013047D01*
X98845523Y-110013047D01*
X93464095Y-110666380D02*
X93464095Y-109666380D01*
X94035523Y-110666380D02*
X93606952Y-110094952D01*
X94035523Y-109666380D02*
X93464095Y-110237809D01*
X96321714Y-107552380D02*
X96321714Y-106552380D01*
X96559809Y-106552380D01*
X96702666Y-106600000D01*
X96797904Y-106695238D01*
X96845523Y-106790476D01*
X96893142Y-106980952D01*
X96893142Y-107123809D01*
X96845523Y-107314285D01*
X96797904Y-107409523D01*
X96702666Y-107504761D01*
X96559809Y-107552380D01*
X96321714Y-107552380D01*
X97750285Y-106885714D02*
X97750285Y-107552380D01*
X97512190Y-106504761D02*
X97274095Y-107219047D01*
X97893142Y-107219047D01*
X98178857Y-106552380D02*
X98797904Y-106552380D01*
X98464571Y-106933333D01*
X98607428Y-106933333D01*
X98702666Y-106980952D01*
X98750285Y-107028571D01*
X98797904Y-107123809D01*
X98797904Y-107361904D01*
X98750285Y-107457142D01*
X98702666Y-107504761D01*
X98607428Y-107552380D01*
X98321714Y-107552380D01*
X98226476Y-107504761D01*
X98178857Y-107457142D01*
X93464095Y-107872380D02*
X93464095Y-106872380D01*
X94035523Y-107872380D02*
X93606952Y-107300952D01*
X94035523Y-106872380D02*
X93464095Y-107443809D01*
X96321714Y-70214380D02*
X96321714Y-69214380D01*
X96559809Y-69214380D01*
X96702666Y-69262000D01*
X96797904Y-69357238D01*
X96845523Y-69452476D01*
X96893142Y-69642952D01*
X96893142Y-69785809D01*
X96845523Y-69976285D01*
X96797904Y-70071523D01*
X96702666Y-70166761D01*
X96559809Y-70214380D01*
X96321714Y-70214380D01*
X97750285Y-69547714D02*
X97750285Y-70214380D01*
X97512190Y-69166761D02*
X97274095Y-69881047D01*
X97893142Y-69881047D01*
X98226476Y-69309619D02*
X98274095Y-69262000D01*
X98369333Y-69214380D01*
X98607428Y-69214380D01*
X98702666Y-69262000D01*
X98750285Y-69309619D01*
X98797904Y-69404857D01*
X98797904Y-69500095D01*
X98750285Y-69642952D01*
X98178857Y-70214380D01*
X98797904Y-70214380D01*
X93464095Y-70534380D02*
X93464095Y-69534380D01*
X94035523Y-70534380D02*
X93606952Y-69962952D01*
X94035523Y-69534380D02*
X93464095Y-70105809D01*
X96321714Y-67420380D02*
X96321714Y-66420380D01*
X96559809Y-66420380D01*
X96702666Y-66468000D01*
X96797904Y-66563238D01*
X96845523Y-66658476D01*
X96893142Y-66848952D01*
X96893142Y-66991809D01*
X96845523Y-67182285D01*
X96797904Y-67277523D01*
X96702666Y-67372761D01*
X96559809Y-67420380D01*
X96321714Y-67420380D01*
X97750285Y-66753714D02*
X97750285Y-67420380D01*
X97512190Y-66372761D02*
X97274095Y-67087047D01*
X97893142Y-67087047D01*
X98797904Y-67420380D02*
X98226476Y-67420380D01*
X98512190Y-67420380D02*
X98512190Y-66420380D01*
X98416952Y-66563238D01*
X98321714Y-66658476D01*
X98226476Y-66706095D01*
X93464095Y-67740380D02*
X93464095Y-66740380D01*
X94035523Y-67740380D02*
X93606952Y-67168952D01*
X94035523Y-66740380D02*
X93464095Y-67311809D01*
X116387714Y-110346380D02*
X116387714Y-109346380D01*
X116625809Y-109346380D01*
X116768666Y-109394000D01*
X116863904Y-109489238D01*
X116911523Y-109584476D01*
X116959142Y-109774952D01*
X116959142Y-109917809D01*
X116911523Y-110108285D01*
X116863904Y-110203523D01*
X116768666Y-110298761D01*
X116625809Y-110346380D01*
X116387714Y-110346380D01*
X117292476Y-109346380D02*
X117911523Y-109346380D01*
X117578190Y-109727333D01*
X117721047Y-109727333D01*
X117816285Y-109774952D01*
X117863904Y-109822571D01*
X117911523Y-109917809D01*
X117911523Y-110155904D01*
X117863904Y-110251142D01*
X117816285Y-110298761D01*
X117721047Y-110346380D01*
X117435333Y-110346380D01*
X117340095Y-110298761D01*
X117292476Y-110251142D01*
X118387714Y-110346380D02*
X118578190Y-110346380D01*
X118673428Y-110298761D01*
X118721047Y-110251142D01*
X118816285Y-110108285D01*
X118863904Y-109917809D01*
X118863904Y-109536857D01*
X118816285Y-109441619D01*
X118768666Y-109394000D01*
X118673428Y-109346380D01*
X118482952Y-109346380D01*
X118387714Y-109394000D01*
X118340095Y-109441619D01*
X118292476Y-109536857D01*
X118292476Y-109774952D01*
X118340095Y-109870190D01*
X118387714Y-109917809D01*
X118482952Y-109965428D01*
X118673428Y-109965428D01*
X118768666Y-109917809D01*
X118816285Y-109870190D01*
X118863904Y-109774952D01*
X113530095Y-110666380D02*
X113530095Y-109666380D01*
X114101523Y-110666380D02*
X113672952Y-110094952D01*
X114101523Y-109666380D02*
X113530095Y-110237809D01*
X116387714Y-107552380D02*
X116387714Y-106552380D01*
X116625809Y-106552380D01*
X116768666Y-106600000D01*
X116863904Y-106695238D01*
X116911523Y-106790476D01*
X116959142Y-106980952D01*
X116959142Y-107123809D01*
X116911523Y-107314285D01*
X116863904Y-107409523D01*
X116768666Y-107504761D01*
X116625809Y-107552380D01*
X116387714Y-107552380D01*
X117292476Y-106552380D02*
X117911523Y-106552380D01*
X117578190Y-106933333D01*
X117721047Y-106933333D01*
X117816285Y-106980952D01*
X117863904Y-107028571D01*
X117911523Y-107123809D01*
X117911523Y-107361904D01*
X117863904Y-107457142D01*
X117816285Y-107504761D01*
X117721047Y-107552380D01*
X117435333Y-107552380D01*
X117340095Y-107504761D01*
X117292476Y-107457142D01*
X118482952Y-106980952D02*
X118387714Y-106933333D01*
X118340095Y-106885714D01*
X118292476Y-106790476D01*
X118292476Y-106742857D01*
X118340095Y-106647619D01*
X118387714Y-106600000D01*
X118482952Y-106552380D01*
X118673428Y-106552380D01*
X118768666Y-106600000D01*
X118816285Y-106647619D01*
X118863904Y-106742857D01*
X118863904Y-106790476D01*
X118816285Y-106885714D01*
X118768666Y-106933333D01*
X118673428Y-106980952D01*
X118482952Y-106980952D01*
X118387714Y-107028571D01*
X118340095Y-107076190D01*
X118292476Y-107171428D01*
X118292476Y-107361904D01*
X118340095Y-107457142D01*
X118387714Y-107504761D01*
X118482952Y-107552380D01*
X118673428Y-107552380D01*
X118768666Y-107504761D01*
X118816285Y-107457142D01*
X118863904Y-107361904D01*
X118863904Y-107171428D01*
X118816285Y-107076190D01*
X118768666Y-107028571D01*
X118673428Y-106980952D01*
X113530095Y-107872380D02*
X113530095Y-106872380D01*
X114101523Y-107872380D02*
X113672952Y-107300952D01*
X114101523Y-106872380D02*
X113530095Y-107443809D01*
X116387714Y-70214380D02*
X116387714Y-69214380D01*
X116625809Y-69214380D01*
X116768666Y-69262000D01*
X116863904Y-69357238D01*
X116911523Y-69452476D01*
X116959142Y-69642952D01*
X116959142Y-69785809D01*
X116911523Y-69976285D01*
X116863904Y-70071523D01*
X116768666Y-70166761D01*
X116625809Y-70214380D01*
X116387714Y-70214380D01*
X117292476Y-69214380D02*
X117911523Y-69214380D01*
X117578190Y-69595333D01*
X117721047Y-69595333D01*
X117816285Y-69642952D01*
X117863904Y-69690571D01*
X117911523Y-69785809D01*
X117911523Y-70023904D01*
X117863904Y-70119142D01*
X117816285Y-70166761D01*
X117721047Y-70214380D01*
X117435333Y-70214380D01*
X117340095Y-70166761D01*
X117292476Y-70119142D01*
X118244857Y-69214380D02*
X118911523Y-69214380D01*
X118482952Y-70214380D01*
X113530095Y-70534380D02*
X113530095Y-69534380D01*
X114101523Y-70534380D02*
X113672952Y-69962952D01*
X114101523Y-69534380D02*
X113530095Y-70105809D01*
X116387714Y-67420380D02*
X116387714Y-66420380D01*
X116625809Y-66420380D01*
X116768666Y-66468000D01*
X116863904Y-66563238D01*
X116911523Y-66658476D01*
X116959142Y-66848952D01*
X116959142Y-66991809D01*
X116911523Y-67182285D01*
X116863904Y-67277523D01*
X116768666Y-67372761D01*
X116625809Y-67420380D01*
X116387714Y-67420380D01*
X117292476Y-66420380D02*
X117911523Y-66420380D01*
X117578190Y-66801333D01*
X117721047Y-66801333D01*
X117816285Y-66848952D01*
X117863904Y-66896571D01*
X117911523Y-66991809D01*
X117911523Y-67229904D01*
X117863904Y-67325142D01*
X117816285Y-67372761D01*
X117721047Y-67420380D01*
X117435333Y-67420380D01*
X117340095Y-67372761D01*
X117292476Y-67325142D01*
X118768666Y-66420380D02*
X118578190Y-66420380D01*
X118482952Y-66468000D01*
X118435333Y-66515619D01*
X118340095Y-66658476D01*
X118292476Y-66848952D01*
X118292476Y-67229904D01*
X118340095Y-67325142D01*
X118387714Y-67372761D01*
X118482952Y-67420380D01*
X118673428Y-67420380D01*
X118768666Y-67372761D01*
X118816285Y-67325142D01*
X118863904Y-67229904D01*
X118863904Y-66991809D01*
X118816285Y-66896571D01*
X118768666Y-66848952D01*
X118673428Y-66801333D01*
X118482952Y-66801333D01*
X118387714Y-66848952D01*
X118340095Y-66896571D01*
X118292476Y-66991809D01*
X113530095Y-67740380D02*
X113530095Y-66740380D01*
X114101523Y-67740380D02*
X113672952Y-67168952D01*
X114101523Y-66740380D02*
X113530095Y-67311809D01*
X136453714Y-107552380D02*
X136453714Y-106552380D01*
X136691809Y-106552380D01*
X136834666Y-106600000D01*
X136929904Y-106695238D01*
X136977523Y-106790476D01*
X137025142Y-106980952D01*
X137025142Y-107123809D01*
X136977523Y-107314285D01*
X136929904Y-107409523D01*
X136834666Y-107504761D01*
X136691809Y-107552380D01*
X136453714Y-107552380D01*
X137358476Y-106552380D02*
X137977523Y-106552380D01*
X137644190Y-106933333D01*
X137787047Y-106933333D01*
X137882285Y-106980952D01*
X137929904Y-107028571D01*
X137977523Y-107123809D01*
X137977523Y-107361904D01*
X137929904Y-107457142D01*
X137882285Y-107504761D01*
X137787047Y-107552380D01*
X137501333Y-107552380D01*
X137406095Y-107504761D01*
X137358476Y-107457142D01*
X138834666Y-106885714D02*
X138834666Y-107552380D01*
X138596571Y-106504761D02*
X138358476Y-107219047D01*
X138977523Y-107219047D01*
X133596095Y-107872380D02*
X133596095Y-106872380D01*
X134167523Y-107872380D02*
X133738952Y-107300952D01*
X134167523Y-106872380D02*
X133596095Y-107443809D01*
X136453714Y-70214380D02*
X136453714Y-69214380D01*
X136691809Y-69214380D01*
X136834666Y-69262000D01*
X136929904Y-69357238D01*
X136977523Y-69452476D01*
X137025142Y-69642952D01*
X137025142Y-69785809D01*
X136977523Y-69976285D01*
X136929904Y-70071523D01*
X136834666Y-70166761D01*
X136691809Y-70214380D01*
X136453714Y-70214380D01*
X137358476Y-69214380D02*
X137977523Y-69214380D01*
X137644190Y-69595333D01*
X137787047Y-69595333D01*
X137882285Y-69642952D01*
X137929904Y-69690571D01*
X137977523Y-69785809D01*
X137977523Y-70023904D01*
X137929904Y-70119142D01*
X137882285Y-70166761D01*
X137787047Y-70214380D01*
X137501333Y-70214380D01*
X137406095Y-70166761D01*
X137358476Y-70119142D01*
X138310857Y-69214380D02*
X138929904Y-69214380D01*
X138596571Y-69595333D01*
X138739428Y-69595333D01*
X138834666Y-69642952D01*
X138882285Y-69690571D01*
X138929904Y-69785809D01*
X138929904Y-70023904D01*
X138882285Y-70119142D01*
X138834666Y-70166761D01*
X138739428Y-70214380D01*
X138453714Y-70214380D01*
X138358476Y-70166761D01*
X138310857Y-70119142D01*
X133596095Y-70534380D02*
X133596095Y-69534380D01*
X134167523Y-70534380D02*
X133738952Y-69962952D01*
X134167523Y-69534380D02*
X133596095Y-70105809D01*
X156519714Y-110346380D02*
X156519714Y-109346380D01*
X156757809Y-109346380D01*
X156900666Y-109394000D01*
X156995904Y-109489238D01*
X157043523Y-109584476D01*
X157091142Y-109774952D01*
X157091142Y-109917809D01*
X157043523Y-110108285D01*
X156995904Y-110203523D01*
X156900666Y-110298761D01*
X156757809Y-110346380D01*
X156519714Y-110346380D01*
X157424476Y-109346380D02*
X158043523Y-109346380D01*
X157710190Y-109727333D01*
X157853047Y-109727333D01*
X157948285Y-109774952D01*
X157995904Y-109822571D01*
X158043523Y-109917809D01*
X158043523Y-110155904D01*
X157995904Y-110251142D01*
X157948285Y-110298761D01*
X157853047Y-110346380D01*
X157567333Y-110346380D01*
X157472095Y-110298761D01*
X157424476Y-110251142D01*
X158662571Y-109346380D02*
X158757809Y-109346380D01*
X158853047Y-109394000D01*
X158900666Y-109441619D01*
X158948285Y-109536857D01*
X158995904Y-109727333D01*
X158995904Y-109965428D01*
X158948285Y-110155904D01*
X158900666Y-110251142D01*
X158853047Y-110298761D01*
X158757809Y-110346380D01*
X158662571Y-110346380D01*
X158567333Y-110298761D01*
X158519714Y-110251142D01*
X158472095Y-110155904D01*
X158424476Y-109965428D01*
X158424476Y-109727333D01*
X158472095Y-109536857D01*
X158519714Y-109441619D01*
X158567333Y-109394000D01*
X158662571Y-109346380D01*
X153662095Y-110666380D02*
X153662095Y-109666380D01*
X154233523Y-110666380D02*
X153804952Y-110094952D01*
X154233523Y-109666380D02*
X153662095Y-110237809D01*
X156265714Y-70214380D02*
X156265714Y-69214380D01*
X156503809Y-69214380D01*
X156646666Y-69262000D01*
X156741904Y-69357238D01*
X156789523Y-69452476D01*
X156837142Y-69642952D01*
X156837142Y-69785809D01*
X156789523Y-69976285D01*
X156741904Y-70071523D01*
X156646666Y-70166761D01*
X156503809Y-70214380D01*
X156265714Y-70214380D01*
X157218095Y-69309619D02*
X157265714Y-69262000D01*
X157360952Y-69214380D01*
X157599047Y-69214380D01*
X157694285Y-69262000D01*
X157741904Y-69309619D01*
X157789523Y-69404857D01*
X157789523Y-69500095D01*
X157741904Y-69642952D01*
X157170476Y-70214380D01*
X157789523Y-70214380D01*
X158360952Y-69642952D02*
X158265714Y-69595333D01*
X158218095Y-69547714D01*
X158170476Y-69452476D01*
X158170476Y-69404857D01*
X158218095Y-69309619D01*
X158265714Y-69262000D01*
X158360952Y-69214380D01*
X158551428Y-69214380D01*
X158646666Y-69262000D01*
X158694285Y-69309619D01*
X158741904Y-69404857D01*
X158741904Y-69452476D01*
X158694285Y-69547714D01*
X158646666Y-69595333D01*
X158551428Y-69642952D01*
X158360952Y-69642952D01*
X158265714Y-69690571D01*
X158218095Y-69738190D01*
X158170476Y-69833428D01*
X158170476Y-70023904D01*
X158218095Y-70119142D01*
X158265714Y-70166761D01*
X158360952Y-70214380D01*
X158551428Y-70214380D01*
X158646666Y-70166761D01*
X158694285Y-70119142D01*
X158741904Y-70023904D01*
X158741904Y-69833428D01*
X158694285Y-69738190D01*
X158646666Y-69690571D01*
X158551428Y-69642952D01*
X153408095Y-70534380D02*
X153408095Y-69534380D01*
X153979523Y-70534380D02*
X153550952Y-69962952D01*
X153979523Y-69534380D02*
X153408095Y-70105809D01*
X156265714Y-67420380D02*
X156265714Y-66420380D01*
X156503809Y-66420380D01*
X156646666Y-66468000D01*
X156741904Y-66563238D01*
X156789523Y-66658476D01*
X156837142Y-66848952D01*
X156837142Y-66991809D01*
X156789523Y-67182285D01*
X156741904Y-67277523D01*
X156646666Y-67372761D01*
X156503809Y-67420380D01*
X156265714Y-67420380D01*
X157218095Y-66515619D02*
X157265714Y-66468000D01*
X157360952Y-66420380D01*
X157599047Y-66420380D01*
X157694285Y-66468000D01*
X157741904Y-66515619D01*
X157789523Y-66610857D01*
X157789523Y-66706095D01*
X157741904Y-66848952D01*
X157170476Y-67420380D01*
X157789523Y-67420380D01*
X158122857Y-66420380D02*
X158789523Y-66420380D01*
X158360952Y-67420380D01*
X153408095Y-67740380D02*
X153408095Y-66740380D01*
X153979523Y-67740380D02*
X153550952Y-67168952D01*
X153979523Y-66740380D02*
X153408095Y-67311809D01*
X176585714Y-110346380D02*
X176585714Y-109346380D01*
X176823809Y-109346380D01*
X176966666Y-109394000D01*
X177061904Y-109489238D01*
X177109523Y-109584476D01*
X177157142Y-109774952D01*
X177157142Y-109917809D01*
X177109523Y-110108285D01*
X177061904Y-110203523D01*
X176966666Y-110298761D01*
X176823809Y-110346380D01*
X176585714Y-110346380D01*
X177538095Y-109441619D02*
X177585714Y-109394000D01*
X177680952Y-109346380D01*
X177919047Y-109346380D01*
X178014285Y-109394000D01*
X178061904Y-109441619D01*
X178109523Y-109536857D01*
X178109523Y-109632095D01*
X178061904Y-109774952D01*
X177490476Y-110346380D01*
X178109523Y-110346380D01*
X179014285Y-109346380D02*
X178538095Y-109346380D01*
X178490476Y-109822571D01*
X178538095Y-109774952D01*
X178633333Y-109727333D01*
X178871428Y-109727333D01*
X178966666Y-109774952D01*
X179014285Y-109822571D01*
X179061904Y-109917809D01*
X179061904Y-110155904D01*
X179014285Y-110251142D01*
X178966666Y-110298761D01*
X178871428Y-110346380D01*
X178633333Y-110346380D01*
X178538095Y-110298761D01*
X178490476Y-110251142D01*
X173728095Y-110666380D02*
X173728095Y-109666380D01*
X174299523Y-110666380D02*
X173870952Y-110094952D01*
X174299523Y-109666380D02*
X173728095Y-110237809D01*
X176585714Y-107552380D02*
X176585714Y-106552380D01*
X176823809Y-106552380D01*
X176966666Y-106600000D01*
X177061904Y-106695238D01*
X177109523Y-106790476D01*
X177157142Y-106980952D01*
X177157142Y-107123809D01*
X177109523Y-107314285D01*
X177061904Y-107409523D01*
X176966666Y-107504761D01*
X176823809Y-107552380D01*
X176585714Y-107552380D01*
X177538095Y-106647619D02*
X177585714Y-106600000D01*
X177680952Y-106552380D01*
X177919047Y-106552380D01*
X178014285Y-106600000D01*
X178061904Y-106647619D01*
X178109523Y-106742857D01*
X178109523Y-106838095D01*
X178061904Y-106980952D01*
X177490476Y-107552380D01*
X178109523Y-107552380D01*
X178966666Y-106885714D02*
X178966666Y-107552380D01*
X178728571Y-106504761D02*
X178490476Y-107219047D01*
X179109523Y-107219047D01*
X173728095Y-107872380D02*
X173728095Y-106872380D01*
X174299523Y-107872380D02*
X173870952Y-107300952D01*
X174299523Y-106872380D02*
X173728095Y-107443809D01*
X176585714Y-70214380D02*
X176585714Y-69214380D01*
X176823809Y-69214380D01*
X176966666Y-69262000D01*
X177061904Y-69357238D01*
X177109523Y-69452476D01*
X177157142Y-69642952D01*
X177157142Y-69785809D01*
X177109523Y-69976285D01*
X177061904Y-70071523D01*
X176966666Y-70166761D01*
X176823809Y-70214380D01*
X176585714Y-70214380D01*
X177538095Y-69309619D02*
X177585714Y-69262000D01*
X177680952Y-69214380D01*
X177919047Y-69214380D01*
X178014285Y-69262000D01*
X178061904Y-69309619D01*
X178109523Y-69404857D01*
X178109523Y-69500095D01*
X178061904Y-69642952D01*
X177490476Y-70214380D01*
X178109523Y-70214380D01*
X178442857Y-69214380D02*
X179061904Y-69214380D01*
X178728571Y-69595333D01*
X178871428Y-69595333D01*
X178966666Y-69642952D01*
X179014285Y-69690571D01*
X179061904Y-69785809D01*
X179061904Y-70023904D01*
X179014285Y-70119142D01*
X178966666Y-70166761D01*
X178871428Y-70214380D01*
X178585714Y-70214380D01*
X178490476Y-70166761D01*
X178442857Y-70119142D01*
X173728095Y-70534380D02*
X173728095Y-69534380D01*
X174299523Y-70534380D02*
X173870952Y-69962952D01*
X174299523Y-69534380D02*
X173728095Y-70105809D01*
X176585714Y-67420380D02*
X176585714Y-66420380D01*
X176823809Y-66420380D01*
X176966666Y-66468000D01*
X177061904Y-66563238D01*
X177109523Y-66658476D01*
X177157142Y-66848952D01*
X177157142Y-66991809D01*
X177109523Y-67182285D01*
X177061904Y-67277523D01*
X176966666Y-67372761D01*
X176823809Y-67420380D01*
X176585714Y-67420380D01*
X177538095Y-66515619D02*
X177585714Y-66468000D01*
X177680952Y-66420380D01*
X177919047Y-66420380D01*
X178014285Y-66468000D01*
X178061904Y-66515619D01*
X178109523Y-66610857D01*
X178109523Y-66706095D01*
X178061904Y-66848952D01*
X177490476Y-67420380D01*
X178109523Y-67420380D01*
X178490476Y-66515619D02*
X178538095Y-66468000D01*
X178633333Y-66420380D01*
X178871428Y-66420380D01*
X178966666Y-66468000D01*
X179014285Y-66515619D01*
X179061904Y-66610857D01*
X179061904Y-66706095D01*
X179014285Y-66848952D01*
X178442857Y-67420380D01*
X179061904Y-67420380D01*
X173728095Y-67740380D02*
X173728095Y-66740380D01*
X174299523Y-67740380D02*
X173870952Y-67168952D01*
X174299523Y-66740380D02*
X173728095Y-67311809D01*
X196397714Y-110346380D02*
X196397714Y-109346380D01*
X196635809Y-109346380D01*
X196778666Y-109394000D01*
X196873904Y-109489238D01*
X196921523Y-109584476D01*
X196969142Y-109774952D01*
X196969142Y-109917809D01*
X196921523Y-110108285D01*
X196873904Y-110203523D01*
X196778666Y-110298761D01*
X196635809Y-110346380D01*
X196397714Y-110346380D01*
X197350095Y-109441619D02*
X197397714Y-109394000D01*
X197492952Y-109346380D01*
X197731047Y-109346380D01*
X197826285Y-109394000D01*
X197873904Y-109441619D01*
X197921523Y-109536857D01*
X197921523Y-109632095D01*
X197873904Y-109774952D01*
X197302476Y-110346380D01*
X197921523Y-110346380D01*
X198540571Y-109346380D02*
X198635809Y-109346380D01*
X198731047Y-109394000D01*
X198778666Y-109441619D01*
X198826285Y-109536857D01*
X198873904Y-109727333D01*
X198873904Y-109965428D01*
X198826285Y-110155904D01*
X198778666Y-110251142D01*
X198731047Y-110298761D01*
X198635809Y-110346380D01*
X198540571Y-110346380D01*
X198445333Y-110298761D01*
X198397714Y-110251142D01*
X198350095Y-110155904D01*
X198302476Y-109965428D01*
X198302476Y-109727333D01*
X198350095Y-109536857D01*
X198397714Y-109441619D01*
X198445333Y-109394000D01*
X198540571Y-109346380D01*
X193540095Y-110666380D02*
X193540095Y-109666380D01*
X194111523Y-110666380D02*
X193682952Y-110094952D01*
X194111523Y-109666380D02*
X193540095Y-110237809D01*
X196397714Y-107552380D02*
X196397714Y-106552380D01*
X196635809Y-106552380D01*
X196778666Y-106600000D01*
X196873904Y-106695238D01*
X196921523Y-106790476D01*
X196969142Y-106980952D01*
X196969142Y-107123809D01*
X196921523Y-107314285D01*
X196873904Y-107409523D01*
X196778666Y-107504761D01*
X196635809Y-107552380D01*
X196397714Y-107552380D01*
X197921523Y-107552380D02*
X197350095Y-107552380D01*
X197635809Y-107552380D02*
X197635809Y-106552380D01*
X197540571Y-106695238D01*
X197445333Y-106790476D01*
X197350095Y-106838095D01*
X198397714Y-107552380D02*
X198588190Y-107552380D01*
X198683428Y-107504761D01*
X198731047Y-107457142D01*
X198826285Y-107314285D01*
X198873904Y-107123809D01*
X198873904Y-106742857D01*
X198826285Y-106647619D01*
X198778666Y-106600000D01*
X198683428Y-106552380D01*
X198492952Y-106552380D01*
X198397714Y-106600000D01*
X198350095Y-106647619D01*
X198302476Y-106742857D01*
X198302476Y-106980952D01*
X198350095Y-107076190D01*
X198397714Y-107123809D01*
X198492952Y-107171428D01*
X198683428Y-107171428D01*
X198778666Y-107123809D01*
X198826285Y-107076190D01*
X198873904Y-106980952D01*
X193540095Y-107872380D02*
X193540095Y-106872380D01*
X194111523Y-107872380D02*
X193682952Y-107300952D01*
X194111523Y-106872380D02*
X193540095Y-107443809D01*
X196651714Y-70214380D02*
X196651714Y-69214380D01*
X196889809Y-69214380D01*
X197032666Y-69262000D01*
X197127904Y-69357238D01*
X197175523Y-69452476D01*
X197223142Y-69642952D01*
X197223142Y-69785809D01*
X197175523Y-69976285D01*
X197127904Y-70071523D01*
X197032666Y-70166761D01*
X196889809Y-70214380D01*
X196651714Y-70214380D01*
X198175523Y-70214380D02*
X197604095Y-70214380D01*
X197889809Y-70214380D02*
X197889809Y-69214380D01*
X197794571Y-69357238D01*
X197699333Y-69452476D01*
X197604095Y-69500095D01*
X198746952Y-69642952D02*
X198651714Y-69595333D01*
X198604095Y-69547714D01*
X198556476Y-69452476D01*
X198556476Y-69404857D01*
X198604095Y-69309619D01*
X198651714Y-69262000D01*
X198746952Y-69214380D01*
X198937428Y-69214380D01*
X199032666Y-69262000D01*
X199080285Y-69309619D01*
X199127904Y-69404857D01*
X199127904Y-69452476D01*
X199080285Y-69547714D01*
X199032666Y-69595333D01*
X198937428Y-69642952D01*
X198746952Y-69642952D01*
X198651714Y-69690571D01*
X198604095Y-69738190D01*
X198556476Y-69833428D01*
X198556476Y-70023904D01*
X198604095Y-70119142D01*
X198651714Y-70166761D01*
X198746952Y-70214380D01*
X198937428Y-70214380D01*
X199032666Y-70166761D01*
X199080285Y-70119142D01*
X199127904Y-70023904D01*
X199127904Y-69833428D01*
X199080285Y-69738190D01*
X199032666Y-69690571D01*
X198937428Y-69642952D01*
X193794095Y-70534380D02*
X193794095Y-69534380D01*
X194365523Y-70534380D02*
X193936952Y-69962952D01*
X194365523Y-69534380D02*
X193794095Y-70105809D01*
X196651714Y-67420380D02*
X196651714Y-66420380D01*
X196889809Y-66420380D01*
X197032666Y-66468000D01*
X197127904Y-66563238D01*
X197175523Y-66658476D01*
X197223142Y-66848952D01*
X197223142Y-66991809D01*
X197175523Y-67182285D01*
X197127904Y-67277523D01*
X197032666Y-67372761D01*
X196889809Y-67420380D01*
X196651714Y-67420380D01*
X198175523Y-67420380D02*
X197604095Y-67420380D01*
X197889809Y-67420380D02*
X197889809Y-66420380D01*
X197794571Y-66563238D01*
X197699333Y-66658476D01*
X197604095Y-66706095D01*
X198508857Y-66420380D02*
X199175523Y-66420380D01*
X198746952Y-67420380D01*
X193794095Y-67740380D02*
X193794095Y-66740380D01*
X194365523Y-67740380D02*
X193936952Y-67168952D01*
X194365523Y-66740380D02*
X193794095Y-67311809D01*
X216717714Y-110346380D02*
X216717714Y-109346380D01*
X216955809Y-109346380D01*
X217098666Y-109394000D01*
X217193904Y-109489238D01*
X217241523Y-109584476D01*
X217289142Y-109774952D01*
X217289142Y-109917809D01*
X217241523Y-110108285D01*
X217193904Y-110203523D01*
X217098666Y-110298761D01*
X216955809Y-110346380D01*
X216717714Y-110346380D01*
X218241523Y-110346380D02*
X217670095Y-110346380D01*
X217955809Y-110346380D02*
X217955809Y-109346380D01*
X217860571Y-109489238D01*
X217765333Y-109584476D01*
X217670095Y-109632095D01*
X219146285Y-109346380D02*
X218670095Y-109346380D01*
X218622476Y-109822571D01*
X218670095Y-109774952D01*
X218765333Y-109727333D01*
X219003428Y-109727333D01*
X219098666Y-109774952D01*
X219146285Y-109822571D01*
X219193904Y-109917809D01*
X219193904Y-110155904D01*
X219146285Y-110251142D01*
X219098666Y-110298761D01*
X219003428Y-110346380D01*
X218765333Y-110346380D01*
X218670095Y-110298761D01*
X218622476Y-110251142D01*
X213860095Y-110666380D02*
X213860095Y-109666380D01*
X214431523Y-110666380D02*
X214002952Y-110094952D01*
X214431523Y-109666380D02*
X213860095Y-110237809D01*
X216717714Y-107552380D02*
X216717714Y-106552380D01*
X216955809Y-106552380D01*
X217098666Y-106600000D01*
X217193904Y-106695238D01*
X217241523Y-106790476D01*
X217289142Y-106980952D01*
X217289142Y-107123809D01*
X217241523Y-107314285D01*
X217193904Y-107409523D01*
X217098666Y-107504761D01*
X216955809Y-107552380D01*
X216717714Y-107552380D01*
X218241523Y-107552380D02*
X217670095Y-107552380D01*
X217955809Y-107552380D02*
X217955809Y-106552380D01*
X217860571Y-106695238D01*
X217765333Y-106790476D01*
X217670095Y-106838095D01*
X219098666Y-106885714D02*
X219098666Y-107552380D01*
X218860571Y-106504761D02*
X218622476Y-107219047D01*
X219241523Y-107219047D01*
X213860095Y-107872380D02*
X213860095Y-106872380D01*
X214431523Y-107872380D02*
X214002952Y-107300952D01*
X214431523Y-106872380D02*
X213860095Y-107443809D01*
X216717714Y-70214380D02*
X216717714Y-69214380D01*
X216955809Y-69214380D01*
X217098666Y-69262000D01*
X217193904Y-69357238D01*
X217241523Y-69452476D01*
X217289142Y-69642952D01*
X217289142Y-69785809D01*
X217241523Y-69976285D01*
X217193904Y-70071523D01*
X217098666Y-70166761D01*
X216955809Y-70214380D01*
X216717714Y-70214380D01*
X218241523Y-70214380D02*
X217670095Y-70214380D01*
X217955809Y-70214380D02*
X217955809Y-69214380D01*
X217860571Y-69357238D01*
X217765333Y-69452476D01*
X217670095Y-69500095D01*
X218574857Y-69214380D02*
X219193904Y-69214380D01*
X218860571Y-69595333D01*
X219003428Y-69595333D01*
X219098666Y-69642952D01*
X219146285Y-69690571D01*
X219193904Y-69785809D01*
X219193904Y-70023904D01*
X219146285Y-70119142D01*
X219098666Y-70166761D01*
X219003428Y-70214380D01*
X218717714Y-70214380D01*
X218622476Y-70166761D01*
X218574857Y-70119142D01*
X213860095Y-70534380D02*
X213860095Y-69534380D01*
X214431523Y-70534380D02*
X214002952Y-69962952D01*
X214431523Y-69534380D02*
X213860095Y-70105809D01*
X216717714Y-67420380D02*
X216717714Y-66420380D01*
X216955809Y-66420380D01*
X217098666Y-66468000D01*
X217193904Y-66563238D01*
X217241523Y-66658476D01*
X217289142Y-66848952D01*
X217289142Y-66991809D01*
X217241523Y-67182285D01*
X217193904Y-67277523D01*
X217098666Y-67372761D01*
X216955809Y-67420380D01*
X216717714Y-67420380D01*
X218241523Y-67420380D02*
X217670095Y-67420380D01*
X217955809Y-67420380D02*
X217955809Y-66420380D01*
X217860571Y-66563238D01*
X217765333Y-66658476D01*
X217670095Y-66706095D01*
X218622476Y-66515619D02*
X218670095Y-66468000D01*
X218765333Y-66420380D01*
X219003428Y-66420380D01*
X219098666Y-66468000D01*
X219146285Y-66515619D01*
X219193904Y-66610857D01*
X219193904Y-66706095D01*
X219146285Y-66848952D01*
X218574857Y-67420380D01*
X219193904Y-67420380D01*
X213860095Y-67740380D02*
X213860095Y-66740380D01*
X214431523Y-67740380D02*
X214002952Y-67168952D01*
X214431523Y-66740380D02*
X213860095Y-67311809D01*
X236783714Y-110346380D02*
X236783714Y-109346380D01*
X237021809Y-109346380D01*
X237164666Y-109394000D01*
X237259904Y-109489238D01*
X237307523Y-109584476D01*
X237355142Y-109774952D01*
X237355142Y-109917809D01*
X237307523Y-110108285D01*
X237259904Y-110203523D01*
X237164666Y-110298761D01*
X237021809Y-110346380D01*
X236783714Y-110346380D01*
X238307523Y-110346380D02*
X237736095Y-110346380D01*
X238021809Y-110346380D02*
X238021809Y-109346380D01*
X237926571Y-109489238D01*
X237831333Y-109584476D01*
X237736095Y-109632095D01*
X238926571Y-109346380D02*
X239021809Y-109346380D01*
X239117047Y-109394000D01*
X239164666Y-109441619D01*
X239212285Y-109536857D01*
X239259904Y-109727333D01*
X239259904Y-109965428D01*
X239212285Y-110155904D01*
X239164666Y-110251142D01*
X239117047Y-110298761D01*
X239021809Y-110346380D01*
X238926571Y-110346380D01*
X238831333Y-110298761D01*
X238783714Y-110251142D01*
X238736095Y-110155904D01*
X238688476Y-109965428D01*
X238688476Y-109727333D01*
X238736095Y-109536857D01*
X238783714Y-109441619D01*
X238831333Y-109394000D01*
X238926571Y-109346380D01*
X233926095Y-110666380D02*
X233926095Y-109666380D01*
X234497523Y-110666380D02*
X234068952Y-110094952D01*
X234497523Y-109666380D02*
X233926095Y-110237809D01*
X237259904Y-107552380D02*
X237259904Y-106552380D01*
X237498000Y-106552380D01*
X237640857Y-106600000D01*
X237736095Y-106695238D01*
X237783714Y-106790476D01*
X237831333Y-106980952D01*
X237831333Y-107123809D01*
X237783714Y-107314285D01*
X237736095Y-107409523D01*
X237640857Y-107504761D01*
X237498000Y-107552380D01*
X237259904Y-107552380D01*
X238307523Y-107552380D02*
X238498000Y-107552380D01*
X238593238Y-107504761D01*
X238640857Y-107457142D01*
X238736095Y-107314285D01*
X238783714Y-107123809D01*
X238783714Y-106742857D01*
X238736095Y-106647619D01*
X238688476Y-106600000D01*
X238593238Y-106552380D01*
X238402761Y-106552380D01*
X238307523Y-106600000D01*
X238259904Y-106647619D01*
X238212285Y-106742857D01*
X238212285Y-106980952D01*
X238259904Y-107076190D01*
X238307523Y-107123809D01*
X238402761Y-107171428D01*
X238593238Y-107171428D01*
X238688476Y-107123809D01*
X238736095Y-107076190D01*
X238783714Y-106980952D01*
X233926095Y-107872380D02*
X233926095Y-106872380D01*
X234497523Y-107872380D02*
X234068952Y-107300952D01*
X234497523Y-106872380D02*
X233926095Y-107443809D01*
X237513904Y-70214380D02*
X237513904Y-69214380D01*
X237752000Y-69214380D01*
X237894857Y-69262000D01*
X237990095Y-69357238D01*
X238037714Y-69452476D01*
X238085333Y-69642952D01*
X238085333Y-69785809D01*
X238037714Y-69976285D01*
X237990095Y-70071523D01*
X237894857Y-70166761D01*
X237752000Y-70214380D01*
X237513904Y-70214380D01*
X238656761Y-69642952D02*
X238561523Y-69595333D01*
X238513904Y-69547714D01*
X238466285Y-69452476D01*
X238466285Y-69404857D01*
X238513904Y-69309619D01*
X238561523Y-69262000D01*
X238656761Y-69214380D01*
X238847238Y-69214380D01*
X238942476Y-69262000D01*
X238990095Y-69309619D01*
X239037714Y-69404857D01*
X239037714Y-69452476D01*
X238990095Y-69547714D01*
X238942476Y-69595333D01*
X238847238Y-69642952D01*
X238656761Y-69642952D01*
X238561523Y-69690571D01*
X238513904Y-69738190D01*
X238466285Y-69833428D01*
X238466285Y-70023904D01*
X238513904Y-70119142D01*
X238561523Y-70166761D01*
X238656761Y-70214380D01*
X238847238Y-70214380D01*
X238942476Y-70166761D01*
X238990095Y-70119142D01*
X239037714Y-70023904D01*
X239037714Y-69833428D01*
X238990095Y-69738190D01*
X238942476Y-69690571D01*
X238847238Y-69642952D01*
X234180095Y-70534380D02*
X234180095Y-69534380D01*
X234751523Y-70534380D02*
X234322952Y-69962952D01*
X234751523Y-69534380D02*
X234180095Y-70105809D01*
X237513904Y-67420380D02*
X237513904Y-66420380D01*
X237752000Y-66420380D01*
X237894857Y-66468000D01*
X237990095Y-66563238D01*
X238037714Y-66658476D01*
X238085333Y-66848952D01*
X238085333Y-66991809D01*
X238037714Y-67182285D01*
X237990095Y-67277523D01*
X237894857Y-67372761D01*
X237752000Y-67420380D01*
X237513904Y-67420380D01*
X238418666Y-66420380D02*
X239085333Y-66420380D01*
X238656761Y-67420380D01*
X234180095Y-67740380D02*
X234180095Y-66740380D01*
X234751523Y-67740380D02*
X234322952Y-67168952D01*
X234751523Y-66740380D02*
X234180095Y-67311809D01*
X252753904Y-110346380D02*
X252753904Y-109346380D01*
X252992000Y-109346380D01*
X253134857Y-109394000D01*
X253230095Y-109489238D01*
X253277714Y-109584476D01*
X253325333Y-109774952D01*
X253325333Y-109917809D01*
X253277714Y-110108285D01*
X253230095Y-110203523D01*
X253134857Y-110298761D01*
X252992000Y-110346380D01*
X252753904Y-110346380D01*
X254230095Y-109346380D02*
X253753904Y-109346380D01*
X253706285Y-109822571D01*
X253753904Y-109774952D01*
X253849142Y-109727333D01*
X254087238Y-109727333D01*
X254182476Y-109774952D01*
X254230095Y-109822571D01*
X254277714Y-109917809D01*
X254277714Y-110155904D01*
X254230095Y-110251142D01*
X254182476Y-110298761D01*
X254087238Y-110346380D01*
X253849142Y-110346380D01*
X253753904Y-110298761D01*
X253706285Y-110251142D01*
X249420095Y-110666380D02*
X249420095Y-109666380D01*
X249991523Y-110666380D02*
X249562952Y-110094952D01*
X249991523Y-109666380D02*
X249420095Y-110237809D01*
X252753904Y-107552380D02*
X252753904Y-106552380D01*
X252992000Y-106552380D01*
X253134857Y-106600000D01*
X253230095Y-106695238D01*
X253277714Y-106790476D01*
X253325333Y-106980952D01*
X253325333Y-107123809D01*
X253277714Y-107314285D01*
X253230095Y-107409523D01*
X253134857Y-107504761D01*
X252992000Y-107552380D01*
X252753904Y-107552380D01*
X254182476Y-106885714D02*
X254182476Y-107552380D01*
X253944380Y-106504761D02*
X253706285Y-107219047D01*
X254325333Y-107219047D01*
X249420095Y-107872380D02*
X249420095Y-106872380D01*
X249991523Y-107872380D02*
X249562952Y-107300952D01*
X249991523Y-106872380D02*
X249420095Y-107443809D01*
X252753904Y-70214380D02*
X252753904Y-69214380D01*
X252992000Y-69214380D01*
X253134857Y-69262000D01*
X253230095Y-69357238D01*
X253277714Y-69452476D01*
X253325333Y-69642952D01*
X253325333Y-69785809D01*
X253277714Y-69976285D01*
X253230095Y-70071523D01*
X253134857Y-70166761D01*
X252992000Y-70214380D01*
X252753904Y-70214380D01*
X253658666Y-69214380D02*
X254277714Y-69214380D01*
X253944380Y-69595333D01*
X254087238Y-69595333D01*
X254182476Y-69642952D01*
X254230095Y-69690571D01*
X254277714Y-69785809D01*
X254277714Y-70023904D01*
X254230095Y-70119142D01*
X254182476Y-70166761D01*
X254087238Y-70214380D01*
X253801523Y-70214380D01*
X253706285Y-70166761D01*
X253658666Y-70119142D01*
X249420095Y-70534380D02*
X249420095Y-69534380D01*
X249991523Y-70534380D02*
X249562952Y-69962952D01*
X249991523Y-69534380D02*
X249420095Y-70105809D01*
X252753904Y-67420380D02*
X252753904Y-66420380D01*
X252992000Y-66420380D01*
X253134857Y-66468000D01*
X253230095Y-66563238D01*
X253277714Y-66658476D01*
X253325333Y-66848952D01*
X253325333Y-66991809D01*
X253277714Y-67182285D01*
X253230095Y-67277523D01*
X253134857Y-67372761D01*
X252992000Y-67420380D01*
X252753904Y-67420380D01*
X253706285Y-66515619D02*
X253753904Y-66468000D01*
X253849142Y-66420380D01*
X254087238Y-66420380D01*
X254182476Y-66468000D01*
X254230095Y-66515619D01*
X254277714Y-66610857D01*
X254277714Y-66706095D01*
X254230095Y-66848952D01*
X253658666Y-67420380D01*
X254277714Y-67420380D01*
X249420095Y-67740380D02*
X249420095Y-66740380D01*
X249991523Y-67740380D02*
X249562952Y-67168952D01*
X249991523Y-66740380D02*
X249420095Y-67311809D01*
X38457142Y-50712666D02*
X38504761Y-50760285D01*
X38552380Y-50903142D01*
X38552380Y-50998380D01*
X38504761Y-51141238D01*
X38409523Y-51236476D01*
X38314285Y-51284095D01*
X38123809Y-51331714D01*
X37980952Y-51331714D01*
X37790476Y-51284095D01*
X37695238Y-51236476D01*
X37600000Y-51141238D01*
X37552380Y-50998380D01*
X37552380Y-50903142D01*
X37600000Y-50760285D01*
X37647619Y-50712666D01*
X37552380Y-49807904D02*
X37552380Y-50284095D01*
X38028571Y-50331714D01*
X37980952Y-50284095D01*
X37933333Y-50188857D01*
X37933333Y-49950761D01*
X37980952Y-49855523D01*
X38028571Y-49807904D01*
X38123809Y-49760285D01*
X38361904Y-49760285D01*
X38457142Y-49807904D01*
X38504761Y-49855523D01*
X38552380Y-49950761D01*
X38552380Y-50188857D01*
X38504761Y-50284095D01*
X38457142Y-50331714D01*
X47347142Y-54027666D02*
X47394761Y-54075285D01*
X47442380Y-54218142D01*
X47442380Y-54313380D01*
X47394761Y-54456238D01*
X47299523Y-54551476D01*
X47204285Y-54599095D01*
X47013809Y-54646714D01*
X46870952Y-54646714D01*
X46680476Y-54599095D01*
X46585238Y-54551476D01*
X46490000Y-54456238D01*
X46442380Y-54313380D01*
X46442380Y-54218142D01*
X46490000Y-54075285D01*
X46537619Y-54027666D01*
X46775714Y-53170523D02*
X47442380Y-53170523D01*
X46394761Y-53408619D02*
X47109047Y-53646714D01*
X47109047Y-53027666D01*
X32345333Y-51665142D02*
X32297714Y-51712761D01*
X32154857Y-51760380D01*
X32059619Y-51760380D01*
X31916761Y-51712761D01*
X31821523Y-51617523D01*
X31773904Y-51522285D01*
X31726285Y-51331809D01*
X31726285Y-51188952D01*
X31773904Y-50998476D01*
X31821523Y-50903238D01*
X31916761Y-50808000D01*
X32059619Y-50760380D01*
X32154857Y-50760380D01*
X32297714Y-50808000D01*
X32345333Y-50855619D01*
X32678666Y-50760380D02*
X33297714Y-50760380D01*
X32964380Y-51141333D01*
X33107238Y-51141333D01*
X33202476Y-51188952D01*
X33250095Y-51236571D01*
X33297714Y-51331809D01*
X33297714Y-51569904D01*
X33250095Y-51665142D01*
X33202476Y-51712761D01*
X33107238Y-51760380D01*
X32821523Y-51760380D01*
X32726285Y-51712761D01*
X32678666Y-51665142D01*
X32345333Y-49887142D02*
X32297714Y-49934761D01*
X32154857Y-49982380D01*
X32059619Y-49982380D01*
X31916761Y-49934761D01*
X31821523Y-49839523D01*
X31773904Y-49744285D01*
X31726285Y-49553809D01*
X31726285Y-49410952D01*
X31773904Y-49220476D01*
X31821523Y-49125238D01*
X31916761Y-49030000D01*
X32059619Y-48982380D01*
X32154857Y-48982380D01*
X32297714Y-49030000D01*
X32345333Y-49077619D01*
X32726285Y-49077619D02*
X32773904Y-49030000D01*
X32869142Y-48982380D01*
X33107238Y-48982380D01*
X33202476Y-49030000D01*
X33250095Y-49077619D01*
X33297714Y-49172857D01*
X33297714Y-49268095D01*
X33250095Y-49410952D01*
X32678666Y-49982380D01*
X33297714Y-49982380D01*
X59887142Y-37504666D02*
X59934761Y-37552285D01*
X59982380Y-37695142D01*
X59982380Y-37790380D01*
X59934761Y-37933238D01*
X59839523Y-38028476D01*
X59744285Y-38076095D01*
X59553809Y-38123714D01*
X59410952Y-38123714D01*
X59220476Y-38076095D01*
X59125238Y-38028476D01*
X59030000Y-37933238D01*
X58982380Y-37790380D01*
X58982380Y-37695142D01*
X59030000Y-37552285D01*
X59077619Y-37504666D01*
X59982380Y-36552285D02*
X59982380Y-37123714D01*
X59982380Y-36838000D02*
X58982380Y-36838000D01*
X59125238Y-36933238D01*
X59220476Y-37028476D01*
X59268095Y-37123714D01*
M02*
