G04 #@! TF.GenerationSoftware,KiCad,Pcbnew,5.1.12-84ad8e8a86~92~ubuntu20.04.1*
G04 #@! TF.CreationDate,2021-12-05T18:43:19-05:00*
G04 #@! TF.ProjectId,Keyboard_JPP,4b657962-6f61-4726-945f-4a50502e6b69,rev?*
G04 #@! TF.SameCoordinates,Original*
G04 #@! TF.FileFunction,Soldermask,Top*
G04 #@! TF.FilePolarity,Negative*
%FSLAX46Y46*%
G04 Gerber Fmt 4.6, Leading zero omitted, Abs format (unit mm)*
G04 Created by KiCad (PCBNEW 5.1.12-84ad8e8a86~92~ubuntu20.04.1) date 2021-12-05 18:43:19*
%MOMM*%
%LPD*%
G01*
G04 APERTURE LIST*
%ADD10O,1.600000X1.600000*%
%ADD11R,1.600000X1.600000*%
%ADD12C,0.100000*%
%ADD13R,1.500000X0.550000*%
%ADD14R,0.550000X1.500000*%
%ADD15R,2.550000X2.500000*%
%ADD16C,1.701800*%
%ADD17C,3.987800*%
%ADD18C,3.000000*%
%ADD19R,1.550000X1.300000*%
%ADD20C,1.600000*%
%ADD21R,1.600000X1.500000*%
G04 APERTURE END LIST*
D10*
X161544000Y-109220000D03*
D11*
X153924000Y-109220000D03*
D10*
X141478000Y-69088000D03*
D11*
X133858000Y-69088000D03*
D12*
G36*
X45745122Y-53059022D02*
G01*
X44472330Y-54331814D01*
X42987406Y-52846890D01*
X44260198Y-51574098D01*
X45745122Y-53059022D01*
G37*
G36*
X43694512Y-51008412D02*
G01*
X42421720Y-52281204D01*
X40936796Y-50796280D01*
X42209588Y-49523488D01*
X43694512Y-51008412D01*
G37*
G36*
X45320858Y-49382066D02*
G01*
X44048066Y-50654858D01*
X42563142Y-49169934D01*
X43835934Y-47897142D01*
X45320858Y-49382066D01*
G37*
G36*
X47371468Y-51432676D02*
G01*
X46098676Y-52705468D01*
X44613752Y-51220544D01*
X45886544Y-49947752D01*
X47371468Y-51432676D01*
G37*
D13*
X59040000Y-39434000D03*
X59040000Y-40234000D03*
X59040000Y-41034000D03*
X59040000Y-41834000D03*
X59040000Y-42634000D03*
X59040000Y-43434000D03*
X59040000Y-44234000D03*
X59040000Y-45034000D03*
X59040000Y-45834000D03*
X59040000Y-46634000D03*
X59040000Y-47434000D03*
D14*
X57340000Y-49134000D03*
X56540000Y-49134000D03*
X55740000Y-49134000D03*
X54940000Y-49134000D03*
X54140000Y-49134000D03*
X53340000Y-49134000D03*
X52540000Y-49134000D03*
X51740000Y-49134000D03*
X50940000Y-49134000D03*
X50140000Y-49134000D03*
X49340000Y-49134000D03*
D13*
X47640000Y-47434000D03*
X47640000Y-46634000D03*
X47640000Y-45834000D03*
X47640000Y-45034000D03*
X47640000Y-44234000D03*
X47640000Y-43434000D03*
X47640000Y-42634000D03*
X47640000Y-41834000D03*
X47640000Y-41034000D03*
X47640000Y-40234000D03*
X47640000Y-39434000D03*
D14*
X49340000Y-37734000D03*
X50140000Y-37734000D03*
X50940000Y-37734000D03*
X51740000Y-37734000D03*
X52540000Y-37734000D03*
X53340000Y-37734000D03*
X54140000Y-37734000D03*
X54940000Y-37734000D03*
X55740000Y-37734000D03*
X56540000Y-37734000D03*
X57340000Y-37734000D03*
D15*
X44898000Y-118110000D03*
D16*
X42418000Y-120650000D03*
X32258000Y-120650000D03*
D17*
X37338000Y-120650000D03*
D18*
X41148000Y-118110000D03*
X34798000Y-115570000D03*
D15*
X31048000Y-115570000D03*
X44898000Y-98044000D03*
D16*
X42418000Y-100584000D03*
X32258000Y-100584000D03*
D17*
X37338000Y-100584000D03*
D18*
X41148000Y-98044000D03*
X34798000Y-95504000D03*
D15*
X31048000Y-95504000D03*
X44898000Y-77978000D03*
D16*
X42418000Y-80518000D03*
X32258000Y-80518000D03*
D17*
X37338000Y-80518000D03*
D18*
X41148000Y-77978000D03*
X34798000Y-75438000D03*
D15*
X31048000Y-75438000D03*
X44898000Y-57912000D03*
D16*
X42418000Y-60452000D03*
X32258000Y-60452000D03*
D17*
X37338000Y-60452000D03*
D18*
X41148000Y-57912000D03*
X34798000Y-55372000D03*
D15*
X31048000Y-55372000D03*
X64964000Y-118110000D03*
D16*
X62484000Y-120650000D03*
X52324000Y-120650000D03*
D17*
X57404000Y-120650000D03*
D18*
X61214000Y-118110000D03*
X54864000Y-115570000D03*
D15*
X51114000Y-115570000D03*
X64964000Y-98044000D03*
D16*
X62484000Y-100584000D03*
X52324000Y-100584000D03*
D17*
X57404000Y-100584000D03*
D18*
X61214000Y-98044000D03*
X54864000Y-95504000D03*
D15*
X51114000Y-95504000D03*
X64964000Y-77978000D03*
D16*
X62484000Y-80518000D03*
X52324000Y-80518000D03*
D17*
X57404000Y-80518000D03*
D18*
X61214000Y-77978000D03*
X54864000Y-75438000D03*
D15*
X51114000Y-75438000D03*
X64964000Y-57912000D03*
D16*
X62484000Y-60452000D03*
X52324000Y-60452000D03*
D17*
X57404000Y-60452000D03*
D18*
X61214000Y-57912000D03*
X54864000Y-55372000D03*
D15*
X51114000Y-55372000D03*
X85030000Y-118110000D03*
D16*
X82550000Y-120650000D03*
X72390000Y-120650000D03*
D17*
X77470000Y-120650000D03*
D18*
X81280000Y-118110000D03*
X74930000Y-115570000D03*
D15*
X71180000Y-115570000D03*
X85030000Y-98044000D03*
D16*
X82550000Y-100584000D03*
X72390000Y-100584000D03*
D17*
X77470000Y-100584000D03*
D18*
X81280000Y-98044000D03*
X74930000Y-95504000D03*
D15*
X71180000Y-95504000D03*
X85030000Y-77978000D03*
D16*
X82550000Y-80518000D03*
X72390000Y-80518000D03*
D17*
X77470000Y-80518000D03*
D18*
X81280000Y-77978000D03*
X74930000Y-75438000D03*
D15*
X71180000Y-75438000D03*
X85030000Y-57912000D03*
D16*
X82550000Y-60452000D03*
X72390000Y-60452000D03*
D17*
X77470000Y-60452000D03*
D18*
X81280000Y-57912000D03*
X74930000Y-55372000D03*
D15*
X71180000Y-55372000D03*
X105096000Y-118110000D03*
D16*
X102616000Y-120650000D03*
X92456000Y-120650000D03*
D17*
X97536000Y-120650000D03*
D18*
X101346000Y-118110000D03*
X94996000Y-115570000D03*
D15*
X91246000Y-115570000D03*
X105096000Y-98044000D03*
D16*
X102616000Y-100584000D03*
X92456000Y-100584000D03*
D17*
X97536000Y-100584000D03*
D18*
X101346000Y-98044000D03*
X94996000Y-95504000D03*
D15*
X91246000Y-95504000D03*
X105096000Y-77978000D03*
D16*
X102616000Y-80518000D03*
X92456000Y-80518000D03*
D17*
X97536000Y-80518000D03*
D18*
X101346000Y-77978000D03*
X94996000Y-75438000D03*
D15*
X91246000Y-75438000D03*
X105096000Y-57912000D03*
D16*
X102616000Y-60452000D03*
X92456000Y-60452000D03*
D17*
X97536000Y-60452000D03*
D18*
X101346000Y-57912000D03*
X94996000Y-55372000D03*
D15*
X91246000Y-55372000D03*
X125162000Y-118110000D03*
D16*
X122682000Y-120650000D03*
X112522000Y-120650000D03*
D17*
X117602000Y-120650000D03*
D18*
X121412000Y-118110000D03*
X115062000Y-115570000D03*
D15*
X111312000Y-115570000D03*
X125162000Y-98044000D03*
D16*
X122682000Y-100584000D03*
X112522000Y-100584000D03*
D17*
X117602000Y-100584000D03*
D18*
X121412000Y-98044000D03*
X115062000Y-95504000D03*
D15*
X111312000Y-95504000D03*
X125162000Y-77978000D03*
D16*
X122682000Y-80518000D03*
X112522000Y-80518000D03*
D17*
X117602000Y-80518000D03*
D18*
X121412000Y-77978000D03*
X115062000Y-75438000D03*
D15*
X111312000Y-75438000D03*
X125162000Y-57912000D03*
D16*
X122682000Y-60452000D03*
X112522000Y-60452000D03*
D17*
X117602000Y-60452000D03*
D18*
X121412000Y-57912000D03*
X115062000Y-55372000D03*
D15*
X111312000Y-55372000D03*
X145228000Y-98044000D03*
D16*
X142748000Y-100584000D03*
X132588000Y-100584000D03*
D17*
X137668000Y-100584000D03*
D18*
X141478000Y-98044000D03*
X135128000Y-95504000D03*
D15*
X131378000Y-95504000D03*
X145228000Y-77978000D03*
D16*
X142748000Y-80518000D03*
X132588000Y-80518000D03*
D17*
X137668000Y-80518000D03*
D18*
X141478000Y-77978000D03*
X135128000Y-75438000D03*
D15*
X131378000Y-75438000D03*
X145228000Y-57912000D03*
D16*
X142748000Y-60452000D03*
X132588000Y-60452000D03*
D17*
X137668000Y-60452000D03*
D18*
X141478000Y-57912000D03*
X135128000Y-55372000D03*
D15*
X131378000Y-55372000D03*
X155261000Y-118110000D03*
D16*
X152781000Y-120650000D03*
X142621000Y-120650000D03*
D17*
X147701000Y-120650000D03*
D18*
X151511000Y-118110000D03*
X145161000Y-115570000D03*
D15*
X141411000Y-115570000D03*
X165294000Y-98044000D03*
D16*
X162814000Y-100584000D03*
X152654000Y-100584000D03*
D17*
X157734000Y-100584000D03*
D18*
X161544000Y-98044000D03*
X155194000Y-95504000D03*
D15*
X151444000Y-95504000D03*
X165294000Y-77978000D03*
D16*
X162814000Y-80518000D03*
X152654000Y-80518000D03*
D17*
X157734000Y-80518000D03*
D18*
X161544000Y-77978000D03*
X155194000Y-75438000D03*
D15*
X151444000Y-75438000D03*
X165294000Y-57912000D03*
D16*
X162814000Y-60452000D03*
X152654000Y-60452000D03*
D17*
X157734000Y-60452000D03*
D18*
X161544000Y-57912000D03*
X155194000Y-55372000D03*
D15*
X151444000Y-55372000D03*
X185360000Y-118110000D03*
D16*
X182880000Y-120650000D03*
X172720000Y-120650000D03*
D17*
X177800000Y-120650000D03*
D18*
X181610000Y-118110000D03*
X175260000Y-115570000D03*
D15*
X171510000Y-115570000D03*
X185360000Y-98044000D03*
D16*
X182880000Y-100584000D03*
X172720000Y-100584000D03*
D17*
X177800000Y-100584000D03*
D18*
X181610000Y-98044000D03*
X175260000Y-95504000D03*
D15*
X171510000Y-95504000D03*
X185360000Y-77978000D03*
D16*
X182880000Y-80518000D03*
X172720000Y-80518000D03*
D17*
X177800000Y-80518000D03*
D18*
X181610000Y-77978000D03*
X175260000Y-75438000D03*
D15*
X171510000Y-75438000D03*
X185360000Y-57912000D03*
D16*
X182880000Y-60452000D03*
X172720000Y-60452000D03*
D17*
X177800000Y-60452000D03*
D18*
X181610000Y-57912000D03*
X175260000Y-55372000D03*
D15*
X171510000Y-55372000D03*
X205426000Y-118110000D03*
D16*
X202946000Y-120650000D03*
X192786000Y-120650000D03*
D17*
X197866000Y-120650000D03*
D18*
X201676000Y-118110000D03*
X195326000Y-115570000D03*
D15*
X191576000Y-115570000D03*
X205426000Y-98044000D03*
D16*
X202946000Y-100584000D03*
X192786000Y-100584000D03*
D17*
X197866000Y-100584000D03*
D18*
X201676000Y-98044000D03*
X195326000Y-95504000D03*
D15*
X191576000Y-95504000D03*
X205426000Y-77978000D03*
D16*
X202946000Y-80518000D03*
X192786000Y-80518000D03*
D17*
X197866000Y-80518000D03*
D18*
X201676000Y-77978000D03*
X195326000Y-75438000D03*
D15*
X191576000Y-75438000D03*
X205426000Y-57912000D03*
D16*
X202946000Y-60452000D03*
X192786000Y-60452000D03*
D17*
X197866000Y-60452000D03*
D18*
X201676000Y-57912000D03*
X195326000Y-55372000D03*
D15*
X191576000Y-55372000D03*
X225492000Y-118110000D03*
D16*
X223012000Y-120650000D03*
X212852000Y-120650000D03*
D17*
X217932000Y-120650000D03*
D18*
X221742000Y-118110000D03*
X215392000Y-115570000D03*
D15*
X211642000Y-115570000D03*
X225492000Y-98044000D03*
D16*
X223012000Y-100584000D03*
X212852000Y-100584000D03*
D17*
X217932000Y-100584000D03*
D18*
X221742000Y-98044000D03*
X215392000Y-95504000D03*
D15*
X211642000Y-95504000D03*
X225492000Y-77978000D03*
D16*
X223012000Y-80518000D03*
X212852000Y-80518000D03*
D17*
X217932000Y-80518000D03*
D18*
X221742000Y-77978000D03*
X215392000Y-75438000D03*
D15*
X211642000Y-75438000D03*
X225492000Y-57912000D03*
D16*
X223012000Y-60452000D03*
X212852000Y-60452000D03*
D17*
X217932000Y-60452000D03*
D18*
X221742000Y-57912000D03*
X215392000Y-55372000D03*
D15*
X211642000Y-55372000D03*
X245558000Y-118110000D03*
D16*
X243078000Y-120650000D03*
X232918000Y-120650000D03*
D17*
X237998000Y-120650000D03*
D18*
X241808000Y-118110000D03*
X235458000Y-115570000D03*
D15*
X231708000Y-115570000D03*
X245558000Y-98044000D03*
D16*
X243078000Y-100584000D03*
X232918000Y-100584000D03*
D17*
X237998000Y-100584000D03*
D18*
X241808000Y-98044000D03*
X235458000Y-95504000D03*
D15*
X231708000Y-95504000D03*
X245558000Y-77978000D03*
D16*
X243078000Y-80518000D03*
X232918000Y-80518000D03*
D17*
X237998000Y-80518000D03*
D18*
X241808000Y-77978000D03*
X235458000Y-75438000D03*
D15*
X231708000Y-75438000D03*
X245558000Y-57912000D03*
D16*
X243078000Y-60452000D03*
X232918000Y-60452000D03*
D17*
X237998000Y-60452000D03*
D18*
X241808000Y-57912000D03*
X235458000Y-55372000D03*
D15*
X231708000Y-55372000D03*
X265624000Y-118110000D03*
D16*
X263144000Y-120650000D03*
X252984000Y-120650000D03*
D17*
X258064000Y-120650000D03*
D18*
X261874000Y-118110000D03*
X255524000Y-115570000D03*
D15*
X251774000Y-115570000D03*
X265624000Y-98044000D03*
D16*
X263144000Y-100584000D03*
X252984000Y-100584000D03*
D17*
X258064000Y-100584000D03*
D18*
X261874000Y-98044000D03*
X255524000Y-95504000D03*
D15*
X251774000Y-95504000D03*
X265624000Y-77978000D03*
D16*
X263144000Y-80518000D03*
X252984000Y-80518000D03*
D17*
X258064000Y-80518000D03*
D18*
X261874000Y-77978000D03*
X255524000Y-75438000D03*
D15*
X251774000Y-75438000D03*
X265624000Y-57912000D03*
D16*
X263144000Y-60452000D03*
X252984000Y-60452000D03*
D17*
X258064000Y-60452000D03*
D18*
X261874000Y-57912000D03*
X255524000Y-55372000D03*
D15*
X251774000Y-55372000D03*
D19*
X37249000Y-41112000D03*
X37249000Y-36612000D03*
X29299000Y-36612000D03*
X29299000Y-41112000D03*
G36*
G01*
X60763999Y-46628000D02*
X61664001Y-46628000D01*
G75*
G02*
X61914000Y-46877999I0J-249999D01*
G01*
X61914000Y-47403001D01*
G75*
G02*
X61664001Y-47653000I-249999J0D01*
G01*
X60763999Y-47653000D01*
G75*
G02*
X60514000Y-47403001I0J249999D01*
G01*
X60514000Y-46877999D01*
G75*
G02*
X60763999Y-46628000I249999J0D01*
G01*
G37*
G36*
G01*
X60763999Y-44803000D02*
X61664001Y-44803000D01*
G75*
G02*
X61914000Y-45052999I0J-249999D01*
G01*
X61914000Y-45578001D01*
G75*
G02*
X61664001Y-45828000I-249999J0D01*
G01*
X60763999Y-45828000D01*
G75*
G02*
X60514000Y-45578001I0J249999D01*
G01*
X60514000Y-45052999D01*
G75*
G02*
X60763999Y-44803000I249999J0D01*
G01*
G37*
G36*
G01*
X41660500Y-36887999D02*
X41660500Y-37788001D01*
G75*
G02*
X41410501Y-38038000I-249999J0D01*
G01*
X40885499Y-38038000D01*
G75*
G02*
X40635500Y-37788001I0J249999D01*
G01*
X40635500Y-36887999D01*
G75*
G02*
X40885499Y-36638000I249999J0D01*
G01*
X41410501Y-36638000D01*
G75*
G02*
X41660500Y-36887999I0J-249999D01*
G01*
G37*
G36*
G01*
X43485500Y-36887999D02*
X43485500Y-37788001D01*
G75*
G02*
X43235501Y-38038000I-249999J0D01*
G01*
X42710499Y-38038000D01*
G75*
G02*
X42460500Y-37788001I0J249999D01*
G01*
X42460500Y-36887999D01*
G75*
G02*
X42710499Y-36638000I249999J0D01*
G01*
X43235501Y-36638000D01*
G75*
G02*
X43485500Y-36887999I0J-249999D01*
G01*
G37*
G36*
G01*
X41660500Y-38919999D02*
X41660500Y-39820001D01*
G75*
G02*
X41410501Y-40070000I-249999J0D01*
G01*
X40885499Y-40070000D01*
G75*
G02*
X40635500Y-39820001I0J249999D01*
G01*
X40635500Y-38919999D01*
G75*
G02*
X40885499Y-38670000I249999J0D01*
G01*
X41410501Y-38670000D01*
G75*
G02*
X41660500Y-38919999I0J-249999D01*
G01*
G37*
G36*
G01*
X43485500Y-38919999D02*
X43485500Y-39820001D01*
G75*
G02*
X43235501Y-40070000I-249999J0D01*
G01*
X42710499Y-40070000D01*
G75*
G02*
X42460500Y-39820001I0J249999D01*
G01*
X42460500Y-38919999D01*
G75*
G02*
X42710499Y-38670000I249999J0D01*
G01*
X43235501Y-38670000D01*
G75*
G02*
X43485500Y-38919999I0J-249999D01*
G01*
G37*
G36*
G01*
X34690000Y-43884001D02*
X34690000Y-42983999D01*
G75*
G02*
X34939999Y-42734000I249999J0D01*
G01*
X35465001Y-42734000D01*
G75*
G02*
X35715000Y-42983999I0J-249999D01*
G01*
X35715000Y-43884001D01*
G75*
G02*
X35465001Y-44134000I-249999J0D01*
G01*
X34939999Y-44134000D01*
G75*
G02*
X34690000Y-43884001I0J249999D01*
G01*
G37*
G36*
G01*
X32865000Y-43884001D02*
X32865000Y-42983999D01*
G75*
G02*
X33114999Y-42734000I249999J0D01*
G01*
X33640001Y-42734000D01*
G75*
G02*
X33890000Y-42983999I0J-249999D01*
G01*
X33890000Y-43884001D01*
G75*
G02*
X33640001Y-44134000I-249999J0D01*
G01*
X33114999Y-44134000D01*
G75*
G02*
X32865000Y-43884001I0J249999D01*
G01*
G37*
D20*
X39766000Y-46990000D03*
X37266000Y-46990000D03*
X35266000Y-46990000D03*
D21*
X32766000Y-46990000D03*
D18*
X42836000Y-44280000D03*
X29696000Y-44280000D03*
D10*
X41148000Y-112014000D03*
D11*
X33528000Y-112014000D03*
D10*
X41148000Y-109220000D03*
D11*
X33528000Y-109220000D03*
D10*
X41148000Y-71882000D03*
D11*
X33528000Y-71882000D03*
D10*
X41148000Y-69088000D03*
D11*
X33528000Y-69088000D03*
D10*
X61214000Y-112014000D03*
D11*
X53594000Y-112014000D03*
D10*
X61214000Y-109220000D03*
D11*
X53594000Y-109220000D03*
D10*
X61214000Y-71882000D03*
D11*
X53594000Y-71882000D03*
D10*
X61214000Y-69088000D03*
D11*
X53594000Y-69088000D03*
D10*
X81280000Y-112014000D03*
D11*
X73660000Y-112014000D03*
D10*
X81280000Y-109220000D03*
D11*
X73660000Y-109220000D03*
D10*
X81280000Y-71882000D03*
D11*
X73660000Y-71882000D03*
D10*
X81280000Y-69088000D03*
D11*
X73660000Y-69088000D03*
D10*
X101346000Y-112014000D03*
D11*
X93726000Y-112014000D03*
D10*
X101346000Y-109220000D03*
D11*
X93726000Y-109220000D03*
D10*
X101346000Y-71882000D03*
D11*
X93726000Y-71882000D03*
D10*
X101346000Y-69088000D03*
D11*
X93726000Y-69088000D03*
D10*
X121412000Y-112014000D03*
D11*
X113792000Y-112014000D03*
D10*
X121412000Y-109220000D03*
D11*
X113792000Y-109220000D03*
D10*
X121412000Y-71882000D03*
D11*
X113792000Y-71882000D03*
D10*
X121412000Y-69088000D03*
D11*
X113792000Y-69088000D03*
D10*
X141478000Y-109220000D03*
D11*
X133858000Y-109220000D03*
D10*
X141478000Y-71882000D03*
D11*
X133858000Y-71882000D03*
D10*
X161544000Y-112014000D03*
D11*
X153924000Y-112014000D03*
D10*
X161290000Y-71882000D03*
D11*
X153670000Y-71882000D03*
D10*
X161290000Y-69088000D03*
D11*
X153670000Y-69088000D03*
D10*
X181610000Y-112014000D03*
D11*
X173990000Y-112014000D03*
D10*
X181610000Y-109220000D03*
D11*
X173990000Y-109220000D03*
D10*
X181610000Y-71882000D03*
D11*
X173990000Y-71882000D03*
D10*
X181610000Y-69088000D03*
D11*
X173990000Y-69088000D03*
D10*
X201422000Y-112014000D03*
D11*
X193802000Y-112014000D03*
D10*
X201422000Y-109220000D03*
D11*
X193802000Y-109220000D03*
D10*
X201676000Y-71882000D03*
D11*
X194056000Y-71882000D03*
D10*
X201676000Y-69088000D03*
D11*
X194056000Y-69088000D03*
D10*
X221742000Y-112014000D03*
D11*
X214122000Y-112014000D03*
D10*
X221742000Y-109220000D03*
D11*
X214122000Y-109220000D03*
D10*
X221742000Y-71882000D03*
D11*
X214122000Y-71882000D03*
D10*
X221742000Y-69088000D03*
D11*
X214122000Y-69088000D03*
D10*
X241808000Y-112014000D03*
D11*
X234188000Y-112014000D03*
D10*
X241808000Y-109220000D03*
D11*
X234188000Y-109220000D03*
D10*
X242062000Y-71882000D03*
D11*
X234442000Y-71882000D03*
D10*
X242062000Y-69088000D03*
D11*
X234442000Y-69088000D03*
D10*
X257302000Y-112014000D03*
D11*
X249682000Y-112014000D03*
D10*
X257302000Y-109220000D03*
D11*
X249682000Y-109220000D03*
D10*
X257302000Y-71882000D03*
D11*
X249682000Y-71882000D03*
D10*
X257302000Y-69088000D03*
D11*
X249682000Y-69088000D03*
G36*
G01*
X39374000Y-51379000D02*
X39874000Y-51379000D01*
G75*
G02*
X40099000Y-51604000I0J-225000D01*
G01*
X40099000Y-52054000D01*
G75*
G02*
X39874000Y-52279000I-225000J0D01*
G01*
X39374000Y-52279000D01*
G75*
G02*
X39149000Y-52054000I0J225000D01*
G01*
X39149000Y-51604000D01*
G75*
G02*
X39374000Y-51379000I225000J0D01*
G01*
G37*
G36*
G01*
X39374000Y-49829000D02*
X39874000Y-49829000D01*
G75*
G02*
X40099000Y-50054000I0J-225000D01*
G01*
X40099000Y-50504000D01*
G75*
G02*
X39874000Y-50729000I-225000J0D01*
G01*
X39374000Y-50729000D01*
G75*
G02*
X39149000Y-50504000I0J225000D01*
G01*
X39149000Y-50054000D01*
G75*
G02*
X39374000Y-49829000I225000J0D01*
G01*
G37*
G36*
G01*
X48264000Y-53424000D02*
X48764000Y-53424000D01*
G75*
G02*
X48989000Y-53649000I0J-225000D01*
G01*
X48989000Y-54099000D01*
G75*
G02*
X48764000Y-54324000I-225000J0D01*
G01*
X48264000Y-54324000D01*
G75*
G02*
X48039000Y-54099000I0J225000D01*
G01*
X48039000Y-53649000D01*
G75*
G02*
X48264000Y-53424000I225000J0D01*
G01*
G37*
G36*
G01*
X48264000Y-51874000D02*
X48764000Y-51874000D01*
G75*
G02*
X48989000Y-52099000I0J-225000D01*
G01*
X48989000Y-52549000D01*
G75*
G02*
X48764000Y-52774000I-225000J0D01*
G01*
X48264000Y-52774000D01*
G75*
G02*
X48039000Y-52549000I0J225000D01*
G01*
X48039000Y-52099000D01*
G75*
G02*
X48264000Y-51874000I225000J0D01*
G01*
G37*
G36*
G01*
X29647000Y-50550000D02*
X29647000Y-51050000D01*
G75*
G02*
X29422000Y-51275000I-225000J0D01*
G01*
X28972000Y-51275000D01*
G75*
G02*
X28747000Y-51050000I0J225000D01*
G01*
X28747000Y-50550000D01*
G75*
G02*
X28972000Y-50325000I225000J0D01*
G01*
X29422000Y-50325000D01*
G75*
G02*
X29647000Y-50550000I0J-225000D01*
G01*
G37*
G36*
G01*
X31197000Y-50550000D02*
X31197000Y-51050000D01*
G75*
G02*
X30972000Y-51275000I-225000J0D01*
G01*
X30522000Y-51275000D01*
G75*
G02*
X30297000Y-51050000I0J225000D01*
G01*
X30297000Y-50550000D01*
G75*
G02*
X30522000Y-50325000I225000J0D01*
G01*
X30972000Y-50325000D01*
G75*
G02*
X31197000Y-50550000I0J-225000D01*
G01*
G37*
G36*
G01*
X29647000Y-48772000D02*
X29647000Y-49272000D01*
G75*
G02*
X29422000Y-49497000I-225000J0D01*
G01*
X28972000Y-49497000D01*
G75*
G02*
X28747000Y-49272000I0J225000D01*
G01*
X28747000Y-48772000D01*
G75*
G02*
X28972000Y-48547000I225000J0D01*
G01*
X29422000Y-48547000D01*
G75*
G02*
X29647000Y-48772000I0J-225000D01*
G01*
G37*
G36*
G01*
X31197000Y-48772000D02*
X31197000Y-49272000D01*
G75*
G02*
X30972000Y-49497000I-225000J0D01*
G01*
X30522000Y-49497000D01*
G75*
G02*
X30297000Y-49272000I0J225000D01*
G01*
X30297000Y-48772000D01*
G75*
G02*
X30522000Y-48547000I225000J0D01*
G01*
X30972000Y-48547000D01*
G75*
G02*
X31197000Y-48772000I0J-225000D01*
G01*
G37*
G36*
G01*
X61210000Y-37013000D02*
X60710000Y-37013000D01*
G75*
G02*
X60485000Y-36788000I0J225000D01*
G01*
X60485000Y-36338000D01*
G75*
G02*
X60710000Y-36113000I225000J0D01*
G01*
X61210000Y-36113000D01*
G75*
G02*
X61435000Y-36338000I0J-225000D01*
G01*
X61435000Y-36788000D01*
G75*
G02*
X61210000Y-37013000I-225000J0D01*
G01*
G37*
G36*
G01*
X61210000Y-38563000D02*
X60710000Y-38563000D01*
G75*
G02*
X60485000Y-38338000I0J225000D01*
G01*
X60485000Y-37888000D01*
G75*
G02*
X60710000Y-37663000I225000J0D01*
G01*
X61210000Y-37663000D01*
G75*
G02*
X61435000Y-37888000I0J-225000D01*
G01*
X61435000Y-38338000D01*
G75*
G02*
X61210000Y-38563000I-225000J0D01*
G01*
G37*
M02*
