G04 #@! TF.GenerationSoftware,KiCad,Pcbnew,5.1.12-84ad8e8a86~92~ubuntu20.04.1*
G04 #@! TF.CreationDate,2021-12-05T18:43:19-05:00*
G04 #@! TF.ProjectId,Keyboard_JPP,4b657962-6f61-4726-945f-4a50502e6b69,rev?*
G04 #@! TF.SameCoordinates,Original*
G04 #@! TF.FileFunction,Soldermask,Bot*
G04 #@! TF.FilePolarity,Negative*
%FSLAX46Y46*%
G04 Gerber Fmt 4.6, Leading zero omitted, Abs format (unit mm)*
G04 Created by KiCad (PCBNEW 5.1.12-84ad8e8a86~92~ubuntu20.04.1) date 2021-12-05 18:43:19*
%MOMM*%
%LPD*%
G01*
G04 APERTURE LIST*
%ADD10O,1.600000X1.600000*%
%ADD11R,1.600000X1.600000*%
%ADD12C,1.701800*%
%ADD13C,3.987800*%
%ADD14C,3.000000*%
%ADD15C,1.600000*%
%ADD16R,1.600000X1.500000*%
G04 APERTURE END LIST*
D10*
X161544000Y-109220000D03*
D11*
X153924000Y-109220000D03*
D10*
X141478000Y-69088000D03*
D11*
X133858000Y-69088000D03*
D12*
X42418000Y-120650000D03*
X32258000Y-120650000D03*
D13*
X37338000Y-120650000D03*
D14*
X41148000Y-118110000D03*
X34798000Y-115570000D03*
D12*
X42418000Y-100584000D03*
X32258000Y-100584000D03*
D13*
X37338000Y-100584000D03*
D14*
X41148000Y-98044000D03*
X34798000Y-95504000D03*
D12*
X42418000Y-80518000D03*
X32258000Y-80518000D03*
D13*
X37338000Y-80518000D03*
D14*
X41148000Y-77978000D03*
X34798000Y-75438000D03*
D12*
X42418000Y-60452000D03*
X32258000Y-60452000D03*
D13*
X37338000Y-60452000D03*
D14*
X41148000Y-57912000D03*
X34798000Y-55372000D03*
D12*
X62484000Y-120650000D03*
X52324000Y-120650000D03*
D13*
X57404000Y-120650000D03*
D14*
X61214000Y-118110000D03*
X54864000Y-115570000D03*
D12*
X62484000Y-100584000D03*
X52324000Y-100584000D03*
D13*
X57404000Y-100584000D03*
D14*
X61214000Y-98044000D03*
X54864000Y-95504000D03*
D12*
X62484000Y-80518000D03*
X52324000Y-80518000D03*
D13*
X57404000Y-80518000D03*
D14*
X61214000Y-77978000D03*
X54864000Y-75438000D03*
D12*
X62484000Y-60452000D03*
X52324000Y-60452000D03*
D13*
X57404000Y-60452000D03*
D14*
X61214000Y-57912000D03*
X54864000Y-55372000D03*
D12*
X82550000Y-120650000D03*
X72390000Y-120650000D03*
D13*
X77470000Y-120650000D03*
D14*
X81280000Y-118110000D03*
X74930000Y-115570000D03*
D12*
X82550000Y-100584000D03*
X72390000Y-100584000D03*
D13*
X77470000Y-100584000D03*
D14*
X81280000Y-98044000D03*
X74930000Y-95504000D03*
D12*
X82550000Y-80518000D03*
X72390000Y-80518000D03*
D13*
X77470000Y-80518000D03*
D14*
X81280000Y-77978000D03*
X74930000Y-75438000D03*
D12*
X82550000Y-60452000D03*
X72390000Y-60452000D03*
D13*
X77470000Y-60452000D03*
D14*
X81280000Y-57912000D03*
X74930000Y-55372000D03*
D12*
X102616000Y-120650000D03*
X92456000Y-120650000D03*
D13*
X97536000Y-120650000D03*
D14*
X101346000Y-118110000D03*
X94996000Y-115570000D03*
D12*
X102616000Y-100584000D03*
X92456000Y-100584000D03*
D13*
X97536000Y-100584000D03*
D14*
X101346000Y-98044000D03*
X94996000Y-95504000D03*
D12*
X102616000Y-80518000D03*
X92456000Y-80518000D03*
D13*
X97536000Y-80518000D03*
D14*
X101346000Y-77978000D03*
X94996000Y-75438000D03*
D12*
X102616000Y-60452000D03*
X92456000Y-60452000D03*
D13*
X97536000Y-60452000D03*
D14*
X101346000Y-57912000D03*
X94996000Y-55372000D03*
D12*
X122682000Y-120650000D03*
X112522000Y-120650000D03*
D13*
X117602000Y-120650000D03*
D14*
X121412000Y-118110000D03*
X115062000Y-115570000D03*
D12*
X122682000Y-100584000D03*
X112522000Y-100584000D03*
D13*
X117602000Y-100584000D03*
D14*
X121412000Y-98044000D03*
X115062000Y-95504000D03*
D12*
X122682000Y-80518000D03*
X112522000Y-80518000D03*
D13*
X117602000Y-80518000D03*
D14*
X121412000Y-77978000D03*
X115062000Y-75438000D03*
D12*
X122682000Y-60452000D03*
X112522000Y-60452000D03*
D13*
X117602000Y-60452000D03*
D14*
X121412000Y-57912000D03*
X115062000Y-55372000D03*
D12*
X142748000Y-100584000D03*
X132588000Y-100584000D03*
D13*
X137668000Y-100584000D03*
D14*
X141478000Y-98044000D03*
X135128000Y-95504000D03*
D12*
X142748000Y-80518000D03*
X132588000Y-80518000D03*
D13*
X137668000Y-80518000D03*
D14*
X141478000Y-77978000D03*
X135128000Y-75438000D03*
D12*
X142748000Y-60452000D03*
X132588000Y-60452000D03*
D13*
X137668000Y-60452000D03*
D14*
X141478000Y-57912000D03*
X135128000Y-55372000D03*
D12*
X152781000Y-120650000D03*
X142621000Y-120650000D03*
D13*
X147701000Y-120650000D03*
D14*
X151511000Y-118110000D03*
X145161000Y-115570000D03*
D12*
X162814000Y-100584000D03*
X152654000Y-100584000D03*
D13*
X157734000Y-100584000D03*
D14*
X161544000Y-98044000D03*
X155194000Y-95504000D03*
D12*
X162814000Y-80518000D03*
X152654000Y-80518000D03*
D13*
X157734000Y-80518000D03*
D14*
X161544000Y-77978000D03*
X155194000Y-75438000D03*
D12*
X162814000Y-60452000D03*
X152654000Y-60452000D03*
D13*
X157734000Y-60452000D03*
D14*
X161544000Y-57912000D03*
X155194000Y-55372000D03*
D12*
X182880000Y-120650000D03*
X172720000Y-120650000D03*
D13*
X177800000Y-120650000D03*
D14*
X181610000Y-118110000D03*
X175260000Y-115570000D03*
D12*
X182880000Y-100584000D03*
X172720000Y-100584000D03*
D13*
X177800000Y-100584000D03*
D14*
X181610000Y-98044000D03*
X175260000Y-95504000D03*
D12*
X182880000Y-80518000D03*
X172720000Y-80518000D03*
D13*
X177800000Y-80518000D03*
D14*
X181610000Y-77978000D03*
X175260000Y-75438000D03*
D12*
X182880000Y-60452000D03*
X172720000Y-60452000D03*
D13*
X177800000Y-60452000D03*
D14*
X181610000Y-57912000D03*
X175260000Y-55372000D03*
D12*
X202946000Y-120650000D03*
X192786000Y-120650000D03*
D13*
X197866000Y-120650000D03*
D14*
X201676000Y-118110000D03*
X195326000Y-115570000D03*
D12*
X202946000Y-100584000D03*
X192786000Y-100584000D03*
D13*
X197866000Y-100584000D03*
D14*
X201676000Y-98044000D03*
X195326000Y-95504000D03*
D12*
X202946000Y-80518000D03*
X192786000Y-80518000D03*
D13*
X197866000Y-80518000D03*
D14*
X201676000Y-77978000D03*
X195326000Y-75438000D03*
D12*
X202946000Y-60452000D03*
X192786000Y-60452000D03*
D13*
X197866000Y-60452000D03*
D14*
X201676000Y-57912000D03*
X195326000Y-55372000D03*
D12*
X223012000Y-120650000D03*
X212852000Y-120650000D03*
D13*
X217932000Y-120650000D03*
D14*
X221742000Y-118110000D03*
X215392000Y-115570000D03*
D12*
X223012000Y-100584000D03*
X212852000Y-100584000D03*
D13*
X217932000Y-100584000D03*
D14*
X221742000Y-98044000D03*
X215392000Y-95504000D03*
D12*
X223012000Y-80518000D03*
X212852000Y-80518000D03*
D13*
X217932000Y-80518000D03*
D14*
X221742000Y-77978000D03*
X215392000Y-75438000D03*
D12*
X223012000Y-60452000D03*
X212852000Y-60452000D03*
D13*
X217932000Y-60452000D03*
D14*
X221742000Y-57912000D03*
X215392000Y-55372000D03*
D12*
X243078000Y-120650000D03*
X232918000Y-120650000D03*
D13*
X237998000Y-120650000D03*
D14*
X241808000Y-118110000D03*
X235458000Y-115570000D03*
D12*
X243078000Y-100584000D03*
X232918000Y-100584000D03*
D13*
X237998000Y-100584000D03*
D14*
X241808000Y-98044000D03*
X235458000Y-95504000D03*
D12*
X243078000Y-80518000D03*
X232918000Y-80518000D03*
D13*
X237998000Y-80518000D03*
D14*
X241808000Y-77978000D03*
X235458000Y-75438000D03*
D12*
X243078000Y-60452000D03*
X232918000Y-60452000D03*
D13*
X237998000Y-60452000D03*
D14*
X241808000Y-57912000D03*
X235458000Y-55372000D03*
D12*
X263144000Y-120650000D03*
X252984000Y-120650000D03*
D13*
X258064000Y-120650000D03*
D14*
X261874000Y-118110000D03*
X255524000Y-115570000D03*
D12*
X263144000Y-100584000D03*
X252984000Y-100584000D03*
D13*
X258064000Y-100584000D03*
D14*
X261874000Y-98044000D03*
X255524000Y-95504000D03*
D12*
X263144000Y-80518000D03*
X252984000Y-80518000D03*
D13*
X258064000Y-80518000D03*
D14*
X261874000Y-77978000D03*
X255524000Y-75438000D03*
D12*
X263144000Y-60452000D03*
X252984000Y-60452000D03*
D13*
X258064000Y-60452000D03*
D14*
X261874000Y-57912000D03*
X255524000Y-55372000D03*
D15*
X39766000Y-46990000D03*
X37266000Y-46990000D03*
X35266000Y-46990000D03*
D16*
X32766000Y-46990000D03*
D14*
X42836000Y-44280000D03*
X29696000Y-44280000D03*
D10*
X41148000Y-112014000D03*
D11*
X33528000Y-112014000D03*
D10*
X41148000Y-109220000D03*
D11*
X33528000Y-109220000D03*
D10*
X41148000Y-71882000D03*
D11*
X33528000Y-71882000D03*
D10*
X41148000Y-69088000D03*
D11*
X33528000Y-69088000D03*
D10*
X61214000Y-112014000D03*
D11*
X53594000Y-112014000D03*
D10*
X61214000Y-109220000D03*
D11*
X53594000Y-109220000D03*
D10*
X61214000Y-71882000D03*
D11*
X53594000Y-71882000D03*
D10*
X61214000Y-69088000D03*
D11*
X53594000Y-69088000D03*
D10*
X81280000Y-112014000D03*
D11*
X73660000Y-112014000D03*
D10*
X81280000Y-109220000D03*
D11*
X73660000Y-109220000D03*
D10*
X81280000Y-71882000D03*
D11*
X73660000Y-71882000D03*
D10*
X81280000Y-69088000D03*
D11*
X73660000Y-69088000D03*
D10*
X101346000Y-112014000D03*
D11*
X93726000Y-112014000D03*
D10*
X101346000Y-109220000D03*
D11*
X93726000Y-109220000D03*
D10*
X101346000Y-71882000D03*
D11*
X93726000Y-71882000D03*
D10*
X101346000Y-69088000D03*
D11*
X93726000Y-69088000D03*
D10*
X121412000Y-112014000D03*
D11*
X113792000Y-112014000D03*
D10*
X121412000Y-109220000D03*
D11*
X113792000Y-109220000D03*
D10*
X121412000Y-71882000D03*
D11*
X113792000Y-71882000D03*
D10*
X121412000Y-69088000D03*
D11*
X113792000Y-69088000D03*
D10*
X141478000Y-109220000D03*
D11*
X133858000Y-109220000D03*
D10*
X141478000Y-71882000D03*
D11*
X133858000Y-71882000D03*
D10*
X161544000Y-112014000D03*
D11*
X153924000Y-112014000D03*
D10*
X161290000Y-71882000D03*
D11*
X153670000Y-71882000D03*
D10*
X161290000Y-69088000D03*
D11*
X153670000Y-69088000D03*
D10*
X181610000Y-112014000D03*
D11*
X173990000Y-112014000D03*
D10*
X181610000Y-109220000D03*
D11*
X173990000Y-109220000D03*
D10*
X181610000Y-71882000D03*
D11*
X173990000Y-71882000D03*
D10*
X181610000Y-69088000D03*
D11*
X173990000Y-69088000D03*
D10*
X201422000Y-112014000D03*
D11*
X193802000Y-112014000D03*
D10*
X201422000Y-109220000D03*
D11*
X193802000Y-109220000D03*
D10*
X201676000Y-71882000D03*
D11*
X194056000Y-71882000D03*
D10*
X201676000Y-69088000D03*
D11*
X194056000Y-69088000D03*
D10*
X221742000Y-112014000D03*
D11*
X214122000Y-112014000D03*
D10*
X221742000Y-109220000D03*
D11*
X214122000Y-109220000D03*
D10*
X221742000Y-71882000D03*
D11*
X214122000Y-71882000D03*
D10*
X221742000Y-69088000D03*
D11*
X214122000Y-69088000D03*
D10*
X241808000Y-112014000D03*
D11*
X234188000Y-112014000D03*
D10*
X241808000Y-109220000D03*
D11*
X234188000Y-109220000D03*
D10*
X242062000Y-71882000D03*
D11*
X234442000Y-71882000D03*
D10*
X242062000Y-69088000D03*
D11*
X234442000Y-69088000D03*
D10*
X257302000Y-112014000D03*
D11*
X249682000Y-112014000D03*
D10*
X257302000Y-109220000D03*
D11*
X249682000Y-109220000D03*
D10*
X257302000Y-71882000D03*
D11*
X249682000Y-71882000D03*
D10*
X257302000Y-69088000D03*
D11*
X249682000Y-69088000D03*
M02*
